{"glyphs":{"0":{"ha":694,"x_min":77,"x_max":692,"o":"m 492 939 q 604 900 557 939 q 672 798 651 862 q 692 672 692 734 q 664 450 692 564 q 586 239 636 335 q 475 77 536 142 q 381 9 436 37 q 268 -19 326 -19 q 171 14 214 -19 q 102 109 127 46 q 77 242 77 171 q 133 555 77 398 q 249 780 180 685 q 376 906 319 874 q 492 939 433 939 m 496 892 q 461 885 476 892 q 429 853 446 877 q 386 752 412 829 q 279 408 338 611 q 226 207 235 251 q 213 96 213 144 q 231 44 213 63 q 275 25 249 25 q 321 40 303 25 q 380 143 357 71 q 521 612 436 313 q 558 819 558 743 q 540 873 558 853 q 496 892 522 892 z "},"1":{"ha":694,"x_min":33,"x_max":618,"o":"m 618 939 l 393 167 q 376 90 376 106 q 388 57 376 74 q 415 34 401 39 q 503 25 430 29 l 496 0 l 33 0 l 40 25 q 136 37 109 26 q 181 70 163 47 q 220 167 198 93 l 353 625 q 385 736 383 730 q 389 769 389 753 q 370 818 389 800 q 317 836 351 836 q 250 830 300 836 l 244 855 l 589 939 l 618 939 z "},"2":{"ha":694,"x_min":5,"x_max":671,"o":"m 494 0 l 5 0 l 5 25 q 327 349 196 201 q 465 537 437 472 q 493 667 493 602 q 454 768 493 729 q 357 806 415 806 q 195 703 262 806 l 170 714 q 262 867 205 814 q 445 939 340 939 q 607 878 543 939 q 671 739 671 818 q 640 601 671 669 q 511 429 608 532 q 208 156 436 351 l 385 156 q 505 175 471 156 q 569 253 539 195 l 601 253 l 494 0 z "},"3":{"ha":694,"x_min":17,"x_max":652,"o":"m 177 500 l 186 529 q 338 569 280 543 q 450 648 415 603 q 486 746 486 694 q 454 823 486 791 q 374 854 422 854 q 305 835 337 854 q 236 766 273 815 l 209 780 q 323 902 266 865 q 452 939 380 939 q 597 888 541 939 q 652 767 652 838 q 625 670 652 711 q 545 598 598 629 q 424 553 507 576 q 530 479 499 520 q 575 334 575 419 q 437 69 575 174 q 168 -19 321 -19 q 45 12 87 -19 q 17 67 17 33 q 39 119 17 98 q 92 139 60 139 q 123 132 109 139 q 201 86 149 121 q 286 52 252 52 q 360 94 328 52 q 407 252 407 157 q 377 382 407 326 q 300 464 347 437 q 177 500 254 491 z "},"4":{"ha":694,"x_min":24,"x_max":697,"o":"m 325 194 l 24 194 l 58 308 l 608 939 l 697 939 l 513 308 l 619 308 l 583 194 l 479 194 l 417 -19 l 263 -19 l 325 194 m 359 308 l 473 710 l 124 308 l 359 308 z "},"5":{"ha":694,"x_min":53,"x_max":700,"o":"m 353 920 l 700 920 l 654 761 l 332 761 l 292 678 q 453 626 389 663 q 557 520 517 589 q 596 369 596 450 q 544 180 596 271 q 397 34 491 88 q 199 -20 304 -20 q 89 8 124 -20 q 53 73 53 37 q 74 124 53 102 q 125 145 96 145 q 168 137 149 145 q 237 85 180 132 q 313 55 274 55 q 399 100 364 55 q 447 248 447 158 q 408 399 447 330 q 300 505 368 469 q 165 534 248 532 l 353 920 z "},"6":{"ha":694,"x_min":83,"x_max":709,"o":"m 709 946 l 709 920 q 526 817 606 891 q 355 565 427 724 q 465 586 418 586 q 592 529 541 586 q 644 366 644 471 q 568 118 644 231 q 319 -19 474 -19 q 149 54 214 -19 q 83 259 83 126 q 147 536 83 403 q 308 762 210 670 q 517 901 406 854 q 709 946 605 939 m 333 513 q 257 267 287 393 q 237 125 237 181 q 259 48 237 73 q 314 23 281 23 q 361 42 340 23 q 426 167 396 73 q 473 413 473 315 q 445 497 473 463 q 393 524 423 524 q 333 513 370 524 z "},"7":{"ha":694,"x_min":163,"x_max":769,"o":"m 288 920 l 769 920 l 769 889 l 229 -19 l 175 12 l 618 756 l 396 756 q 266 738 307 756 q 189 675 224 720 l 163 675 l 288 920 z "},"8":{"ha":694,"x_min":52,"x_max":682,"o":"m 286 480 q 221 591 243 537 q 200 696 200 645 q 270 869 200 800 q 454 939 339 939 q 621 881 559 939 q 682 741 682 823 q 656 642 682 686 q 582 564 630 598 q 486 519 551 543 q 584 373 565 416 q 604 277 604 330 q 518 67 604 153 q 302 -19 433 -19 q 118 44 185 -19 q 52 201 52 106 q 81 320 52 266 q 168 418 111 374 q 286 480 210 450 m 458 551 q 505 605 494 576 q 531 777 531 669 q 510 870 531 843 q 462 898 490 898 q 407 871 426 898 q 374 745 374 825 q 391 654 374 696 q 458 551 409 612 m 310 450 q 261 397 275 420 q 221 294 239 362 q 202 149 202 226 q 227 55 202 85 q 292 25 252 25 q 376 70 340 25 q 425 218 425 132 q 402 324 425 275 q 310 450 379 373 z "},"9":{"ha":694,"x_min":59,"x_max":684,"o":"m 59 -20 l 59 8 q 252 120 163 37 q 413 361 341 203 q 304 340 349 340 q 176 397 227 340 q 124 560 124 455 q 201 808 124 696 q 449 945 294 945 q 620 873 555 945 q 684 667 684 800 q 621 390 684 523 q 460 164 557 256 q 251 25 362 73 q 59 -20 163 -12 m 435 413 q 511 660 481 534 q 531 802 531 745 q 509 878 531 852 q 454 903 487 903 q 407 884 428 903 q 342 760 372 853 q 295 513 295 612 q 323 429 295 463 q 375 403 345 403 q 435 413 399 403 z "}," ":{"ha":347,"x_min":0,"x_max":0,"o":""}," ":{"ha":347,"x_min":0,"x_max":0,"o":""},"!":{"ha":541,"x_min":77,"x_max":488,"o":"m 250 262 l 224 262 q 273 627 257 441 q 324 877 290 812 q 413 941 358 941 q 465 915 442 941 q 488 852 488 889 q 477 787 488 823 q 406 627 465 751 q 250 262 307 419 m 187 202 q 266 170 233 202 q 298 92 298 137 q 265 13 298 45 q 187 -19 233 -19 q 109 13 141 -19 q 77 92 77 45 q 109 170 77 137 q 187 202 141 202 z "},"\"":{"ha":771,"x_min":229,"x_max":777,"o":"m 589 489 l 555 489 l 561 749 q 575 851 563 821 q 629 916 593 892 q 705 941 665 941 q 756 921 736 941 q 777 871 777 901 q 771 836 777 851 q 728 749 762 812 l 589 489 m 262 489 l 229 489 l 233 750 q 276 894 235 847 q 376 941 317 941 q 429 921 408 941 q 450 873 450 901 q 403 749 450 835 l 262 489 z "},"#":{"ha":694,"x_min":54,"x_max":694,"o":"m 88 -19 l 146 269 l 54 269 l 54 359 l 164 359 l 204 557 l 54 557 l 54 645 l 222 645 l 281 939 l 370 939 l 311 645 l 511 645 l 569 939 l 659 939 l 599 645 l 694 645 l 694 557 l 582 557 l 541 359 l 694 359 l 694 269 l 524 269 l 466 -19 l 376 -19 l 434 269 l 237 269 l 176 -19 l 88 -19 m 254 359 l 454 359 l 493 557 l 294 557 l 254 359 z "},"$":{"ha":694,"x_min":54,"x_max":694,"o":"m 434 570 q 585 406 562 443 q 628 259 628 339 q 535 56 628 132 q 307 -20 442 -20 q 263 -19 292 -20 l 238 -105 l 186 -105 l 213 -12 q 141 7 168 -3 q 54 47 114 16 l 117 266 l 142 266 q 168 123 147 165 q 233 54 189 81 l 336 411 q 206 565 241 501 q 172 694 172 629 q 206 817 172 758 q 305 908 240 876 q 444 941 370 941 q 488 939 458 941 l 500 978 l 552 978 l 538 931 q 694 870 631 911 l 630 671 l 604 671 q 612 744 612 716 q 585 829 612 791 q 523 880 567 857 l 434 570 m 474 892 q 367 855 408 895 q 325 754 325 815 q 393 610 325 681 l 474 892 m 280 40 q 314 37 301 37 q 419 85 373 37 q 465 199 465 132 q 445 284 465 245 q 376 373 425 323 l 280 40 z "},"%":{"ha":1157,"x_min":150,"x_max":1084,"o":"m 1082 941 l 237 -37 l 155 -37 l 998 941 l 1082 941 m 307 440 q 194 487 237 440 q 150 620 150 534 q 239 853 150 753 q 412 935 312 935 q 531 889 486 935 q 576 761 576 843 q 493 533 576 625 q 307 440 410 440 m 311 476 q 348 488 334 476 q 382 540 368 504 q 435 720 389 557 q 461 848 461 812 q 448 885 461 871 q 417 899 435 899 q 383 890 395 899 q 345 834 361 873 q 290 648 333 806 q 266 526 266 564 q 279 490 266 503 q 311 476 292 476 m 811 -39 q 701 9 745 -39 q 656 143 656 57 q 739 365 656 272 q 919 457 822 457 q 1037 410 991 457 q 1084 283 1084 362 q 998 56 1084 151 q 811 -39 912 -39 m 815 0 q 851 12 836 0 q 889 68 873 29 q 944 246 899 91 q 968 368 968 331 q 954 407 968 392 q 920 422 939 422 q 876 398 895 422 q 825 274 856 375 q 774 49 774 106 q 786 13 774 26 q 815 0 798 0 z "},"&":{"ha":1080,"x_min":64,"x_max":981,"o":"m 402 507 q 395 573 397 544 q 392 625 392 603 q 476 851 392 761 q 675 941 560 941 q 792 899 748 941 q 837 800 837 858 q 793 675 837 728 q 587 536 729 597 q 650 348 633 391 q 695 255 667 305 q 751 338 734 298 q 768 404 768 378 q 755 442 768 426 q 713 466 742 458 l 721 490 l 981 490 l 971 466 q 909 436 935 457 q 817 324 884 415 q 721 210 768 259 q 820 106 775 134 q 885 87 848 87 q 922 94 906 87 q 960 119 937 100 l 981 119 q 895 14 949 50 q 774 -21 842 -21 q 671 2 717 -21 q 575 79 626 24 q 434 4 505 29 q 292 -21 363 -21 q 125 37 187 -21 q 64 174 64 96 q 90 286 64 237 q 191 390 117 334 q 402 507 264 446 m 575 587 q 657 669 631 627 q 693 792 693 727 q 673 867 693 841 q 631 887 656 887 q 583 863 601 887 q 557 749 557 826 q 562 674 557 715 q 575 587 566 634 m 412 456 q 301 368 334 414 q 267 258 267 322 q 316 127 267 180 q 424 74 364 74 q 481 85 450 74 q 549 119 512 97 q 469 277 507 182 q 412 456 431 372 z "},"'":{"ha":386,"x_min":216,"x_max":437,"o":"m 249 490 l 216 490 l 220 749 q 262 893 220 846 q 363 941 304 941 q 416 921 395 941 q 437 871 437 901 q 391 749 437 833 l 249 490 z "},"(":{"ha":463,"x_min":70,"x_max":604,"o":"m 604 941 l 591 903 q 431 743 494 834 q 272 399 333 602 q 210 19 210 197 q 264 -225 210 -94 l 252 -264 q 70 222 70 -20 q 131 499 70 362 q 344 783 203 659 q 604 941 452 878 z "},")":{"ha":463,"x_min":-157,"x_max":377,"o":"m -157 -264 l -144 -227 q -13 -105 -66 -172 q 98 79 41 -39 q 191 331 155 197 q 237 657 237 505 q 184 902 237 770 l 195 941 q 377 454 377 696 q 316 177 377 314 q 103 -106 245 18 q -157 -264 -5 -201 z "},"*":{"ha":694,"x_min":167,"x_max":707,"o":"m 424 673 q 416 732 422 712 q 388 795 410 753 q 366 862 366 838 q 388 917 366 893 q 437 941 410 941 q 487 919 466 941 q 509 861 509 897 q 488 794 509 833 q 461 734 467 755 q 452 673 455 713 q 506 700 490 688 q 554 745 522 711 q 636 791 597 791 q 686 771 666 791 q 707 724 707 751 q 682 673 707 695 q 616 650 657 650 q 570 652 604 650 q 534 653 553 653 q 458 650 509 653 q 504 605 488 617 q 560 572 520 592 q 616 528 600 551 q 629 485 629 511 q 610 436 629 456 q 562 416 590 416 q 510 440 533 416 q 477 526 486 464 q 466 584 472 566 q 438 637 459 602 q 408 582 416 602 q 395 526 401 562 q 364 441 387 464 q 312 418 342 418 q 264 437 284 418 q 244 482 244 456 q 259 531 244 509 q 316 575 275 552 q 372 609 357 597 q 418 650 388 621 l 345 653 q 309 652 326 653 q 254 650 269 650 q 191 671 216 650 q 167 723 167 693 q 187 771 167 751 q 237 791 207 791 q 319 750 280 791 q 370 701 359 709 q 424 673 387 689 z "},"+":{"ha":791,"x_min":54,"x_max":795,"o":"m 54 505 l 380 505 l 380 830 l 469 830 l 469 505 l 795 505 l 795 415 l 469 415 l 469 92 l 380 92 l 380 415 l 54 415 l 54 505 z "},",":{"ha":347,"x_min":-39,"x_max":244,"o":"m -24 -223 l -39 -195 q 90 -105 64 -136 q 109 -58 109 -81 q 74 1 109 -31 q 28 56 39 33 q 19 99 19 73 q 52 175 19 143 q 132 207 85 207 q 211 171 177 207 q 244 81 244 135 q 179 -85 244 -3 q -24 -223 115 -168 z "},"-":{"ha":463,"x_min":9,"x_max":448,"o":"m 53 375 l 448 375 l 406 234 l 9 234 l 53 375 z "},"­":{"ha":463,"x_min":9,"x_max":448,"o":"m 53 375 l 448 375 l 406 234 l 9 234 l 53 375 z "},".":{"ha":347,"x_min":-18,"x_max":205,"o":"m 93 203 q 172 171 140 203 q 205 92 205 138 q 172 14 205 46 q 93 -19 139 -19 q 14 14 47 -19 q -18 92 -18 46 q 14 171 -18 138 q 93 203 47 203 z "},"/":{"ha":386,"x_min":-113,"x_max":576,"o":"m 576 939 l -16 -21 l -113 -21 l 480 939 l 576 939 z "},":":{"ha":463,"x_min":56,"x_max":401,"o":"m 290 627 q 369 594 336 627 q 401 515 401 562 q 369 437 401 469 q 290 404 336 404 q 211 437 243 404 q 178 515 178 469 q 211 594 178 562 q 290 627 243 627 m 167 203 q 246 171 214 203 q 279 92 279 138 q 246 14 279 46 q 167 -19 213 -19 q 88 14 121 -19 q 56 92 56 46 q 88 171 56 138 q 167 203 121 203 z "},";":{"ha":463,"x_min":1,"x_max":406,"o":"m 292 628 q 373 595 340 628 q 406 515 406 562 q 372 435 406 469 q 292 402 339 402 q 213 435 246 402 q 180 515 180 469 q 213 595 180 562 q 292 628 245 628 m 16 -223 l 1 -195 q 130 -105 104 -136 q 149 -58 149 -81 q 114 1 149 -31 q 68 56 79 33 q 59 99 59 73 q 92 175 59 143 q 172 207 125 207 q 251 171 217 207 q 284 81 284 135 q 219 -85 284 -3 q 16 -223 155 -168 z "},";":{"ha":463,"x_min":1,"x_max":406,"o":"m 292 628 q 373 595 340 628 q 406 515 406 562 q 372 435 406 469 q 292 402 339 402 q 213 435 246 402 q 180 515 180 469 q 213 595 180 562 q 292 628 245 628 m 16 -223 l 1 -195 q 130 -105 104 -136 q 149 -58 149 -81 q 114 1 149 -31 q 68 56 79 33 q 59 99 59 73 q 92 175 59 143 q 172 207 125 207 q 251 171 217 207 q 284 81 284 135 q 219 -85 284 -3 q 16 -223 155 -168 z "},"<":{"ha":791,"x_min":54,"x_max":795,"o":"m 795 125 l 54 428 l 54 483 l 795 789 l 795 695 l 222 456 l 795 220 l 795 125 z "},"=":{"ha":791,"x_min":54,"x_max":796,"o":"m 54 613 l 796 613 l 796 525 l 54 525 l 54 613 m 54 391 l 796 391 l 796 303 l 54 303 l 54 391 z "},">":{"ha":791,"x_min":54,"x_max":795,"o":"m 54 789 l 795 487 l 795 431 l 54 125 l 54 220 l 627 458 l 54 694 l 54 789 z "},"?":{"ha":694,"x_min":123,"x_max":661,"o":"m 261 259 l 233 259 q 257 383 233 332 q 380 553 280 435 q 479 702 451 637 q 497 793 497 745 q 470 881 497 850 q 401 912 442 912 q 355 897 372 912 q 338 863 338 882 q 350 829 338 850 q 374 755 374 787 q 347 695 374 721 q 282 669 320 669 q 215 697 243 669 q 188 774 188 726 q 256 898 188 854 q 414 941 324 941 q 546 916 489 941 q 632 847 604 892 q 661 755 661 803 q 627 632 661 686 q 458 483 578 557 q 305 368 338 409 q 261 259 271 326 m 234 202 q 312 170 280 202 q 345 92 345 138 q 312 13 345 45 q 234 -20 279 -20 q 155 13 188 -20 q 123 92 123 45 q 155 170 123 138 q 234 202 187 202 z "},"@":{"ha":1156,"x_min":-5,"x_max":1194,"o":"m 732 627 l 897 634 l 773 208 q 752 102 752 138 q 768 65 752 81 q 807 49 784 49 q 928 103 854 49 q 1051 257 1002 157 q 1099 470 1099 357 q 979 778 1099 657 q 665 898 859 898 q 362 820 498 898 q 146 592 226 741 q 66 272 66 443 q 215 -112 66 37 q 596 -262 365 -262 q 938 -159 787 -262 q 1152 112 1089 -57 l 1194 112 q 957 -194 1112 -87 q 595 -300 801 -300 q 164 -131 334 -300 q -5 296 -5 37 q 79 625 -5 473 q 315 859 163 777 q 651 941 467 941 q 913 881 801 941 q 1082 712 1025 821 q 1138 483 1138 604 q 1077 227 1138 342 q 926 55 1017 111 q 731 0 836 0 q 629 33 664 0 q 593 119 593 66 q 610 214 593 155 q 522 85 553 121 q 437 14 479 37 q 376 0 410 0 q 295 38 328 0 q 262 151 262 77 q 284 299 262 227 q 344 436 306 372 q 432 551 382 500 q 544 635 481 602 q 612 653 576 653 q 675 629 650 653 q 709 547 700 606 l 732 627 m 629 604 q 578 576 604 604 q 506 447 545 537 q 437 186 437 285 q 449 140 437 157 q 477 124 462 124 q 514 143 490 124 q 588 233 549 170 q 652 373 627 296 q 677 515 677 450 q 660 586 677 562 q 629 604 647 604 z "},"A":{"ha":926,"x_min":-79,"x_max":833,"o":"m 563 296 l 278 296 l 221 226 l 156 148 q 128 102 137 123 q 121 71 121 87 q 139 41 121 55 q 196 25 156 27 l 196 0 l -79 0 l -72 25 q -7 51 -35 31 q 102 163 31 78 l 754 941 l 785 941 l 754 188 q 752 117 752 129 q 771 50 752 71 q 833 25 789 28 l 826 0 l 428 0 l 435 25 q 503 35 494 31 q 538 74 522 44 q 557 179 553 104 l 563 296 m 563 352 l 581 652 l 325 352 l 563 352 z "},"B":{"ha":926,"x_min":-35,"x_max":896,"o":"m 215 920 l 578 920 q 752 907 700 920 q 858 843 821 890 q 896 736 896 796 q 866 637 896 688 q 777 553 836 586 q 595 492 718 520 q 772 400 722 456 q 821 269 821 344 q 772 131 821 199 q 643 32 724 63 q 347 0 562 0 l -35 0 l -26 25 q 53 35 29 25 q 92 67 77 45 q 126 156 106 88 l 290 722 q 315 837 315 808 q 295 876 315 861 q 208 895 275 892 l 215 920 m 423 513 q 569 543 515 515 q 654 634 622 570 q 686 753 686 697 q 653 840 686 806 q 564 871 620 873 l 527 870 l 423 513 m 407 463 l 290 54 q 340 52 323 52 q 551 137 492 52 q 610 317 610 221 q 587 399 610 363 q 528 449 564 435 q 407 463 492 463 z "},"C":{"ha":926,"x_min":91,"x_max":1001,"o":"m 1001 941 l 933 648 l 907 648 q 848 826 902 768 q 707 885 794 885 q 521 805 614 885 q 363 560 428 725 q 311 296 311 427 q 369 118 311 180 q 526 57 426 57 q 673 92 606 57 q 807 207 739 127 l 840 207 q 670 30 755 81 q 460 -21 584 -21 q 192 80 294 -21 q 91 342 91 180 q 172 632 91 494 q 404 856 252 770 q 705 941 555 941 q 847 916 762 941 q 907 904 890 904 q 976 941 941 904 l 1001 941 z "},"D":{"ha":1003,"x_min":-50,"x_max":975,"o":"m -50 0 l -42 25 q 59 53 24 25 q 115 155 93 80 l 282 735 q 298 829 298 792 q 279 875 298 860 q 182 895 260 890 l 191 920 l 505 920 q 864 819 754 920 q 975 536 975 718 q 924 321 975 408 q 687 76 824 152 q 335 0 550 0 l -50 0 m 524 865 l 322 168 q 308 99 308 120 q 323 68 308 80 q 384 53 344 53 q 555 113 479 53 q 702 319 651 189 q 752 576 752 448 q 723 736 752 668 q 633 841 694 805 q 524 865 590 865 z "},"E":{"ha":926,"x_min":-49,"x_max":944,"o":"m 525 869 l 422 512 l 454 512 q 634 545 577 512 q 730 660 690 577 l 755 660 l 652 302 l 628 302 q 634 360 634 338 q 612 421 634 397 q 555 455 590 445 q 459 462 532 462 l 406 462 l 318 153 q 307 93 307 113 q 321 68 307 77 q 404 54 343 54 q 622 103 519 54 q 806 252 724 153 l 833 252 l 738 0 l -49 0 l -41 25 q 60 51 28 25 q 118 166 92 77 l 291 758 q 305 836 305 808 q 287 876 305 862 q 203 895 269 890 l 211 920 l 944 920 l 885 690 l 861 690 q 840 785 858 758 q 764 849 811 829 q 611 869 717 869 l 525 869 z "},"F":{"ha":926,"x_min":0,"x_max":1004,"o":"m 568 868 l 467 521 q 602 529 570 522 q 694 572 652 539 q 763 663 735 605 l 789 663 l 684 300 l 657 300 q 664 357 664 336 q 647 424 664 399 q 602 458 629 449 q 453 470 575 467 l 370 183 l 354 125 q 351 92 351 109 q 360 55 351 68 q 389 34 369 41 q 467 25 410 26 l 459 0 l 0 0 l 7 25 q 104 50 74 25 q 159 158 135 75 l 323 721 q 351 835 349 810 q 329 875 349 859 q 245 895 309 892 l 252 920 l 1004 920 l 942 677 l 917 677 q 893 790 913 753 q 828 847 873 827 q 684 868 783 868 l 568 868 z "},"G":{"ha":1003,"x_min":96,"x_max":1038,"o":"m 1038 941 l 974 646 l 948 646 q 890 831 943 774 q 743 888 838 888 q 547 819 645 888 q 381 607 450 750 q 312 305 312 463 q 373 98 312 170 q 516 26 434 26 q 600 46 551 26 l 671 289 q 688 369 688 350 q 667 411 688 394 q 593 429 646 429 l 600 454 l 997 454 l 991 429 q 936 415 956 427 q 904 382 916 404 q 883 316 897 370 l 800 33 q 500 -21 657 -21 q 293 23 378 -21 q 152 163 208 67 q 96 380 96 258 q 328 810 96 641 q 739 941 509 941 q 812 937 779 941 q 901 918 838 933 q 956 907 941 907 q 1013 941 986 907 l 1038 941 z "},"H":{"ha":1080,"x_min":-45,"x_max":1197,"o":"m 413 496 l 749 496 l 824 753 q 839 834 839 806 q 821 876 839 861 q 732 895 802 890 l 740 920 l 1197 920 l 1190 895 q 1088 866 1122 895 q 1029 753 1053 838 l 858 165 q 841 82 841 107 q 859 44 841 57 q 945 25 883 26 l 939 0 l 490 0 l 500 25 q 596 51 566 25 q 653 165 627 76 l 732 439 l 397 439 l 319 165 q 302 81 302 109 q 322 42 302 57 q 404 25 343 26 l 397 0 l -45 0 l -37 25 q 58 51 28 25 q 114 165 88 76 l 285 753 q 300 833 300 804 q 282 876 300 861 q 196 895 264 890 l 203 920 l 653 920 l 643 895 q 549 868 581 895 q 490 753 517 841 l 413 496 z "},"I":{"ha":541,"x_min":-49,"x_max":648,"o":"m 192 895 l 199 920 l 648 920 l 640 895 q 546 867 578 895 q 490 754 514 840 l 321 165 q 303 82 303 103 q 322 44 303 58 q 414 25 347 26 l 408 0 l -49 0 l -41 25 q 59 51 27 25 q 117 165 91 77 l 286 754 q 302 836 302 808 q 283 876 302 861 q 192 895 264 890 z "},"J":{"ha":694,"x_min":-11,"x_max":830,"o":"m 371 895 l 378 920 l 830 920 l 823 895 q 726 866 760 895 q 669 758 692 838 l 570 414 q 476 153 517 227 q 362 28 436 78 q 173 -21 288 -21 q 35 18 80 -21 q -11 117 -11 57 q 20 199 -11 166 q 90 232 51 232 q 150 210 125 232 q 174 155 174 187 q 144 90 174 125 q 127 56 127 68 q 136 37 127 45 q 174 25 153 25 q 247 77 213 25 q 345 347 281 128 l 466 758 q 481 836 481 812 q 463 876 481 861 q 371 895 444 890 z "},"K":{"ha":926,"x_min":-45,"x_max":1037,"o":"m 852 0 l 454 0 l 461 25 q 519 48 500 28 q 538 96 538 67 q 517 193 538 126 l 420 506 l 323 170 q 307 89 307 114 q 329 43 307 60 q 410 25 351 26 l 402 0 l -45 0 l -37 25 q 43 39 16 26 q 85 79 69 52 q 122 183 100 106 l 277 718 q 303 836 303 810 q 282 876 303 859 q 201 895 260 892 l 208 920 l 641 920 l 633 895 q 567 882 590 895 q 517 830 536 864 q 482 726 505 808 l 420 507 l 659 726 q 737 804 729 791 q 748 840 748 821 q 733 875 748 860 q 683 895 719 890 l 690 920 l 1037 920 l 1029 895 q 964 883 989 891 q 888 846 931 872 q 802 785 846 820 l 739 726 l 593 595 l 701 256 q 783 58 754 89 q 859 25 812 28 l 852 0 z "},"L":{"ha":848,"x_min":-45,"x_max":791,"o":"m 690 0 l -45 0 l -37 25 q 59 51 28 25 q 115 165 89 76 l 286 755 q 300 832 300 804 q 279 876 300 859 q 199 895 259 892 l 207 920 l 648 920 l 641 895 q 546 866 577 893 q 490 755 514 839 l 334 215 q 304 90 304 112 q 319 64 304 76 q 368 52 334 52 q 586 104 481 52 q 763 258 690 155 l 791 258 l 690 0 z "},"M":{"ha":1235,"x_min":-47,"x_max":1353,"o":"m 526 920 l 593 288 l 1031 920 l 1353 920 l 1345 895 q 1244 866 1278 895 q 1185 753 1209 838 l 1015 165 q 999 82 999 109 q 1019 42 999 57 q 1099 25 1040 26 l 1093 0 l 634 0 l 642 25 q 751 53 716 25 q 811 165 787 81 l 984 761 l 458 0 l 430 0 l 347 776 l 172 165 q 161 102 161 127 q 184 48 161 68 q 264 25 208 27 l 257 0 l -47 0 l -41 25 q 43 48 14 27 q 118 165 95 86 l 317 844 q 266 885 288 876 q 189 895 243 895 l 197 920 l 526 920 z "},"N":{"ha":1003,"x_min":-45,"x_max":1126,"o":"m 495 920 l 783 307 l 912 751 q 922 817 922 788 q 901 871 922 850 q 827 895 880 891 l 835 920 l 1126 920 l 1120 895 q 1028 863 1064 891 q 966 751 991 836 l 742 -10 l 716 -10 l 347 774 l 169 163 q 160 106 160 131 q 184 47 160 69 q 261 25 208 25 l 255 0 l -45 0 l -39 25 q 16 32 0 25 q 72 74 45 43 q 116 163 99 104 l 311 831 q 250 882 275 871 q 177 895 226 894 l 184 920 l 495 920 z "},"O":{"ha":1003,"x_min":74,"x_max":998,"o":"m 391 -22 q 211 24 279 -22 q 108 148 142 69 q 74 301 74 227 q 160 605 74 452 q 392 849 246 758 q 681 941 538 941 q 839 899 764 941 q 956 782 914 857 q 998 630 998 707 q 888 286 998 458 q 643 36 779 113 q 391 -22 540 -22 m 659 886 q 567 866 605 886 q 489 802 530 847 q 406 672 448 756 q 327 442 364 587 q 290 200 290 297 q 326 75 290 117 q 418 33 362 33 q 545 82 493 33 q 714 371 649 180 q 780 709 780 561 q 745 844 780 802 q 659 886 710 886 z "},"P":{"ha":848,"x_min":-41,"x_max":894,"o":"m 394 422 l 319 166 q 304 90 304 112 q 324 42 304 58 q 416 25 345 26 l 408 0 l -41 0 l -34 25 q 47 36 23 26 q 86 71 71 47 q 121 166 98 86 l 291 750 q 309 833 309 808 q 286 876 309 859 q 205 895 264 893 l 212 920 l 576 920 q 792 882 726 920 q 894 703 894 822 q 792 499 894 587 q 519 412 691 412 q 394 422 468 412 m 408 475 q 481 469 452 469 q 628 555 574 469 q 682 733 682 640 q 647 831 682 796 q 551 866 612 866 q 519 865 538 866 l 408 475 z "},"Q":{"ha":1003,"x_min":74,"x_max":997,"o":"m 415 -21 l 296 -130 q 406 -116 363 -116 q 572 -144 465 -116 q 741 -173 679 -173 q 866 -149 808 -173 q 940 -98 902 -134 l 960 -117 q 799 -244 892 -200 q 565 -289 706 -289 q 380 -266 486 -289 q 212 -243 274 -243 q 106 -258 162 -243 l 93 -241 l 343 -21 q 208 26 255 -6 q 109 145 144 70 q 74 301 74 221 q 160 605 74 452 q 392 849 247 758 q 681 941 538 941 q 839 899 764 941 q 956 782 914 858 q 997 625 997 707 q 938 376 997 504 q 778 153 879 248 q 575 16 677 58 q 415 -21 506 -14 m 659 886 q 567 866 605 886 q 489 802 530 847 q 406 672 448 756 q 327 442 364 587 q 290 200 290 297 q 326 75 290 117 q 418 33 362 33 q 545 82 493 33 q 714 371 649 180 q 780 709 780 561 q 745 844 780 802 q 659 886 710 886 z "},"R":{"ha":926,"x_min":-44,"x_max":888,"o":"m 399 449 l 317 170 q 300 83 300 111 q 321 42 300 58 q 408 25 342 26 l 399 0 l -44 0 l -36 25 q 61 51 31 25 q 118 166 92 77 l 289 756 q 303 834 303 806 q 286 876 303 861 q 203 895 268 890 l 210 920 l 591 920 q 821 863 755 920 q 888 716 888 806 q 810 546 888 622 q 637 464 762 498 l 720 185 q 778 50 753 73 q 861 25 803 27 l 861 0 l 574 0 l 444 449 l 422 448 q 399 449 414 448 m 408 490 q 448 488 432 488 q 611 556 547 488 q 675 734 675 624 q 641 833 675 799 q 551 867 607 867 q 519 866 538 867 l 408 490 z "},"S":{"ha":772,"x_min":-31,"x_max":810,"o":"m 810 941 l 734 629 l 711 629 q 685 746 704 702 q 609 844 656 810 q 507 879 562 879 q 415 839 454 879 q 375 747 375 798 q 402 649 375 697 q 532 503 430 600 q 643 368 614 425 q 671 246 671 312 q 631 110 671 172 q 517 13 592 47 q 347 -21 442 -21 q 200 -4 289 -21 q 83 14 112 14 q 41 6 60 14 q -4 -21 23 -1 l -31 -21 l 52 330 l 77 330 q 115 173 86 237 q 196 72 143 108 q 317 35 249 35 q 429 80 384 35 q 474 184 474 124 q 449 281 474 235 q 333 418 423 328 q 208 578 242 507 q 182 689 182 630 q 263 866 182 791 q 474 941 344 941 q 629 914 533 941 q 709 899 686 899 q 744 907 728 899 q 781 941 760 916 l 810 941 z "},"T":{"ha":848,"x_min":111,"x_max":962,"o":"m 222 920 l 962 920 l 892 672 l 868 672 q 869 707 869 692 q 828 816 869 777 q 688 861 787 855 l 484 168 q 467 83 467 111 q 488 42 467 57 q 573 25 509 26 l 567 0 l 111 0 l 119 25 q 220 51 189 25 q 279 168 252 77 l 484 861 q 307 814 378 857 q 176 672 235 772 l 150 672 l 222 920 z "},"U":{"ha":1003,"x_min":130,"x_max":1123,"o":"m 812 920 l 1123 920 l 1117 895 q 1034 869 1063 890 q 964 755 987 834 l 842 333 q 688 57 785 136 q 439 -21 590 -21 q 289 3 354 -21 q 193 58 224 28 q 146 134 163 89 q 130 210 130 179 q 157 352 130 258 l 274 755 q 290 836 290 809 q 270 876 290 861 q 180 895 251 890 l 188 920 l 646 920 l 638 895 q 537 866 572 895 q 478 755 502 838 l 361 352 q 332 190 332 251 q 376 93 332 134 q 501 52 421 52 q 626 78 574 52 q 711 153 677 105 q 791 338 755 218 l 911 755 q 921 814 921 791 q 891 879 921 857 q 804 895 870 895 l 812 920 z "},"V":{"ha":926,"x_min":165,"x_max":1078,"o":"m 217 -21 l 247 748 q 249 819 249 815 q 231 873 249 856 q 165 895 213 891 l 173 920 l 559 920 l 552 895 q 477 865 503 895 q 448 741 452 835 l 426 262 l 785 678 q 871 790 854 759 q 887 844 887 821 q 872 874 887 861 q 815 895 857 888 l 825 920 l 1078 920 l 1078 895 q 1025 871 1046 886 q 933 776 996 848 l 247 -21 l 217 -21 z "},"W":{"ha":1235,"x_min":171,"x_max":1392,"o":"m 181 -21 l 243 766 q 246 823 246 800 q 230 876 246 859 q 171 895 213 892 l 181 920 l 553 920 l 545 895 l 527 895 q 468 870 490 895 q 440 781 445 846 l 404 314 l 682 693 l 688 781 q 691 824 691 808 q 673 875 691 857 q 614 895 655 892 l 621 920 l 995 920 l 987 895 q 914 870 938 895 q 885 781 890 846 l 850 314 l 1117 682 q 1202 810 1185 776 q 1213 849 1213 833 q 1198 877 1213 865 q 1139 895 1183 890 l 1146 920 l 1392 920 l 1385 895 q 1331 871 1352 888 q 1251 781 1300 848 l 667 -21 l 627 -21 l 674 600 l 222 -21 l 181 -21 z "},"X":{"ha":926,"x_min":-84,"x_max":1060,"o":"m 418 425 l 275 759 q 213 868 237 847 q 140 895 190 890 l 140 920 l 546 920 l 538 895 q 481 878 496 891 q 466 842 466 864 q 490 759 466 815 l 571 566 l 684 670 q 806 799 779 756 q 821 844 821 824 q 805 878 821 863 q 751 895 788 892 l 760 920 l 1060 920 l 1054 895 q 991 870 1020 888 q 840 743 946 841 l 592 516 l 731 193 q 803 58 779 82 q 875 25 827 35 l 868 0 l 460 0 l 469 25 q 531 42 511 26 q 551 83 551 59 q 513 203 551 117 l 438 376 l 269 218 q 175 121 188 144 q 161 78 161 98 q 180 42 161 58 q 243 25 199 26 l 235 0 l -84 0 l -77 25 q -16 47 -41 32 q 140 171 47 85 l 418 425 z "},"Y":{"ha":848,"x_min":129,"x_max":996,"o":"m 368 406 l 290 741 q 243 860 271 828 q 166 895 222 884 l 174 920 l 615 920 l 607 895 q 513 868 543 895 q 484 806 484 842 q 496 728 484 784 l 555 456 l 704 661 q 775 772 761 740 q 789 829 789 804 q 771 871 789 853 q 712 895 753 890 l 720 920 l 996 920 l 996 895 q 931 870 958 890 q 825 741 904 850 l 564 382 l 503 169 q 484 92 484 103 q 506 44 484 63 q 581 25 528 25 l 607 25 l 600 0 l 129 0 l 136 25 q 218 39 187 24 q 265 77 250 54 q 297 163 276 93 l 368 406 z "},"Z":{"ha":848,"x_min":-38,"x_max":943,"o":"m 943 895 l 239 50 l 294 50 q 559 99 459 50 q 743 259 659 147 l 772 259 l 675 0 l -38 0 l -38 25 l 665 867 l 578 867 q 333 826 413 867 q 196 686 253 785 l 169 686 l 248 920 l 943 920 l 943 895 z "},"[":{"ha":463,"x_min":-40,"x_max":595,"o":"m -40 -256 l 302 920 l 595 920 l 588 895 l 566 895 q 492 884 516 895 q 452 850 469 873 q 417 765 435 827 l 165 -96 q 144 -193 144 -170 q 150 -210 144 -202 q 172 -225 157 -219 q 218 -229 183 -229 l 260 -229 l 252 -256 l -40 -256 z "},"\\":{"ha":386,"x_min":109,"x_max":282,"o":"m 190 939 l 282 -21 l 199 -21 l 109 939 l 190 939 z "},"]":{"ha":463,"x_min":-154,"x_max":481,"o":"m 481 920 l 140 -256 l -154 -256 l -146 -229 l -124 -229 q -51 -219 -75 -229 q -11 -185 -27 -208 q 24 -100 6 -163 l 276 761 q 297 857 297 833 q 292 874 297 867 q 269 890 284 884 q 223 895 258 895 l 182 895 l 189 920 l 481 920 z "},"^":{"ha":791,"x_min":141,"x_max":749,"o":"m 141 452 l 420 939 l 475 939 l 749 452 l 642 452 l 441 799 l 245 452 l 141 452 z "},"_":{"ha":694,"x_min":-122,"x_max":598,"o":"m -122 -211 l 598 -211 l 598 -300 l -122 -300 l -122 -211 z "},"`":{"ha":463,"x_min":165,"x_max":437,"o":"m 165 941 l 365 941 l 437 705 l 385 705 l 165 941 z "},"a":{"ha":694,"x_min":27,"x_max":665,"o":"m 665 619 l 534 168 l 520 113 q 518 98 518 103 q 524 84 518 90 q 536 78 530 78 q 575 100 550 78 q 624 162 585 109 l 648 150 q 545 21 600 62 q 427 -19 490 -19 q 368 1 389 -19 q 348 52 348 21 q 370 150 348 78 l 386 205 q 235 14 307 70 q 145 -19 193 -19 q 55 32 83 -19 q 27 148 27 83 q 85 367 27 243 q 239 566 144 491 q 385 629 317 629 q 446 607 423 629 q 480 526 469 585 l 505 610 l 665 619 m 448 490 q 431 570 448 545 q 398 587 419 587 q 355 566 377 587 q 257 396 309 524 q 204 174 204 267 q 216 122 204 138 q 242 106 228 106 q 304 141 273 106 q 385 264 349 191 q 448 490 448 391 z "},"b":{"ha":694,"x_min":13,"x_max":651,"o":"m 439 941 l 321 532 q 411 609 375 590 q 489 629 447 629 q 611 570 570 629 q 651 435 651 511 q 518 108 651 252 q 250 -19 400 -19 q 13 47 138 -19 l 220 766 q 235 836 235 817 q 222 862 235 852 q 164 873 203 876 l 172 901 l 398 941 l 439 941 m 178 40 q 236 20 210 20 q 296 34 272 20 q 377 117 335 57 q 448 263 420 178 q 477 433 477 349 q 455 507 477 481 q 405 532 433 532 q 322 486 357 532 q 271 359 298 456 l 178 40 z "},"c":{"ha":616,"x_min":37,"x_max":605,"o":"m 522 163 l 542 145 q 412 30 476 66 q 237 -19 328 -19 q 129 7 176 -19 q 59 80 81 33 q 37 177 37 127 q 97 396 37 288 q 256 566 157 503 q 451 629 355 629 q 566 595 528 629 q 605 511 605 561 q 576 433 605 465 q 511 401 547 401 q 459 422 479 401 q 438 470 438 442 q 475 534 438 507 q 500 567 500 553 q 490 587 500 579 q 454 597 476 597 q 347 551 397 597 q 245 397 281 490 q 210 219 210 303 q 246 113 210 153 q 332 73 282 73 q 426 96 375 73 q 522 163 476 118 z "},"d":{"ha":694,"x_min":28,"x_max":758,"o":"m 758 941 l 537 182 q 516 96 516 111 q 522 83 516 88 q 533 77 527 77 q 559 89 545 77 q 621 161 585 108 l 645 148 q 435 -19 549 -19 q 372 2 394 -19 q 350 57 350 24 q 368 148 350 89 l 388 217 q 241 18 303 67 q 149 -19 193 -19 q 63 22 98 -19 q 28 143 28 64 q 73 342 28 244 q 176 507 117 441 q 288 601 235 572 q 393 629 341 629 q 440 618 419 629 q 487 577 460 607 l 537 746 q 555 836 555 808 q 543 863 555 852 q 511 875 531 875 q 487 873 501 875 l 494 899 l 717 941 l 758 941 m 459 511 q 443 571 459 552 q 405 590 427 590 q 358 568 383 590 q 257 393 310 524 q 205 172 205 262 q 216 124 205 140 q 242 109 228 109 q 290 130 266 109 q 403 308 347 182 q 459 511 459 433 z "},"e":{"ha":616,"x_min":31,"x_max":611,"o":"m 217 254 q 211 182 211 210 q 240 100 211 131 q 319 70 270 70 q 415 93 367 70 q 526 174 463 116 l 546 155 q 394 21 468 61 q 231 -19 320 -19 q 74 35 117 -19 q 31 161 31 90 q 95 383 31 272 q 272 562 160 494 q 496 629 383 629 q 582 602 553 629 q 611 533 611 574 q 583 437 611 484 q 484 334 543 373 q 350 275 424 295 q 217 254 300 261 m 223 290 q 316 314 283 298 q 380 362 349 329 q 435 447 412 396 q 458 543 458 498 q 447 573 458 562 q 420 584 437 584 q 347 538 388 584 q 223 290 273 456 z "},"f":{"ha":463,"x_min":-222,"x_max":705,"o":"m 363 530 l 284 217 q 176 -104 229 -5 q 52 -252 123 -204 q -111 -300 -19 -300 q -195 -278 -168 -300 q -222 -226 -222 -256 q -200 -178 -222 -198 q -141 -157 -178 -157 q -94 -173 -111 -157 q -78 -212 -78 -189 q -88 -244 -78 -234 q -98 -258 -98 -255 l -95 -263 q -85 -267 -91 -267 q -51 -254 -65 -267 q 3 -176 -15 -222 q 50 -12 15 -145 l 188 530 l 94 530 l 116 610 q 190 623 167 609 q 239 684 213 636 q 396 881 313 821 q 581 941 479 941 q 675 916 646 941 q 705 850 705 890 q 685 794 705 815 q 636 774 665 774 q 591 791 609 774 q 574 831 574 808 q 585 867 574 848 q 596 893 596 886 q 591 905 596 901 q 578 910 586 910 q 496 861 538 910 q 385 610 427 781 l 483 610 l 459 530 l 363 530 z "},"g":{"ha":694,"x_min":-72,"x_max":718,"o":"m 537 587 l 718 587 l 696 513 l 602 513 q 624 437 624 473 q 590 323 624 375 q 491 239 557 271 q 346 208 426 208 q 299 211 325 208 q 244 220 274 214 q 188 183 199 197 q 180 163 180 174 q 190 142 180 151 q 242 119 208 127 q 425 71 380 90 q 516 7 485 46 q 547 -88 547 -33 q 469 -236 547 -173 q 227 -300 391 -300 q -16 -245 62 -300 q -72 -152 -72 -206 q -35 -75 -72 -111 q 123 -13 2 -40 q 68 29 82 10 q 48 83 48 55 q 84 163 48 128 q 206 231 121 197 q 110 299 140 258 q 81 397 81 341 q 116 509 81 456 q 221 595 152 562 q 381 629 291 629 q 484 616 439 629 q 537 587 507 609 m 395 595 q 339 574 362 595 q 275 463 302 541 q 248 315 248 385 q 267 262 248 281 q 315 243 286 243 q 363 262 342 243 q 430 381 401 299 q 458 529 458 463 q 440 577 458 559 q 395 595 422 595 m 161 -28 q 74 -83 97 -54 q 50 -146 50 -112 q 97 -225 50 -190 q 245 -261 143 -261 q 368 -230 330 -261 q 406 -158 406 -199 q 371 -98 406 -121 q 237 -50 336 -75 q 161 -28 191 -38 z "},"h":{"ha":772,"x_min":17,"x_max":699,"o":"m 456 941 l 280 330 q 413 512 372 465 q 519 605 475 581 q 604 629 564 629 q 664 603 639 629 q 688 533 688 576 q 672 441 688 496 l 586 153 q 574 102 574 115 q 579 91 574 96 q 590 85 584 85 q 606 92 598 85 q 652 146 628 109 q 672 175 659 156 l 699 160 q 588 28 640 64 q 489 -8 536 -8 q 423 14 447 -8 q 399 68 399 35 q 416 153 399 98 l 500 441 q 508 485 508 471 q 502 498 508 492 q 489 504 496 504 q 422 463 465 504 q 245 201 334 380 l 185 0 l 17 0 l 239 766 q 253 836 253 815 q 239 863 253 853 q 185 873 222 876 l 190 901 l 416 941 l 456 941 z "},"i":{"ha":386,"x_min":28,"x_max":412,"o":"m 312 941 q 383 911 354 941 q 412 841 412 882 q 382 770 412 800 q 312 741 353 741 q 242 770 271 741 q 213 841 213 800 q 242 911 213 882 q 312 941 271 941 m 354 629 l 215 146 q 203 92 203 105 q 210 78 203 85 q 222 72 216 72 q 245 82 234 72 q 319 173 276 107 l 342 159 q 124 -19 239 -19 q 54 6 80 -19 q 28 68 28 31 q 39 132 28 94 l 134 456 q 147 527 147 503 q 134 553 147 542 q 99 565 121 565 q 75 564 89 565 l 83 591 l 313 629 l 354 629 z "},"j":{"ha":386,"x_min":-224,"x_max":413,"o":"m 313 941 q 384 911 355 941 q 413 840 413 882 q 384 769 413 798 q 313 739 354 739 q 241 769 271 739 q 212 840 212 798 q 241 911 212 882 q 313 941 271 941 m 370 629 l 225 95 q 125 -163 180 -68 q 21 -265 86 -230 q -112 -300 -43 -300 q -196 -277 -169 -300 q -224 -227 -224 -255 q -201 -176 -224 -198 q -143 -154 -178 -154 q -100 -169 -116 -154 q -85 -203 -85 -183 q -103 -243 -85 -223 q -111 -255 -111 -251 q -106 -263 -111 -260 q -93 -267 -102 -267 q -41 -233 -63 -267 q 12 -65 -26 -211 l 150 457 q 165 528 165 513 q 150 554 165 541 q 111 566 135 566 q 93 566 103 566 l 100 591 l 329 629 l 370 629 z "},"k":{"ha":694,"x_min":8,"x_max":713,"o":"m 452 941 l 265 299 l 420 443 l 472 489 q 503 528 494 512 q 509 547 509 538 q 495 571 509 562 q 429 584 481 581 l 437 610 l 713 610 l 706 584 q 627 557 657 572 q 568 519 603 546 q 494 458 517 479 l 465 430 l 506 243 q 541 117 530 134 q 559 107 549 107 q 615 163 583 107 q 628 184 620 170 l 653 168 q 538 24 602 73 q 461 -9 496 -9 q 404 15 427 -9 q 357 145 380 40 l 323 299 l 249 233 l 181 0 l 8 0 l 233 766 q 248 831 248 814 q 241 857 248 847 q 222 871 234 867 q 175 876 210 876 l 181 901 l 412 941 l 452 941 z "},"l":{"ha":386,"x_min":20,"x_max":439,"o":"m 439 941 l 215 177 q 195 92 195 109 q 201 77 195 83 q 214 71 207 71 q 237 81 226 71 q 309 170 269 107 l 336 158 q 209 11 271 55 q 118 -19 166 -19 q 47 5 73 -19 q 20 63 20 29 q 37 144 20 88 l 220 769 q 235 838 235 821 q 220 863 235 854 q 163 875 201 877 l 170 901 l 399 941 l 439 941 z "},"m":{"ha":1080,"x_min":14,"x_max":1006,"o":"m 369 629 l 282 337 q 410 518 370 471 q 507 608 469 587 q 584 629 545 629 q 648 602 628 629 q 667 544 667 576 q 649 446 667 511 l 618 337 q 745 517 707 473 q 849 611 805 587 q 914 629 880 629 q 974 605 950 629 q 998 542 998 581 q 978 429 998 498 l 903 176 q 886 104 886 120 q 890 94 886 98 q 900 89 895 89 q 913 94 907 89 q 964 151 937 113 q 983 176 970 159 l 1006 161 q 903 33 959 74 q 800 -7 847 -7 q 733 15 758 -7 q 708 68 708 38 q 725 157 708 98 l 802 421 q 817 490 817 476 q 812 499 817 494 q 803 503 808 503 q 785 499 794 503 q 746 464 772 492 q 669 362 719 435 q 599 247 618 288 q 561 140 580 205 l 519 0 l 348 0 l 475 443 q 485 492 485 479 q 480 501 485 497 q 471 505 476 505 q 392 439 446 505 q 241 195 309 338 l 186 0 l 14 0 l 141 436 q 160 528 160 500 q 155 546 160 538 q 137 558 149 554 q 90 563 125 563 l 97 589 l 328 629 l 369 629 z "},"n":{"ha":772,"x_min":18,"x_max":699,"o":"m 371 629 l 287 338 q 414 512 372 465 q 520 604 475 580 q 604 629 565 629 q 665 603 640 629 q 690 534 690 576 q 673 442 690 496 l 587 153 q 576 103 576 115 q 581 91 576 96 q 591 85 586 85 q 606 91 598 85 q 654 146 629 111 q 673 175 660 156 l 699 159 q 490 -8 600 -8 q 424 14 448 -8 q 400 68 400 35 q 416 153 400 96 l 501 442 q 510 484 510 471 q 504 497 510 492 q 490 503 498 503 q 427 468 464 503 q 246 201 334 378 l 191 0 l 18 0 l 144 435 q 163 527 163 500 q 157 546 163 538 q 140 558 152 554 q 94 563 127 563 l 101 589 l 330 629 l 371 629 z "},"o":{"ha":694,"x_min":34,"x_max":652,"o":"m 456 629 q 557 604 510 629 q 628 535 604 579 q 652 437 652 491 q 591 218 652 328 q 429 44 530 108 q 227 -19 329 -19 q 84 36 135 -19 q 34 170 34 91 q 72 347 34 264 q 167 491 109 429 q 300 590 225 552 q 456 629 376 629 m 429 593 q 369 572 393 593 q 262 372 321 529 q 202 89 202 215 q 221 37 202 58 q 266 17 240 17 q 313 33 292 17 q 386 143 342 58 q 457 331 429 228 q 485 519 485 433 q 468 573 485 554 q 429 593 451 593 z "},"p":{"ha":694,"x_min":-170,"x_max":659,"o":"m 84 591 l 309 629 l 349 629 l 319 518 q 435 606 390 583 q 526 629 481 629 q 624 579 589 629 q 659 459 659 530 q 524 114 659 264 q 263 -19 404 -19 q 220 -14 238 -19 q 171 7 203 -9 l 136 -115 q 117 -216 117 -182 q 132 -251 117 -238 q 201 -272 146 -263 l 195 -297 l -170 -297 l -163 -272 q -91 -244 -119 -271 q -37 -130 -62 -218 l 129 440 q 147 530 147 504 q 142 550 147 542 q 125 561 136 557 q 77 564 115 564 l 84 591 m 190 70 q 227 25 210 37 q 264 14 243 14 q 307 26 286 14 q 358 74 328 38 q 417 166 389 110 q 462 294 445 222 q 479 431 479 366 q 460 507 479 483 q 415 530 441 530 q 370 518 391 530 q 298 452 340 500 l 190 70 z "},"q":{"ha":694,"x_min":26,"x_max":671,"o":"m 671 610 l 471 -76 q 447 -165 451 -146 q 441 -215 441 -195 q 458 -250 441 -236 q 528 -272 480 -268 l 521 -297 l 162 -297 l 169 -272 q 228 -253 209 -266 q 262 -211 248 -241 q 296 -111 277 -182 l 387 196 q 245 18 311 66 q 146 -19 195 -19 q 66 18 96 -19 q 26 150 26 66 q 67 333 26 237 q 173 503 107 429 q 307 611 239 576 q 383 629 340 629 q 451 604 425 629 q 488 524 477 580 l 513 610 l 671 610 m 400 585 q 351 563 376 585 q 260 405 306 523 q 204 176 204 260 q 219 121 204 141 q 247 107 230 107 q 294 129 271 107 q 406 298 351 180 q 460 491 460 417 q 442 562 460 538 q 400 585 423 585 z "},"r":{"ha":541,"x_min":24,"x_max":559,"o":"m 329 629 l 227 248 q 416 591 353 526 q 495 629 454 629 q 541 608 524 629 q 559 549 559 587 q 527 439 559 484 q 481 410 507 410 q 441 435 454 410 q 422 465 427 460 q 410 469 416 469 q 396 465 404 469 q 357 426 381 457 q 298 320 333 394 q 243 195 262 246 q 188 0 223 144 l 24 0 l 136 450 q 148 516 148 500 q 141 545 148 534 q 124 559 135 555 q 77 564 113 564 l 83 584 l 288 629 l 329 629 z "},"s":{"ha":541,"x_min":-1,"x_max":517,"o":"m 517 629 l 487 419 l 462 419 q 412 547 456 500 q 317 594 368 594 q 265 576 286 594 q 245 532 245 557 q 254 491 245 510 q 293 439 262 472 q 423 281 400 324 q 446 188 446 237 q 419 86 446 134 q 338 10 392 39 q 226 -19 284 -19 q 129 -3 186 -19 q 72 7 91 7 q 45 2 55 7 q 24 -19 36 -3 l -1 -19 l 33 207 l 54 207 q 99 90 78 125 q 154 34 119 55 q 220 14 189 14 q 282 37 258 14 q 307 93 307 60 q 291 155 307 125 q 217 248 275 184 q 113 380 138 334 q 95 458 95 414 q 148 580 95 531 q 298 629 201 629 q 401 614 340 629 q 450 606 431 606 q 492 629 476 606 l 517 629 z "},"t":{"ha":386,"x_min":26,"x_max":433,"o":"m 398 794 l 344 610 l 433 610 l 409 532 l 321 532 l 208 138 q 197 83 197 102 q 203 67 197 74 q 217 61 210 61 q 241 71 229 61 q 313 153 272 94 l 337 138 q 234 19 290 57 q 123 -19 178 -19 q 52 4 77 -19 q 26 64 26 28 q 44 165 26 103 l 151 532 l 59 532 l 73 582 q 219 656 159 614 q 363 794 279 699 l 398 794 z "},"u":{"ha":772,"x_min":47,"x_max":719,"o":"m 369 629 l 237 168 q 228 123 228 136 q 233 114 228 117 q 245 109 238 109 q 329 164 277 109 q 486 396 404 245 l 547 604 l 719 610 l 589 162 q 572 97 572 105 q 577 86 572 92 q 588 80 583 80 q 606 88 597 80 q 671 168 631 108 l 694 151 q 486 -19 600 -19 q 420 2 444 -19 q 396 58 396 24 q 413 151 396 95 l 446 266 q 318 93 358 138 q 215 3 257 26 q 136 -19 174 -19 q 74 7 100 -19 q 47 75 47 34 q 64 168 47 109 l 141 439 q 160 528 160 505 q 155 546 160 538 q 137 558 149 554 q 90 563 124 563 l 97 589 l 328 629 l 369 629 z "},"v":{"ha":616,"x_min":39,"x_max":614,"o":"m 191 -19 l 167 -19 q 169 65 169 37 q 157 289 169 142 q 130 484 145 435 q 100 536 119 519 q 66 547 87 547 q 39 544 55 547 l 39 568 l 264 629 q 330 155 332 444 q 468 309 430 250 q 505 407 505 368 q 482 470 505 438 q 453 516 458 503 q 447 546 447 530 q 470 605 447 581 q 528 629 493 629 q 586 605 566 629 q 614 526 614 572 q 598 434 614 479 q 541 328 581 389 q 451 216 500 267 q 191 -19 360 124 z "},"w":{"ha":926,"x_min":39,"x_max":921,"o":"m 597 629 l 648 153 q 781 312 750 254 q 812 410 812 371 q 806 440 812 425 q 779 481 799 455 q 755 515 758 508 q 751 546 751 528 q 774 605 751 581 q 834 629 798 629 q 891 604 870 629 q 921 523 921 569 q 849 326 921 448 q 521 -19 777 203 l 494 -19 l 452 397 l 159 -19 l 130 -19 q 140 334 140 170 q 128 488 140 441 q 104 530 121 516 q 66 545 87 545 q 39 542 56 545 l 39 567 l 272 629 q 298 529 291 576 q 309 361 309 457 q 307 258 309 328 l 569 629 l 597 629 z "},"x":{"ha":694,"x_min":-63,"x_max":706,"o":"m 63 588 l 300 629 q 391 406 364 528 q 491 544 457 505 q 566 613 536 597 q 629 629 595 629 q 686 608 666 629 q 706 553 706 588 q 686 500 706 521 q 636 479 666 479 q 586 487 614 479 q 547 495 558 495 q 493 475 519 495 q 406 356 458 447 q 498 108 464 153 q 540 81 519 81 q 570 90 557 81 q 631 161 590 104 l 655 147 q 538 12 595 51 q 453 -19 495 -19 q 381 0 410 -19 q 330 63 352 20 q 277 203 307 107 q 152 56 197 102 q 77 -5 107 9 q 14 -19 47 -19 q -42 1 -22 -19 q -63 54 -63 22 q -41 111 -63 89 q 16 134 -18 134 q 58 123 35 134 q 106 106 92 106 q 142 115 126 106 q 193 159 162 125 q 263 248 212 180 q 161 537 198 490 q 103 568 138 568 q 58 562 85 568 l 63 588 z "},"y":{"ha":616,"x_min":-130,"x_max":614,"o":"m 35 568 l 244 629 q 279 570 269 597 q 305 437 298 522 q 325 81 319 270 q 491 334 397 176 q 519 423 519 381 q 487 473 519 450 q 446 510 454 497 q 437 545 437 524 q 462 604 437 578 q 522 629 487 629 q 587 600 559 629 q 614 533 614 572 q 589 428 614 488 q 470 222 564 368 q 235 -101 350 35 q 115 -226 161 -188 q 21 -287 70 -264 q -37 -300 -8 -300 q -103 -273 -75 -300 q -130 -208 -130 -245 q -105 -145 -130 -171 q -47 -119 -81 -119 q 28 -163 -6 -119 q 66 -192 52 -192 q 97 -183 82 -192 q 154 -133 117 -172 q 158 -5 158 -48 q 153 159 158 54 l 141 418 q 111 520 135 489 q 61 543 92 543 q 35 541 50 543 l 35 568 z "},"z":{"ha":541,"x_min":-14,"x_max":551,"o":"m 551 610 l 166 155 q 231 116 210 142 q 270 15 258 82 q 298 -71 282 -53 q 330 -89 313 -89 q 350 -79 340 -89 q 359 -57 359 -69 q 351 -15 359 -44 q 346 23 346 5 q 370 87 346 61 q 428 113 394 113 q 479 90 458 113 q 500 31 500 67 q 448 -72 500 -26 q 321 -118 397 -118 q 151 -38 235 -118 q 96 5 117 -6 q 65 12 84 12 q 29 0 49 12 l -14 0 l 379 467 l 238 467 q 151 452 178 467 q 100 393 124 437 l 71 393 l 127 610 l 551 610 z "},"{":{"ha":484,"x_min":59,"x_max":633,"o":"m 633 941 l 625 910 q 521 870 562 899 q 463 800 480 841 q 440 667 445 760 q 413 527 435 574 q 349 438 391 479 q 256 371 307 397 q 138 332 217 352 q 252 273 220 304 q 303 153 303 224 q 249 -1 303 100 q 194 -152 194 -102 q 215 -214 194 -190 q 292 -249 236 -237 l 283 -281 q 182 -269 217 -281 q 91 -208 123 -250 q 59 -109 59 -166 q 117 52 59 -52 q 175 212 175 156 q 151 276 175 250 q 77 310 127 302 l 88 351 q 189 391 146 361 q 252 469 231 421 q 278 612 274 516 q 303 752 283 707 q 374 844 323 797 q 487 915 425 891 q 633 941 550 938 z "},"|":{"ha":306,"x_min":108,"x_max":196,"o":"m 108 -300 l 108 941 l 196 941 l 196 -300 l 108 -300 z "},"}":{"ha":484,"x_min":-130,"x_max":445,"o":"m -130 -281 l -121 -250 q -17 -210 -58 -238 q 41 -140 24 -181 q 64 -6 59 -99 q 91 134 69 86 q 155 222 113 182 q 248 290 197 263 q 366 329 287 309 q 252 388 284 357 q 201 507 201 436 q 255 661 201 560 q 310 812 310 762 q 289 874 310 850 q 212 909 268 898 l 220 941 q 322 930 287 941 q 413 868 380 910 q 445 769 445 827 q 387 609 445 713 q 329 449 329 505 q 353 385 329 410 q 427 351 376 359 l 416 309 q 315 270 357 300 q 252 192 273 239 q 226 48 230 144 q 201 -92 222 -47 q 130 -183 180 -136 q 17 -254 79 -231 q -130 -281 -46 -277 z "},"~":{"ha":791,"x_min":26,"x_max":765,"o":"m 726 481 l 765 481 q 709 317 761 373 q 583 262 657 262 q 506 273 547 262 q 328 342 466 285 q 185 384 229 384 q 108 356 139 384 q 66 262 77 328 l 26 262 q 82 428 32 374 q 203 481 132 481 q 273 472 239 481 q 463 401 342 452 q 562 363 528 372 q 606 357 583 357 q 687 389 654 357 q 726 481 720 421 z "},"Ä":{"ha":926,"x_min":-79,"x_max":1002,"o":"m 563 296 l 278 296 l 221 226 l 156 148 q 128 102 137 123 q 121 71 121 87 q 139 41 121 55 q 196 25 156 27 l 196 0 l -79 0 l -72 25 q -7 51 -35 31 q 102 163 31 78 l 754 941 l 785 941 l 754 188 q 752 117 752 129 q 771 50 752 71 q 833 25 789 28 l 826 0 l 428 0 l 435 25 q 503 35 494 31 q 538 74 522 44 q 557 179 553 104 l 563 296 m 563 352 l 581 652 l 325 352 l 563 352 m 660 1182 q 724 1156 697 1182 q 750 1092 750 1129 q 724 1028 750 1055 q 660 1002 697 1002 q 596 1028 623 1002 q 570 1092 570 1055 q 596 1156 570 1129 q 660 1182 623 1182 m 912 1181 q 976 1155 949 1181 q 1002 1092 1002 1128 q 975 1028 1002 1055 q 912 1002 949 1002 q 849 1028 875 1002 q 823 1092 823 1055 q 849 1155 823 1128 q 912 1181 875 1181 z "},"Å":{"ha":926,"x_min":-79,"x_max":913,"o":"m 563 296 l 278 296 l 221 226 l 156 148 q 128 102 137 123 q 121 71 121 87 q 139 41 121 55 q 196 25 156 27 l 196 0 l -79 0 l -72 25 q -7 51 -35 31 q 102 163 31 78 l 754 941 l 785 941 l 754 188 q 752 117 752 129 q 771 50 752 71 q 833 25 789 28 l 826 0 l 428 0 l 435 25 q 503 35 494 31 q 538 74 522 44 q 557 179 553 104 l 563 296 m 563 352 l 581 652 l 325 352 l 563 352 m 772 1173 q 872 1131 831 1173 q 913 1031 913 1090 q 872 932 913 973 q 772 890 831 890 q 672 932 713 890 q 631 1031 631 973 q 672 1131 631 1090 q 772 1173 713 1173 m 772 1122 q 708 1095 734 1122 q 682 1031 682 1069 q 708 968 682 994 q 772 941 734 941 q 836 968 810 941 q 863 1031 863 994 q 836 1095 863 1069 q 772 1122 810 1122 z "},"Ç":{"ha":926,"x_min":91,"x_max":1001,"o":"m 1001 941 l 933 648 l 907 648 q 848 826 902 768 q 707 885 794 885 q 521 805 614 885 q 363 560 428 725 q 311 296 311 427 q 369 118 311 180 q 526 57 426 57 q 673 92 606 57 q 807 207 739 127 l 840 207 q 670 30 755 81 q 460 -21 584 -21 q 192 80 294 -21 q 91 342 91 180 q 172 632 91 494 q 404 856 252 770 q 705 941 555 941 q 847 916 762 941 q 907 904 890 904 q 976 941 941 904 l 1001 941 m 451 0 l 503 0 l 456 -35 q 538 -71 511 -43 q 565 -138 565 -99 q 523 -220 565 -186 q 387 -255 480 -255 q 256 -235 312 -255 l 264 -214 q 340 -223 315 -223 q 410 -202 386 -223 q 435 -153 435 -182 q 419 -114 435 -130 q 383 -98 404 -98 q 346 -103 368 -98 l 337 -83 l 451 0 z "},"É":{"ha":926,"x_min":-49,"x_max":944,"o":"m 525 869 l 422 512 l 454 512 q 634 545 577 512 q 730 660 690 577 l 755 660 l 652 302 l 628 302 q 634 360 634 338 q 612 421 634 397 q 555 455 590 445 q 459 462 532 462 l 406 462 l 318 153 q 307 93 307 113 q 321 68 307 77 q 404 54 343 54 q 622 103 519 54 q 806 252 724 153 l 833 252 l 738 0 l -49 0 l -41 25 q 60 51 28 25 q 118 166 92 77 l 291 758 q 305 836 305 808 q 287 876 305 862 q 203 895 269 890 l 211 920 l 944 920 l 885 690 l 861 690 q 840 785 858 758 q 764 849 811 829 q 611 869 717 869 l 525 869 m 652 1212 l 861 1212 l 632 975 l 571 975 l 652 1212 z "},"Ñ":{"ha":1003,"x_min":-45,"x_max":1126,"o":"m 495 920 l 783 307 l 912 751 q 922 817 922 788 q 901 871 922 850 q 827 895 880 891 l 835 920 l 1126 920 l 1120 895 q 1028 863 1064 891 q 966 751 991 836 l 742 -10 l 716 -10 l 347 774 l 169 163 q 160 106 160 131 q 184 47 160 69 q 261 25 208 25 l 255 0 l -45 0 l -39 25 q 16 32 0 25 q 72 74 45 43 q 116 163 99 104 l 311 831 q 250 882 275 871 q 177 895 226 894 l 184 920 l 495 920 m 849 1169 l 892 1169 q 851 1028 890 1076 q 762 981 811 981 q 618 1025 714 981 q 559 1043 578 1043 q 526 1029 540 1043 q 507 981 512 1015 l 463 981 q 508 1124 468 1079 q 599 1169 548 1169 q 743 1126 652 1169 q 798 1108 781 1108 q 831 1122 818 1108 q 849 1169 845 1136 z "},"Ö":{"ha":1003,"x_min":74,"x_max":998,"o":"m 391 -22 q 211 24 279 -22 q 108 148 142 69 q 74 301 74 227 q 160 605 74 452 q 392 849 246 758 q 681 941 538 941 q 839 899 764 941 q 956 782 914 857 q 998 630 998 707 q 888 286 998 458 q 643 36 779 113 q 391 -22 540 -22 m 659 886 q 567 866 605 886 q 489 802 530 847 q 406 672 448 756 q 327 442 364 587 q 290 200 290 297 q 326 75 290 117 q 418 33 362 33 q 545 82 493 33 q 714 371 649 180 q 780 709 780 561 q 745 844 780 802 q 659 886 710 886 m 576 1165 q 640 1139 613 1165 q 666 1075 666 1112 q 640 1011 666 1038 q 576 985 613 985 q 512 1011 538 985 q 486 1075 486 1038 q 512 1139 486 1112 q 576 1165 538 1165 m 828 1164 q 891 1138 865 1164 q 918 1075 918 1112 q 891 1011 918 1038 q 828 985 865 985 q 765 1011 791 985 q 739 1075 739 1038 q 765 1138 739 1112 q 828 1164 791 1164 z "},"Ü":{"ha":1003,"x_min":130,"x_max":1123,"o":"m 812 920 l 1123 920 l 1117 895 q 1034 869 1063 890 q 964 755 987 834 l 842 333 q 688 57 785 136 q 439 -21 590 -21 q 289 3 354 -21 q 193 58 224 28 q 146 134 163 89 q 130 210 130 179 q 157 352 130 258 l 274 755 q 290 836 290 809 q 270 876 290 861 q 180 895 251 890 l 188 920 l 646 920 l 638 895 q 537 866 572 895 q 478 755 502 838 l 361 352 q 332 190 332 251 q 376 93 332 134 q 501 52 421 52 q 626 78 574 52 q 711 153 677 105 q 791 338 755 218 l 911 755 q 921 814 921 791 q 891 879 921 857 q 804 895 870 895 l 812 920 m 538 1165 q 602 1139 576 1165 q 629 1075 629 1112 q 602 1011 629 1038 q 538 985 576 985 q 475 1011 501 985 q 448 1075 448 1038 q 475 1139 448 1112 q 538 1165 501 1165 m 791 1164 q 854 1138 828 1164 q 880 1075 880 1112 q 854 1011 880 1038 q 791 985 827 985 q 727 1011 753 985 q 701 1075 701 1038 q 727 1138 701 1112 q 791 1164 753 1164 z "},"á":{"ha":694,"x_min":27,"x_max":671,"o":"m 665 619 l 534 168 l 520 113 q 518 98 518 103 q 524 84 518 90 q 536 78 530 78 q 575 100 550 78 q 624 162 585 109 l 648 150 q 545 21 600 62 q 427 -19 490 -19 q 368 1 389 -19 q 348 52 348 21 q 370 150 348 78 l 386 205 q 235 14 307 70 q 145 -19 193 -19 q 55 32 83 -19 q 27 148 27 83 q 85 367 27 243 q 239 566 144 491 q 385 629 317 629 q 446 607 423 629 q 480 526 469 585 l 505 610 l 665 619 m 448 490 q 431 570 448 545 q 398 587 419 587 q 355 566 377 587 q 257 396 309 524 q 204 174 204 267 q 216 122 204 138 q 242 106 228 106 q 304 141 273 106 q 385 264 349 191 q 448 490 448 391 m 462 941 l 671 941 l 442 703 l 381 703 l 462 941 z "},"à":{"ha":694,"x_min":27,"x_max":665,"o":"m 665 619 l 534 168 l 520 113 q 518 98 518 103 q 524 84 518 90 q 536 78 530 78 q 575 100 550 78 q 624 162 585 109 l 648 150 q 545 21 600 62 q 427 -19 490 -19 q 368 1 389 -19 q 348 52 348 21 q 370 150 348 78 l 386 205 q 235 14 307 70 q 145 -19 193 -19 q 55 32 83 -19 q 27 148 27 83 q 85 367 27 243 q 239 566 144 491 q 385 629 317 629 q 446 607 423 629 q 480 526 469 585 l 505 610 l 665 619 m 448 490 q 431 570 448 545 q 398 587 419 587 q 355 566 377 587 q 257 396 309 524 q 204 174 204 267 q 216 122 204 138 q 242 106 228 106 q 304 141 273 106 q 385 264 349 191 q 448 490 448 391 m 290 941 l 489 941 l 562 705 l 509 705 l 290 941 z "},"â":{"ha":694,"x_min":27,"x_max":665,"o":"m 665 619 l 534 168 l 520 113 q 518 98 518 103 q 524 84 518 90 q 536 78 530 78 q 575 100 550 78 q 624 162 585 109 l 648 150 q 545 21 600 62 q 427 -19 490 -19 q 368 1 389 -19 q 348 52 348 21 q 370 150 348 78 l 386 205 q 235 14 307 70 q 145 -19 193 -19 q 55 32 83 -19 q 27 148 27 83 q 85 367 27 243 q 239 566 144 491 q 385 629 317 629 q 446 607 423 629 q 480 526 469 585 l 505 610 l 665 619 m 448 490 q 431 570 448 545 q 398 587 419 587 q 355 566 377 587 q 257 396 309 524 q 204 174 204 267 q 216 122 204 138 q 242 106 228 106 q 304 141 273 106 q 385 264 349 191 q 448 490 448 391 m 425 941 l 579 941 l 648 710 l 579 710 l 488 848 l 289 710 l 218 710 l 425 941 z "},"ä":{"ha":694,"x_min":27,"x_max":675,"o":"m 665 619 l 534 168 l 520 113 q 518 98 518 103 q 524 84 518 90 q 536 78 530 78 q 575 100 550 78 q 624 162 585 109 l 648 150 q 545 21 600 62 q 427 -19 490 -19 q 368 1 389 -19 q 348 52 348 21 q 370 150 348 78 l 386 205 q 235 14 307 70 q 145 -19 193 -19 q 55 32 83 -19 q 27 148 27 83 q 85 367 27 243 q 239 566 144 491 q 385 629 317 629 q 446 607 423 629 q 480 526 469 585 l 505 610 l 665 619 m 448 490 q 431 570 448 545 q 398 587 419 587 q 355 566 377 587 q 257 396 309 524 q 204 174 204 267 q 216 122 204 138 q 242 106 228 106 q 304 141 273 106 q 385 264 349 191 q 448 490 448 391 m 334 913 q 397 887 371 913 q 424 823 424 861 q 397 760 424 786 q 334 733 371 733 q 270 760 296 733 q 243 823 243 786 q 270 887 243 861 q 334 913 296 913 m 586 913 q 649 886 623 913 q 675 823 675 860 q 649 760 675 786 q 586 734 623 734 q 523 760 549 734 q 496 823 496 786 q 523 886 496 860 q 586 913 549 913 z "},"ã":{"ha":694,"x_min":27,"x_max":669,"o":"m 665 619 l 534 168 l 520 113 q 518 98 518 103 q 524 84 518 90 q 536 78 530 78 q 575 100 550 78 q 624 162 585 109 l 648 150 q 545 21 600 62 q 427 -19 490 -19 q 368 1 389 -19 q 348 52 348 21 q 370 150 348 78 l 386 205 q 235 14 307 70 q 145 -19 193 -19 q 55 32 83 -19 q 27 148 27 83 q 85 367 27 243 q 239 566 144 491 q 385 629 317 629 q 446 607 423 629 q 480 526 469 585 l 505 610 l 665 619 m 448 490 q 431 570 448 545 q 398 587 419 587 q 355 566 377 587 q 257 396 309 524 q 204 174 204 267 q 216 122 204 138 q 242 106 228 106 q 304 141 273 106 q 385 264 349 191 q 448 490 448 391 m 626 920 l 669 920 q 628 779 667 826 q 538 731 588 731 q 395 775 491 731 q 336 793 355 793 q 303 779 317 793 q 284 732 289 765 l 239 732 q 285 874 245 829 q 376 920 325 920 q 519 876 429 920 q 574 859 557 859 q 608 872 595 859 q 626 920 622 886 z "},"å":{"ha":694,"x_min":27,"x_max":665,"o":"m 665 619 l 534 168 l 520 113 q 518 98 518 103 q 524 84 518 90 q 536 78 530 78 q 575 100 550 78 q 624 162 585 109 l 648 150 q 545 21 600 62 q 427 -19 490 -19 q 368 1 389 -19 q 348 52 348 21 q 370 150 348 78 l 386 205 q 235 14 307 70 q 145 -19 193 -19 q 55 32 83 -19 q 27 148 27 83 q 85 367 27 243 q 239 566 144 491 q 385 629 317 629 q 446 607 423 629 q 480 526 469 585 l 505 610 l 665 619 m 448 490 q 431 570 448 545 q 398 587 419 587 q 355 566 377 587 q 257 396 309 524 q 204 174 204 267 q 216 122 204 138 q 242 106 228 106 q 304 141 273 106 q 385 264 349 191 q 448 490 448 391 m 484 967 q 584 926 543 967 q 625 826 625 884 q 584 726 625 768 q 484 685 543 685 q 385 726 426 685 q 343 826 343 768 q 384 926 343 884 q 484 967 425 967 m 484 916 q 420 890 447 916 q 394 826 394 863 q 420 762 394 789 q 484 736 447 736 q 549 762 522 736 q 575 826 575 789 q 549 890 575 863 q 484 916 522 916 z "},"ç":{"ha":616,"x_min":37,"x_max":605,"o":"m 522 163 l 542 145 q 412 30 476 66 q 237 -19 328 -19 q 129 7 176 -19 q 59 80 81 33 q 37 177 37 127 q 97 396 37 288 q 256 566 157 503 q 451 629 355 629 q 566 595 528 629 q 605 511 605 561 q 576 433 605 465 q 511 401 547 401 q 459 422 479 401 q 438 470 438 442 q 475 534 438 507 q 500 567 500 553 q 490 587 500 579 q 454 597 476 597 q 347 551 397 597 q 245 397 281 490 q 210 219 210 303 q 246 113 210 153 q 332 73 282 73 q 426 96 375 73 q 522 163 476 118 m 245 0 l 296 0 l 250 -35 q 332 -71 305 -43 q 359 -138 359 -99 q 316 -220 359 -186 q 181 -255 274 -255 q 50 -235 106 -255 l 58 -214 q 134 -223 109 -223 q 204 -202 180 -223 q 229 -153 229 -182 q 213 -114 229 -130 q 177 -98 197 -98 q 140 -103 162 -98 l 131 -83 l 245 0 z "},"é":{"ha":616,"x_min":31,"x_max":704,"o":"m 217 254 q 211 182 211 210 q 240 100 211 131 q 319 70 270 70 q 415 93 367 70 q 526 174 463 116 l 546 155 q 394 21 468 61 q 231 -19 320 -19 q 74 35 117 -19 q 31 161 31 90 q 95 383 31 272 q 272 562 160 494 q 496 629 383 629 q 582 602 553 629 q 611 533 611 574 q 583 437 611 484 q 484 334 543 373 q 350 275 424 295 q 217 254 300 261 m 223 290 q 316 314 283 298 q 380 362 349 329 q 435 447 412 396 q 458 543 458 498 q 447 573 458 562 q 420 584 437 584 q 347 538 388 584 q 223 290 273 456 m 495 941 l 704 941 l 475 703 l 414 703 l 495 941 z "},"è":{"ha":616,"x_min":31,"x_max":611,"o":"m 217 254 q 211 182 211 210 q 240 100 211 131 q 319 70 270 70 q 415 93 367 70 q 526 174 463 116 l 546 155 q 394 21 468 61 q 231 -19 320 -19 q 74 35 117 -19 q 31 161 31 90 q 95 383 31 272 q 272 562 160 494 q 496 629 383 629 q 582 602 553 629 q 611 533 611 574 q 583 437 611 484 q 484 334 543 373 q 350 275 424 295 q 217 254 300 261 m 223 290 q 316 314 283 298 q 380 362 349 329 q 435 447 412 396 q 458 543 458 498 q 447 573 458 562 q 420 584 437 584 q 347 538 388 584 q 223 290 273 456 m 262 941 l 461 941 l 534 705 l 481 705 l 262 941 z "},"ê":{"ha":616,"x_min":31,"x_max":612,"o":"m 217 254 q 211 182 211 210 q 240 100 211 131 q 319 70 270 70 q 415 93 367 70 q 526 174 463 116 l 546 155 q 394 21 468 61 q 231 -19 320 -19 q 74 35 117 -19 q 31 161 31 90 q 95 383 31 272 q 272 562 160 494 q 496 629 383 629 q 582 602 553 629 q 611 533 611 574 q 583 437 611 484 q 484 334 543 373 q 350 275 424 295 q 217 254 300 261 m 223 290 q 316 314 283 298 q 380 362 349 329 q 435 447 412 396 q 458 543 458 498 q 447 573 458 562 q 420 584 437 584 q 347 538 388 584 q 223 290 273 456 m 389 941 l 543 941 l 612 710 l 543 710 l 452 848 l 253 710 l 182 710 l 389 941 z "},"ë":{"ha":616,"x_min":31,"x_max":640,"o":"m 217 254 q 211 182 211 210 q 240 100 211 131 q 319 70 270 70 q 415 93 367 70 q 526 174 463 116 l 546 155 q 394 21 468 61 q 231 -19 320 -19 q 74 35 117 -19 q 31 161 31 90 q 95 383 31 272 q 272 562 160 494 q 496 629 383 629 q 582 602 553 629 q 611 533 611 574 q 583 437 611 484 q 484 334 543 373 q 350 275 424 295 q 217 254 300 261 m 223 290 q 316 314 283 298 q 380 362 349 329 q 435 447 412 396 q 458 543 458 498 q 447 573 458 562 q 420 584 437 584 q 347 538 388 584 q 223 290 273 456 m 298 913 q 361 887 335 913 q 388 823 388 861 q 361 760 388 786 q 298 733 335 733 q 234 760 260 733 q 208 823 208 786 q 234 887 208 861 q 298 913 260 913 m 550 913 q 613 886 587 913 q 640 823 640 860 q 613 760 640 786 q 550 734 587 734 q 487 760 513 734 q 460 823 460 786 q 487 886 460 860 q 550 913 513 913 z "},"í":{"ha":386,"x_min":31,"x_max":502,"o":"m 357 629 l 218 146 q 206 92 206 105 q 212 78 206 85 q 225 72 218 72 q 248 82 237 72 q 321 173 279 107 l 345 159 q 127 -19 242 -19 q 57 6 83 -19 q 31 68 31 31 q 42 132 31 94 l 136 456 q 150 527 150 503 q 137 553 150 542 q 102 565 124 565 q 77 564 92 565 l 86 591 l 316 629 l 357 629 m 293 941 l 502 941 l 273 703 l 212 703 l 293 941 z "},"ì":{"ha":386,"x_min":31,"x_max":377,"o":"m 357 629 l 218 146 q 206 92 206 105 q 212 78 206 85 q 225 72 218 72 q 248 82 237 72 q 321 173 279 107 l 345 159 q 127 -19 242 -19 q 57 6 83 -19 q 31 68 31 31 q 42 132 31 94 l 136 456 q 150 527 150 503 q 137 553 150 542 q 102 565 124 565 q 77 564 92 565 l 86 591 l 316 629 l 357 629 m 105 941 l 304 941 l 377 705 l 324 705 l 105 941 z "},"î":{"ha":386,"x_min":31,"x_max":472,"o":"m 357 629 l 218 146 q 206 92 206 105 q 212 78 206 85 q 225 72 218 72 q 248 82 237 72 q 321 173 279 107 l 345 159 q 127 -19 242 -19 q 57 6 83 -19 q 31 68 31 31 q 42 132 31 94 l 136 456 q 150 527 150 503 q 137 553 150 542 q 102 565 124 565 q 77 564 92 565 l 86 591 l 316 629 l 357 629 m 249 941 l 403 941 l 472 710 l 403 710 l 312 848 l 113 710 l 41 710 l 249 941 z "},"ï":{"ha":386,"x_min":31,"x_max":499,"o":"m 357 629 l 218 146 q 206 92 206 105 q 212 78 206 85 q 225 72 218 72 q 248 82 237 72 q 321 173 279 107 l 345 159 q 127 -19 242 -19 q 57 6 83 -19 q 31 68 31 31 q 42 132 31 94 l 136 456 q 150 527 150 503 q 137 553 150 542 q 102 565 124 565 q 77 564 92 565 l 86 591 l 316 629 l 357 629 m 157 913 q 221 887 195 913 q 248 823 248 861 q 221 760 248 786 q 157 733 195 733 q 94 760 120 733 q 67 823 67 786 q 94 887 67 861 q 157 913 120 913 m 410 913 q 473 886 447 913 q 499 823 499 860 q 473 760 499 786 q 410 734 446 734 q 346 760 372 734 q 320 823 320 786 q 346 886 320 860 q 410 913 372 913 z "},"ñ":{"ha":772,"x_min":18,"x_max":699,"o":"m 371 629 l 287 338 q 414 512 372 465 q 520 604 475 580 q 604 629 565 629 q 665 603 640 629 q 690 534 690 576 q 673 442 690 496 l 587 153 q 576 103 576 115 q 581 91 576 96 q 591 85 586 85 q 606 91 598 85 q 654 146 629 111 q 673 175 660 156 l 699 159 q 490 -8 600 -8 q 424 14 448 -8 q 400 68 400 35 q 416 153 400 96 l 501 442 q 510 484 510 471 q 504 497 510 492 q 490 503 498 503 q 427 468 464 503 q 246 201 334 378 l 191 0 l 18 0 l 144 435 q 163 527 163 500 q 157 546 163 538 q 140 558 152 554 q 94 563 127 563 l 101 589 l 330 629 l 371 629 m 625 920 l 668 920 q 627 779 667 826 q 538 731 587 731 q 394 775 490 731 q 335 793 354 793 q 302 779 316 793 q 283 732 288 765 l 239 732 q 284 874 244 829 q 375 920 324 920 q 519 876 429 920 q 574 859 557 859 q 608 872 594 859 q 625 920 621 886 z "},"ó":{"ha":694,"x_min":34,"x_max":696,"o":"m 456 629 q 557 604 510 629 q 628 535 604 579 q 652 437 652 491 q 591 218 652 328 q 429 44 530 108 q 227 -19 329 -19 q 84 36 135 -19 q 34 170 34 91 q 72 347 34 264 q 167 491 109 429 q 300 590 225 552 q 456 629 376 629 m 429 593 q 369 572 393 593 q 262 372 321 529 q 202 89 202 215 q 221 37 202 58 q 266 17 240 17 q 313 33 292 17 q 386 143 342 58 q 457 331 429 228 q 485 519 485 433 q 468 573 485 554 q 429 593 451 593 m 487 941 l 696 941 l 467 703 l 406 703 l 487 941 z "},"ò":{"ha":694,"x_min":34,"x_max":652,"o":"m 456 629 q 557 604 510 629 q 628 535 604 579 q 652 437 652 491 q 591 218 652 328 q 429 44 530 108 q 227 -19 329 -19 q 84 36 135 -19 q 34 170 34 91 q 72 347 34 264 q 167 491 109 429 q 300 590 225 552 q 456 629 376 629 m 429 593 q 369 572 393 593 q 262 372 321 529 q 202 89 202 215 q 221 37 202 58 q 266 17 240 17 q 313 33 292 17 q 386 143 342 58 q 457 331 429 228 q 485 519 485 433 q 468 573 485 554 q 429 593 451 593 m 282 941 l 481 941 l 554 705 l 501 705 l 282 941 z "},"ô":{"ha":694,"x_min":34,"x_max":652,"o":"m 456 629 q 557 604 510 629 q 628 535 604 579 q 652 437 652 491 q 591 218 652 328 q 429 44 530 108 q 227 -19 329 -19 q 84 36 135 -19 q 34 170 34 91 q 72 347 34 264 q 167 491 109 429 q 300 590 225 552 q 456 629 376 629 m 429 593 q 369 572 393 593 q 262 372 321 529 q 202 89 202 215 q 221 37 202 58 q 266 17 240 17 q 313 33 292 17 q 386 143 342 58 q 457 331 429 228 q 485 519 485 433 q 468 573 485 554 q 429 593 451 593 m 425 941 l 579 941 l 648 710 l 579 710 l 488 848 l 289 710 l 218 710 l 425 941 z "},"ö":{"ha":694,"x_min":34,"x_max":675,"o":"m 456 629 q 557 604 510 629 q 628 535 604 579 q 652 437 652 491 q 591 218 652 328 q 429 44 530 108 q 227 -19 329 -19 q 84 36 135 -19 q 34 170 34 91 q 72 347 34 264 q 167 491 109 429 q 300 590 225 552 q 456 629 376 629 m 429 593 q 369 572 393 593 q 262 372 321 529 q 202 89 202 215 q 221 37 202 58 q 266 17 240 17 q 313 33 292 17 q 386 143 342 58 q 457 331 429 228 q 485 519 485 433 q 468 573 485 554 q 429 593 451 593 m 334 913 q 397 887 371 913 q 424 823 424 861 q 397 760 424 786 q 334 733 371 733 q 270 760 296 733 q 243 823 243 786 q 270 887 243 861 q 334 913 296 913 m 586 913 q 649 886 623 913 q 675 823 675 860 q 649 760 675 786 q 586 734 623 734 q 523 760 549 734 q 496 823 496 786 q 523 886 496 860 q 586 913 549 913 z "},"õ":{"ha":694,"x_min":34,"x_max":669,"o":"m 456 629 q 557 604 510 629 q 628 535 604 579 q 652 437 652 491 q 591 218 652 328 q 429 44 530 108 q 227 -19 329 -19 q 84 36 135 -19 q 34 170 34 91 q 72 347 34 264 q 167 491 109 429 q 300 590 225 552 q 456 629 376 629 m 429 593 q 369 572 393 593 q 262 372 321 529 q 202 89 202 215 q 221 37 202 58 q 266 17 240 17 q 313 33 292 17 q 386 143 342 58 q 457 331 429 228 q 485 519 485 433 q 468 573 485 554 q 429 593 451 593 m 626 920 l 669 920 q 628 779 667 826 q 538 731 588 731 q 395 775 491 731 q 336 793 355 793 q 303 779 317 793 q 284 732 289 765 l 239 732 q 285 874 245 829 q 376 920 325 920 q 519 876 429 920 q 574 859 557 859 q 608 872 595 859 q 626 920 622 886 z "},"ú":{"ha":772,"x_min":47,"x_max":719,"o":"m 369 629 l 237 168 q 228 123 228 136 q 233 114 228 117 q 245 109 238 109 q 329 164 277 109 q 486 396 404 245 l 547 604 l 719 610 l 589 162 q 572 97 572 105 q 577 86 572 92 q 588 80 583 80 q 606 88 597 80 q 671 168 631 108 l 694 151 q 486 -19 600 -19 q 420 2 444 -19 q 396 58 396 24 q 413 151 396 95 l 446 266 q 318 93 358 138 q 215 3 257 26 q 136 -19 174 -19 q 74 7 100 -19 q 47 75 47 34 q 64 168 47 109 l 141 439 q 160 528 160 505 q 155 546 160 538 q 137 558 149 554 q 90 563 124 563 l 97 589 l 328 629 l 369 629 m 463 941 l 672 941 l 444 703 l 382 703 l 463 941 z "},"ù":{"ha":772,"x_min":47,"x_max":719,"o":"m 369 629 l 237 168 q 228 123 228 136 q 233 114 228 117 q 245 109 238 109 q 329 164 277 109 q 486 396 404 245 l 547 604 l 719 610 l 589 162 q 572 97 572 105 q 577 86 572 92 q 588 80 583 80 q 606 88 597 80 q 671 168 631 108 l 694 151 q 486 -19 600 -19 q 420 2 444 -19 q 396 58 396 24 q 413 151 396 95 l 446 266 q 318 93 358 138 q 215 3 257 26 q 136 -19 174 -19 q 74 7 100 -19 q 47 75 47 34 q 64 168 47 109 l 141 439 q 160 528 160 505 q 155 546 160 538 q 137 558 149 554 q 90 563 124 563 l 97 589 l 328 629 l 369 629 m 294 941 l 493 941 l 566 705 l 513 705 l 294 941 z "},"û":{"ha":772,"x_min":47,"x_max":719,"o":"m 369 629 l 237 168 q 228 123 228 136 q 233 114 228 117 q 245 109 238 109 q 329 164 277 109 q 486 396 404 245 l 547 604 l 719 610 l 589 162 q 572 97 572 105 q 577 86 572 92 q 588 80 583 80 q 606 88 597 80 q 671 168 631 108 l 694 151 q 486 -19 600 -19 q 420 2 444 -19 q 396 58 396 24 q 413 151 396 95 l 446 266 q 318 93 358 138 q 215 3 257 26 q 136 -19 174 -19 q 74 7 100 -19 q 47 75 47 34 q 64 168 47 109 l 141 439 q 160 528 160 505 q 155 546 160 538 q 137 558 149 554 q 90 563 124 563 l 97 589 l 328 629 l 369 629 m 436 941 l 590 941 l 659 710 l 590 710 l 499 848 l 300 710 l 229 710 l 436 941 z "},"ü":{"ha":772,"x_min":47,"x_max":719,"o":"m 369 629 l 237 168 q 228 123 228 136 q 233 114 228 117 q 245 109 238 109 q 329 164 277 109 q 486 396 404 245 l 547 604 l 719 610 l 589 162 q 572 97 572 105 q 577 86 572 92 q 588 80 583 80 q 606 88 597 80 q 671 168 631 108 l 694 151 q 486 -19 600 -19 q 420 2 444 -19 q 396 58 396 24 q 413 151 396 95 l 446 266 q 318 93 358 138 q 215 3 257 26 q 136 -19 174 -19 q 74 7 100 -19 q 47 75 47 34 q 64 168 47 109 l 141 439 q 160 528 160 505 q 155 546 160 538 q 137 558 149 554 q 90 563 124 563 l 97 589 l 328 629 l 369 629 m 317 913 q 381 887 355 913 q 408 823 408 861 q 381 760 408 786 q 317 733 355 733 q 254 760 280 733 q 227 823 227 786 q 254 887 227 861 q 317 913 280 913 m 570 913 q 633 886 607 913 q 659 823 659 860 q 633 760 659 786 q 570 734 606 734 q 506 760 532 734 q 480 823 480 786 q 506 886 480 860 q 570 913 532 913 z "},"†":{"ha":694,"x_min":120,"x_max":708,"o":"m 177 -297 l 152 -297 q 277 424 271 151 q 353 483 330 454 q 398 570 377 511 q 345 562 359 566 q 274 532 330 557 q 186 507 218 507 q 139 526 157 507 q 120 576 120 545 q 142 634 120 611 q 193 656 164 656 q 279 631 217 656 q 344 607 323 613 q 407 596 365 602 q 416 678 416 650 q 411 739 416 697 q 406 811 406 780 q 435 907 406 873 q 505 941 464 941 q 561 921 540 941 q 583 869 583 900 q 526 739 583 812 q 464 655 470 665 q 437 596 454 640 q 489 606 473 601 q 554 633 500 609 q 644 656 609 656 q 690 637 671 656 q 708 587 708 618 q 687 528 708 549 q 633 507 666 507 q 543 532 600 507 q 481 559 486 557 q 430 570 467 564 q 426 515 426 537 q 434 465 426 488 q 466 406 442 441 q 321 118 391 288 q 177 -297 232 -102 z "},"°":{"ha":555,"x_min":122,"x_max":591,"o":"m 357 939 q 523 870 454 939 q 591 704 591 802 q 523 538 591 607 q 357 469 454 469 q 191 538 260 469 q 122 704 122 607 q 191 870 122 802 q 357 939 259 939 m 357 850 q 253 808 296 850 q 211 705 211 765 q 254 602 211 644 q 357 559 296 559 q 460 602 417 559 q 503 705 503 644 q 460 808 503 765 q 357 850 417 850 z "},"¢":{"ha":694,"x_min":74,"x_max":642,"o":"m 559 895 l 479 629 q 593 602 557 627 q 642 509 642 567 q 613 433 642 465 q 547 401 583 401 q 496 421 517 401 q 475 469 475 441 q 513 535 475 507 q 537 568 537 553 q 528 586 537 579 q 492 597 514 597 q 468 595 483 597 l 316 87 q 378 73 357 73 q 459 95 406 73 q 559 164 513 117 l 578 144 q 477 47 524 81 q 389 -1 431 14 q 285 -17 346 -15 l 213 -258 l 165 -258 l 239 -17 q 144 19 176 -3 q 93 86 113 42 q 74 177 74 130 q 128 389 74 287 q 277 559 182 490 q 431 629 337 604 l 512 895 l 559 895 m 416 574 q 352 519 376 549 q 278 383 309 465 q 248 218 248 301 q 279 117 248 172 l 416 574 z "},"£":{"ha":694,"x_min":50,"x_max":729,"o":"m 421 515 l 566 515 l 535 415 l 397 415 q 319 201 357 295 q 433 150 353 189 q 553 111 512 111 q 616 154 587 111 l 642 154 q 549 22 605 62 q 421 -19 493 -19 q 344 -6 381 -19 q 244 45 307 7 q 201 -3 225 13 q 147 -19 176 -19 q 78 10 107 -19 q 50 84 50 39 q 91 183 50 144 q 214 222 132 221 q 224 415 216 280 l 101 415 l 132 515 l 232 515 q 360 839 274 740 q 578 939 446 939 q 691 906 652 939 q 729 831 729 874 q 705 773 729 798 q 648 749 681 749 q 592 772 616 749 q 573 819 573 789 q 579 847 573 835 q 589 873 589 867 q 581 887 589 880 q 556 895 572 895 q 505 862 524 895 q 467 718 492 840 q 421 515 433 560 m 191 81 q 134 106 155 106 q 108 95 119 106 q 97 67 97 84 q 108 37 97 48 q 136 25 119 25 q 162 34 152 25 q 191 81 172 42 z "},"§":{"ha":694,"x_min":-19,"x_max":736,"o":"m 252 581 q 221 644 231 613 q 210 703 210 674 q 285 870 210 800 q 481 941 360 941 q 666 880 596 941 q 736 744 736 819 q 714 687 736 710 q 659 664 692 664 q 605 685 625 664 q 584 744 584 706 q 587 779 584 762 q 593 820 593 809 q 567 870 593 848 q 489 893 541 893 q 382 856 422 893 q 343 771 343 819 q 368 688 343 727 q 484 576 392 650 q 613 433 576 502 q 642 321 642 380 q 598 176 642 243 q 465 46 554 109 q 492 -19 483 11 q 501 -75 501 -50 q 425 -231 501 -162 q 229 -300 348 -300 q 50 -241 119 -300 q -19 -113 -19 -182 q 3 -53 -19 -76 q 58 -30 26 -30 q 111 -52 90 -30 q 132 -109 132 -73 q 127 -144 132 -126 q 121 -186 121 -175 q 147 -234 121 -212 q 224 -256 174 -256 q 330 -221 291 -256 q 369 -138 369 -186 q 346 -55 369 -93 q 232 54 322 -17 q 104 194 142 125 q 77 302 77 245 q 121 453 77 384 q 252 581 165 522 m 273 551 q 191 401 191 478 q 215 314 191 356 q 327 194 239 272 q 441 82 385 142 q 511 158 490 123 q 531 233 531 193 q 504 325 531 281 q 381 448 477 369 q 273 551 320 498 z "},"•":{"ha":486,"x_min":68,"x_max":455,"o":"m 262 652 q 399 595 342 652 q 455 458 455 538 q 398 321 455 378 q 262 264 342 264 q 124 321 181 264 q 68 458 68 378 q 124 595 68 538 q 262 652 180 652 z "},"¶":{"ha":694,"x_min":-27,"x_max":724,"o":"m 406 868 l 406 -300 l 338 -300 l 338 291 q 133 333 212 296 q 14 445 55 370 q -27 612 -27 519 q -10 727 -27 682 q 44 813 7 772 q 119 876 81 854 q 208 907 158 899 q 426 920 273 920 l 724 920 l 724 890 l 694 890 q 634 878 654 890 q 604 842 614 865 q 596 752 596 825 l 596 -300 l 529 -300 l 529 868 l 406 868 z "},"ß":{"ha":694,"x_min":-237,"x_max":703,"o":"m 391 512 l 399 537 q 473 576 450 553 q 534 679 508 611 q 559 823 559 747 q 542 888 559 867 q 500 908 524 908 q 437 865 465 908 q 366 656 410 822 l 256 239 q 158 -79 193 -4 q 35 -240 110 -181 q -132 -300 -40 -300 q -211 -277 -184 -300 q -237 -226 -237 -255 q -216 -182 -237 -201 q -163 -163 -196 -163 q -123 -175 -136 -163 q -108 -212 -108 -191 q -117 -235 -108 -224 q -130 -257 -130 -252 q -125 -264 -130 -260 q -114 -268 -120 -268 q -91 -263 -101 -268 q -73 -250 -80 -258 q -44 -200 -58 -231 q -5 -77 -36 -182 l 48 100 l 157 512 q 250 785 210 713 q 358 898 290 856 q 508 941 426 941 q 654 895 605 941 q 703 772 703 849 q 666 647 703 703 q 566 560 629 591 q 435 527 522 538 q 546 489 510 513 q 604 420 581 466 q 627 323 627 375 q 531 66 627 180 q 366 -19 459 -19 q 284 10 314 -19 q 255 83 255 39 q 274 139 255 118 q 317 160 292 160 q 346 147 334 160 q 357 112 357 134 q 348 63 357 87 q 338 24 338 38 q 343 13 338 18 q 355 8 348 8 q 374 15 368 8 q 420 149 388 29 q 469 397 469 331 q 457 465 469 432 q 433 498 450 485 q 391 512 422 506 z "},"®":{"ha":1038,"x_min":75,"x_max":1037,"o":"m 555 941 q 792 879 677 941 q 972 701 907 817 q 1037 460 1037 585 q 973 220 1037 335 q 795 42 909 106 q 555 -21 680 -21 q 316 42 431 -21 q 138 220 202 106 q 75 460 75 335 q 139 701 75 585 q 319 879 204 817 q 555 941 435 941 m 555 880 q 349 826 450 880 q 192 670 248 772 q 135 460 135 569 q 191 251 135 351 q 347 95 246 151 q 555 39 447 39 q 765 95 665 39 q 920 251 865 151 q 976 460 976 351 q 920 670 976 569 q 763 826 863 772 q 555 880 662 880 m 298 739 l 544 739 q 716 709 668 739 q 785 591 785 667 q 754 505 785 543 q 663 450 724 467 l 756 281 q 798 226 777 244 q 827 214 808 217 l 827 191 l 663 191 l 524 440 l 493 440 l 493 306 q 508 232 493 248 q 574 214 524 216 l 574 191 l 288 191 l 288 214 q 342 228 330 214 q 359 306 359 248 l 359 626 q 347 697 359 682 q 298 716 335 712 l 298 739 m 493 475 q 532 471 516 471 q 607 505 576 471 q 639 593 639 538 q 609 680 639 650 q 519 709 580 709 l 493 709 l 493 475 z "},"©":{"ha":1038,"x_min":75,"x_max":1037,"o":"m 555 941 q 792 879 677 941 q 972 701 907 817 q 1037 460 1037 585 q 973 220 1037 335 q 795 42 909 106 q 555 -21 680 -21 q 316 42 431 -21 q 138 220 202 106 q 75 460 75 335 q 139 701 75 585 q 319 879 204 817 q 555 941 435 941 m 555 880 q 349 826 450 880 q 192 670 248 772 q 135 460 135 569 q 191 251 135 351 q 347 95 246 151 q 555 39 447 39 q 765 95 665 39 q 920 251 865 151 q 976 460 976 351 q 920 670 976 569 q 763 826 863 772 q 555 880 662 880 m 783 750 l 783 571 l 757 571 q 697 679 743 640 q 590 718 652 718 q 465 658 515 718 q 415 471 415 599 q 464 275 415 334 q 587 217 513 217 q 764 311 687 217 l 764 263 q 548 177 682 177 q 341 254 420 177 q 262 453 262 331 q 347 667 262 583 q 561 751 432 751 q 694 724 619 751 q 726 715 716 715 q 746 724 738 715 q 757 750 755 732 l 783 750 z "},"™":{"ha":1389,"x_min":-2,"x_max":1396,"o":"m -2 920 l 525 920 l 525 766 l 501 766 q 468 855 498 826 q 370 884 437 884 l 344 884 l 344 486 q 356 414 344 429 q 414 395 371 395 l 414 372 l 106 372 l 106 395 q 156 404 146 398 q 171 423 165 409 q 176 488 176 437 l 176 884 l 152 884 q 56 857 87 884 q 20 766 25 829 l -2 766 l -2 920 m 600 920 l 849 920 l 1006 584 l 1161 920 l 1396 920 l 1396 894 q 1352 887 1364 894 q 1334 867 1339 880 q 1328 803 1328 853 l 1328 483 q 1338 418 1328 431 q 1396 395 1354 398 l 1396 372 l 1084 372 l 1084 395 q 1147 412 1133 397 q 1161 483 1161 427 l 1161 826 l 944 372 l 928 372 l 712 826 l 712 486 q 716 429 712 439 q 737 405 722 414 q 790 395 753 396 l 790 372 l 600 372 l 600 395 q 650 404 638 397 q 668 425 663 410 q 674 487 674 439 l 674 804 q 668 866 674 852 q 649 887 661 880 q 600 894 637 894 l 600 920 z "},"´":{"ha":463,"x_min":273,"x_max":562,"o":"m 353 941 l 562 941 l 334 703 l 273 703 l 353 941 z "},"¨":{"ha":463,"x_min":125,"x_max":557,"o":"m 216 913 q 279 887 253 913 q 306 823 306 861 q 279 760 306 786 q 216 733 253 733 q 152 760 178 733 q 125 823 125 786 q 152 887 125 861 q 216 913 178 913 m 468 913 q 531 886 505 913 q 557 823 557 860 q 531 760 557 786 q 468 734 505 734 q 405 760 431 734 q 378 823 378 786 q 405 886 378 860 q 468 913 431 913 z "},"≠":{"ha":762,"x_min":34,"x_max":776,"o":"m 34 585 l 441 585 l 582 943 l 673 943 l 534 585 l 776 585 l 776 479 l 492 479 l 409 265 l 776 265 l 776 159 l 368 159 l 227 -198 l 135 -198 l 275 159 l 34 159 l 34 265 l 317 265 l 400 479 l 34 479 l 34 585 z "},"Æ":{"ha":1311,"x_min":-78,"x_max":1331,"o":"m 577 314 l 287 314 l 197 206 q 123 70 123 117 q 138 40 123 52 q 197 25 152 29 l 197 0 l -78 0 l -71 25 q -5 55 -33 34 q 97 160 36 84 l 577 753 q 624 814 618 804 q 633 849 633 832 q 614 881 633 869 q 519 895 595 893 l 529 920 l 1331 920 l 1274 688 l 1248 688 q 1195 822 1248 775 q 1000 868 1141 868 l 934 868 l 828 509 l 860 509 q 1033 542 977 509 q 1128 656 1088 574 l 1154 656 l 1050 300 l 1025 300 q 1031 342 1031 327 q 1012 412 1031 378 q 969 448 997 437 q 856 458 941 458 l 814 458 l 732 181 q 714 96 714 120 q 730 67 714 79 q 785 55 745 55 q 1013 103 916 55 q 1194 250 1109 152 l 1221 250 l 1128 0 l 377 0 l 385 25 q 472 47 446 25 q 529 165 498 69 l 577 314 m 591 368 l 737 868 l 330 368 l 591 368 z "},"Ø":{"ha":1003,"x_min":58,"x_max":1009,"o":"m 1009 903 l 927 821 q 981 722 965 766 q 996 627 996 678 q 905 318 996 473 q 671 70 814 162 q 387 -22 529 -22 q 275 -3 323 -22 q 174 62 228 16 l 94 -21 l 58 14 l 141 99 q 90 198 104 154 q 75 298 75 243 q 160 607 75 454 q 385 850 245 760 q 668 941 526 941 q 795 920 738 941 q 894 859 839 903 l 974 941 l 1009 903 m 778 741 q 737 855 769 823 q 652 887 705 887 q 541 854 586 887 q 387 631 459 795 q 291 251 315 468 l 778 741 m 291 179 q 334 66 302 98 q 419 35 366 35 q 530 69 487 35 q 689 310 616 137 q 778 671 763 483 l 291 179 z "},"∞":{"ha":990,"x_min":36,"x_max":954,"o":"m 443 452 q 544 600 489 559 q 694 640 599 640 q 878 562 803 640 q 954 357 954 483 q 880 153 954 233 q 717 73 807 73 q 592 122 650 73 q 488 267 554 155 q 393 145 445 182 q 269 109 342 109 q 103 178 171 109 q 36 359 36 248 q 98 539 36 471 q 244 608 161 608 q 347 577 302 608 q 443 452 392 547 m 508 315 q 608 173 559 209 q 720 136 658 136 q 859 196 803 136 q 915 357 915 256 q 856 522 915 457 q 724 587 797 587 q 642 564 677 587 q 578 488 607 540 q 508 315 562 457 m 423 400 q 347 510 390 475 q 242 545 304 545 q 122 495 170 545 q 73 359 73 444 q 121 215 73 269 q 229 161 169 161 q 343 219 294 161 q 423 400 375 257 z "},"±":{"ha":762,"x_min":20,"x_max":762,"o":"m 21 505 l 347 505 l 347 830 l 436 830 l 436 505 l 762 505 l 762 415 l 436 415 l 437 182 l 762 182 l 762 92 l 21 92 l 20 181 l 347 181 l 347 415 l 21 415 l 21 505 z "},"≤":{"ha":762,"x_min":34,"x_max":777,"o":"m 777 149 l 35 461 l 35 557 l 777 869 l 777 753 l 178 509 l 777 265 l 777 149 m 34 -20 l 777 -20 l 777 -125 l 34 -125 l 34 -20 z "},"≥":{"ha":762,"x_min":34,"x_max":777,"o":"m 35 869 l 777 557 l 777 461 l 35 149 l 35 264 l 632 509 l 35 753 l 35 869 m 34 -20 l 777 -20 l 777 -125 l 34 -125 l 34 -20 z "},"¥":{"ha":694,"x_min":-13,"x_max":853,"o":"m 521 465 l 747 465 l 732 419 l 490 419 l 463 378 l 436 281 l 703 281 l 688 236 l 423 236 l 405 170 q 388 86 388 109 q 399 56 388 71 q 430 33 410 41 q 499 25 449 25 l 492 0 l 54 0 l 62 25 q 167 50 136 25 q 222 157 199 75 l 245 236 l -13 236 l 1 281 l 258 281 l 296 412 l 294 419 l 31 419 l 45 465 l 286 465 l 229 766 q 192 873 213 847 q 142 895 178 890 l 150 920 l 499 920 l 492 895 q 419 873 438 890 q 401 827 401 857 q 411 743 401 799 l 463 465 l 624 712 q 685 849 685 805 q 669 879 685 865 q 617 895 654 892 l 624 920 l 853 920 l 846 895 q 809 882 825 893 q 751 811 788 867 l 521 465 z "},"µ":{"ha":800,"x_min":-87,"x_max":735,"o":"m 206 610 l 379 610 l 270 232 q 252 171 254 176 q 248 130 248 146 q 261 94 248 108 q 295 80 275 80 q 380 130 334 80 q 490 357 443 195 l 562 610 l 735 610 l 614 192 q 591 95 591 117 q 602 68 591 79 q 625 57 612 57 q 651 71 637 57 q 703 152 678 96 l 727 139 q 651 18 698 56 q 547 -19 604 -19 q 464 12 495 -19 q 433 93 433 43 q 438 152 433 117 q 303 9 361 45 q 205 -19 258 -19 q 138 -2 165 -19 q 101 41 121 7 q 77 -48 84 -11 q 67 -149 71 -86 q 57 -235 64 -212 q 25 -284 47 -267 q -21 -300 3 -300 q -67 -280 -48 -300 q -87 -227 -87 -259 q -37 -102 -87 -184 q 29 17 13 -21 q 74 152 45 55 l 206 610 z "},"∂":{"ha":686,"x_min":54,"x_max":659,"o":"m 252 780 l 223 780 q 320 926 258 879 q 459 972 381 972 q 610 903 562 972 q 659 706 659 834 q 587 285 659 462 q 425 37 515 109 q 268 -16 359 -16 q 153 11 202 -16 q 79 91 104 38 q 54 199 54 143 q 95 370 54 287 q 198 513 137 453 q 324 603 259 573 q 452 633 389 633 q 612 532 563 633 q 617 618 617 587 q 538 798 617 734 q 405 837 490 837 q 316 823 350 837 q 252 780 281 810 m 601 469 q 540 569 578 538 q 456 599 503 599 q 363 557 408 599 q 266 380 305 503 q 227 144 227 256 q 248 54 227 78 q 308 30 268 30 q 444 109 375 30 q 601 469 556 241 z "},"∑":{"ha":990,"x_min":29,"x_max":963,"o":"m 920 -300 l 29 -300 l 29 -275 l 483 336 l 29 938 l 29 963 l 896 963 l 914 734 l 887 734 q 834 868 876 828 q 718 908 793 908 l 216 908 l 597 395 l 171 -180 l 726 -180 q 829 -161 773 -180 q 893 -116 868 -149 q 936 -13 919 -83 l 963 -18 l 920 -300 z "},"∏":{"ha":1143,"x_min":68,"x_max":1149,"o":"m 878 910 l 338 910 l 338 -169 q 363 -250 338 -225 q 448 -274 389 -274 l 473 -274 l 473 -300 l 68 -300 l 68 -274 l 92 -274 q 177 -250 151 -274 q 202 -169 202 -226 l 202 833 q 177 913 202 889 q 92 938 152 938 l 68 938 l 68 963 l 1149 963 l 1149 938 l 1125 938 q 1040 913 1065 938 q 1015 833 1015 889 l 1015 -169 q 1040 -250 1015 -225 q 1125 -274 1065 -274 l 1149 -274 l 1149 -300 l 744 -300 l 744 -274 l 768 -274 q 852 -250 827 -274 q 878 -169 878 -226 l 878 910 z "},"∫":{"ha":380,"x_min":0,"x_max":380,"o":"m 136 607 l 148 1001 q 182 1174 153 1105 q 232 1241 200 1219 q 295 1263 264 1263 q 354 1241 329 1263 q 380 1191 380 1218 q 362 1140 380 1159 q 317 1120 344 1120 q 266 1145 294 1120 q 239 1158 250 1158 q 219 1148 227 1158 q 212 1115 212 1139 q 218 1017 212 1087 q 243 567 243 738 q 232 167 243 519 q 171 -104 227 -33 q 80 -149 134 -149 q 22 -126 45 -149 q 0 -67 0 -103 q 17 -18 0 -37 q 61 0 35 0 q 108 -22 88 0 q 141 -43 127 -43 q 160 -34 153 -43 q 168 -2 168 -24 q 161 79 168 26 q 144 309 150 176 q 136 607 136 477 z "},"ª":{"ha":370,"x_min":95,"x_max":509,"o":"m 509 932 l 425 664 q 414 621 414 630 q 418 613 414 616 q 427 609 422 609 q 439 614 433 609 q 483 659 455 625 l 498 650 q 359 550 437 550 q 315 563 330 550 q 301 595 301 576 q 311 641 301 611 l 325 684 q 238 575 271 600 q 171 550 205 550 q 116 575 138 550 q 95 644 95 600 q 176 846 95 754 q 327 939 256 939 q 367 926 353 939 q 388 880 381 913 l 402 927 l 509 932 m 336 913 q 300 899 317 913 q 246 798 283 884 q 210 667 210 712 q 220 634 210 647 q 235 626 225 626 q 321 711 275 626 q 368 862 368 795 q 357 904 368 889 q 336 913 349 913 z "},"º":{"ha":416,"x_min":119,"x_max":521,"o":"m 393 939 q 486 906 452 939 q 521 822 521 873 q 483 694 521 761 q 378 589 445 628 q 247 550 311 550 q 153 582 186 550 q 119 665 119 614 q 158 795 119 728 q 263 900 196 862 q 393 939 330 939 m 376 917 q 336 903 351 917 q 268 785 307 878 q 229 616 229 692 q 241 584 229 597 q 271 572 253 572 q 304 585 290 572 q 376 706 340 618 q 412 871 412 793 q 402 905 412 893 q 376 917 391 917 z "},"Ω":{"ha":1067,"x_min":27,"x_max":1085,"o":"m 505 139 l 506 0 l 79 0 l 27 244 l 112 244 q 136 169 126 181 q 216 143 157 143 l 267 143 q 380 135 320 143 l 371 153 q 250 189 296 164 q 166 258 203 213 q 104 380 130 302 q 79 547 79 458 q 141 806 79 694 q 311 974 202 918 q 548 1029 419 1029 q 813 967 702 1029 q 979 792 925 905 q 1033 552 1033 680 q 1007 378 1033 460 q 935 245 981 296 q 858 185 901 206 q 741 153 815 164 l 733 135 q 845 143 797 143 l 897 143 q 967 159 948 143 q 1000 244 986 176 l 1085 244 l 1034 0 l 607 0 l 607 139 q 692 186 664 162 q 744 258 720 211 q 786 390 768 304 q 804 576 804 475 q 731 888 804 794 q 559 982 659 982 q 390 899 454 982 q 309 583 309 795 q 336 351 309 452 q 404 203 363 250 q 505 139 435 168 z "},"æ":{"ha":1003,"x_min":26,"x_max":995,"o":"m 587 254 q 582 191 582 216 q 615 100 582 134 q 699 66 648 66 q 911 178 806 66 l 931 157 q 776 22 851 63 q 617 -19 701 -19 q 494 7 542 -19 q 425 77 446 34 q 402 191 405 119 q 307 66 343 104 q 216 -5 260 16 q 151 -19 187 -19 q 62 23 98 -19 q 26 139 26 64 q 75 344 26 239 q 191 516 124 448 q 314 610 258 583 q 395 629 352 629 q 463 607 438 629 q 502 524 488 585 l 532 610 l 677 618 l 654 547 q 768 611 720 593 q 871 629 817 629 q 965 603 935 629 q 995 535 995 576 q 898 356 995 441 q 587 254 800 271 m 412 588 q 374 578 389 588 q 297 483 336 551 q 222 289 258 414 q 204 174 204 230 q 218 121 204 138 q 252 104 233 104 q 302 130 272 104 q 416 298 363 184 q 469 491 469 412 q 447 570 469 540 q 412 588 434 588 m 593 291 q 724 332 677 302 q 806 423 771 361 q 840 531 840 484 q 828 568 840 554 q 797 582 815 582 q 719 534 762 582 q 593 291 644 454 z "},"ø":{"ha":694,"x_min":21,"x_max":673,"o":"m 673 593 l 623 545 q 652 439 652 490 q 590 217 652 327 q 429 44 528 108 q 227 -19 330 -19 q 153 -8 185 -19 q 97 24 129 0 l 52 -19 l 21 12 l 67 58 q 34 174 34 115 q 95 393 34 285 q 258 565 155 502 q 461 629 361 629 q 529 616 496 629 q 595 579 563 604 l 642 625 l 673 593 m 482 467 q 486 517 486 497 q 469 572 486 552 q 426 591 452 591 q 378 578 400 591 q 326 518 356 565 q 272 404 296 472 q 213 203 267 389 l 482 467 m 203 131 q 201 94 201 110 q 220 38 201 58 q 265 18 239 18 q 318 39 294 18 q 400 163 363 79 q 469 393 420 211 l 203 131 z "},"¿":{"ha":694,"x_min":6,"x_max":545,"o":"m 434 661 q 512 629 480 661 q 545 550 545 596 q 512 471 545 504 q 434 439 479 439 q 355 471 388 439 q 323 550 323 504 q 355 629 323 596 q 434 661 387 661 m 407 382 l 434 382 q 411 258 434 310 q 288 89 388 207 q 189 -60 217 5 q 171 -151 171 -104 q 198 -240 171 -209 q 266 -271 225 -271 q 312 -255 295 -271 q 330 -222 330 -240 q 317 -188 330 -210 q 294 -114 294 -145 q 320 -53 294 -79 q 385 -27 347 -27 q 452 -56 425 -27 q 479 -134 479 -85 q 412 -257 479 -214 q 254 -300 344 -300 q 121 -275 178 -300 q 35 -206 64 -250 q 6 -113 6 -161 q 41 9 6 -44 q 209 158 90 84 q 362 274 329 233 q 407 382 396 315 z "},"¡":{"ha":541,"x_min":27,"x_max":439,"o":"m 328 661 q 407 628 374 661 q 439 550 439 596 q 407 472 439 505 q 328 439 374 439 q 250 472 283 439 q 218 550 218 505 q 250 628 218 596 q 328 661 282 661 m 266 379 l 292 379 q 242 15 258 200 q 192 -235 226 -171 q 102 -300 157 -300 q 50 -274 73 -300 q 27 -211 27 -248 q 39 -145 27 -181 q 110 15 50 -109 q 266 379 209 222 z "},"¬":{"ha":842,"x_min":50,"x_max":791,"o":"m 50 612 l 791 612 l 791 303 l 704 303 l 704 526 l 50 525 l 50 612 z "},"√":{"ha":762,"x_min":57,"x_max":762,"o":"m 712 1267 l 762 1267 l 551 -53 l 214 640 l 80 578 l 57 621 l 261 724 l 536 165 l 712 1267 z "},"ƒ":{"ha":694,"x_min":-1,"x_max":695,"o":"m 482 532 l 414 193 q 331 -119 367 -37 q 233 -250 295 -201 q 105 -300 171 -300 q 27 -276 55 -300 q -1 -221 -1 -252 q 20 -174 -1 -195 q 69 -154 40 -154 q 117 -171 98 -154 q 132 -207 132 -184 q 130 -223 132 -216 q 123 -243 123 -239 q 129 -254 123 -249 q 143 -258 134 -258 q 179 -237 162 -258 q 195 -175 195 -216 q 191 -106 195 -157 q 189 -50 189 -76 q 194 40 189 3 q 216 168 198 77 l 290 532 l 194 532 l 211 614 q 311 642 277 614 q 381 766 345 669 q 467 903 418 864 q 586 941 516 941 q 667 917 639 941 q 695 854 695 892 q 674 799 695 821 q 622 777 653 777 q 579 794 596 777 q 562 833 562 811 q 581 884 562 848 q 584 895 584 891 q 578 905 584 901 q 566 909 573 909 q 521 885 541 909 q 501 815 501 861 q 504 752 501 789 q 507 699 507 716 q 498 614 507 667 l 602 614 l 586 532 l 482 532 z "},"≈":{"ha":762,"x_min":34,"x_max":779,"o":"m 736 743 l 779 743 q 723 572 778 633 q 589 511 669 511 q 468 534 551 511 l 334 591 q 193 632 237 632 q 119 605 149 632 q 77 511 90 577 l 34 511 q 88 684 39 625 q 218 744 137 744 q 293 734 257 744 q 478 664 361 715 q 576 627 543 636 q 620 622 596 622 q 698 653 666 622 q 736 743 730 684 m 736 398 l 779 398 q 723 227 778 288 q 590 165 669 165 q 510 177 552 165 q 334 245 468 189 q 193 286 238 286 q 119 259 149 286 q 77 166 89 231 l 34 166 q 88 339 39 279 q 218 399 137 399 q 292 389 257 399 q 478 319 360 370 q 576 281 544 290 q 620 276 596 276 q 698 307 666 276 q 736 398 730 338 z "},"∆":{"ha":850,"x_min":18,"x_max":831,"o":"m 831 0 l 18 0 l 444 941 l 831 0 m 671 56 l 401 711 l 102 56 l 671 56 z "},"«":{"ha":694,"x_min":56,"x_max":685,"o":"m 399 618 l 225 305 l 265 -7 l 225 -7 l 56 305 l 356 618 l 399 618 m 685 618 l 511 305 l 555 -7 l 511 -7 l 345 305 l 644 618 l 685 618 z "},"»":{"ha":694,"x_min":9,"x_max":638,"o":"m 295 -7 l 469 306 l 429 618 l 469 618 l 638 306 l 338 -7 l 295 -7 m 9 -7 l 183 306 l 140 618 l 183 618 l 350 306 l 51 -7 l 9 -7 z "},"…":{"ha":1389,"x_min":119,"x_max":1270,"o":"m 231 209 q 312 176 279 209 q 345 96 345 142 q 311 16 345 49 q 231 -17 278 -17 q 152 16 184 -17 q 119 96 119 49 q 152 176 119 142 q 231 209 184 209 m 694 208 q 774 175 741 208 q 807 96 807 142 q 774 16 807 49 q 694 -17 741 -17 q 615 16 648 -17 q 582 96 582 49 q 615 175 582 142 q 694 208 648 208 m 1158 207 q 1238 174 1205 207 q 1270 94 1270 141 q 1237 15 1270 47 q 1158 -18 1204 -18 q 1078 15 1111 -18 q 1045 94 1045 47 q 1078 174 1045 141 q 1158 207 1111 207 z "},"À":{"ha":926,"x_min":-79,"x_max":866,"o":"m 563 296 l 278 296 l 221 226 l 156 148 q 128 102 137 123 q 121 71 121 87 q 139 41 121 55 q 196 25 156 27 l 196 0 l -79 0 l -72 25 q -7 51 -35 31 q 102 163 31 78 l 754 941 l 785 941 l 754 188 q 752 117 752 129 q 771 50 752 71 q 833 25 789 28 l 826 0 l 428 0 l 435 25 q 503 35 494 31 q 538 74 522 44 q 557 179 553 104 l 563 296 m 563 352 l 581 652 l 325 352 l 563 352 m 594 1226 l 793 1226 l 866 991 l 813 991 l 594 1226 z "},"Ã":{"ha":926,"x_min":-79,"x_max":982,"o":"m 563 296 l 278 296 l 221 226 l 156 148 q 128 102 137 123 q 121 71 121 87 q 139 41 121 55 q 196 25 156 27 l 196 0 l -79 0 l -72 25 q -7 51 -35 31 q 102 163 31 78 l 754 941 l 785 941 l 754 188 q 752 117 752 129 q 771 50 752 71 q 833 25 789 28 l 826 0 l 428 0 l 435 25 q 503 35 494 31 q 538 74 522 44 q 557 179 553 104 l 563 296 m 563 352 l 581 652 l 325 352 l 563 352 m 939 1196 l 982 1196 q 941 1055 981 1102 q 852 1007 901 1007 q 708 1051 804 1007 q 649 1069 668 1069 q 616 1055 630 1069 q 597 1008 602 1041 l 553 1008 q 598 1151 558 1105 q 689 1196 638 1196 q 833 1152 743 1196 q 888 1135 871 1135 q 922 1148 908 1135 q 939 1196 935 1162 z "},"Õ":{"ha":1003,"x_min":74,"x_max":998,"o":"m 391 -22 q 211 24 279 -22 q 108 148 142 69 q 74 301 74 227 q 160 605 74 452 q 392 849 246 758 q 681 941 538 941 q 839 899 764 941 q 956 782 914 857 q 998 630 998 707 q 888 286 998 458 q 643 36 779 113 q 391 -22 540 -22 m 659 886 q 567 866 605 886 q 489 802 530 847 q 406 672 448 756 q 327 442 364 587 q 290 200 290 297 q 326 75 290 117 q 418 33 362 33 q 545 82 493 33 q 714 371 649 180 q 780 709 780 561 q 745 844 780 802 q 659 886 710 886 m 872 1169 l 915 1169 q 874 1028 913 1076 q 785 981 834 981 q 641 1025 737 981 q 582 1043 601 1043 q 549 1029 563 1043 q 530 981 535 1015 l 486 981 q 531 1124 491 1079 q 622 1169 571 1169 q 766 1126 675 1169 q 821 1108 804 1108 q 854 1122 841 1108 q 872 1169 868 1136 z "},"Œ":{"ha":1311,"x_min":86,"x_max":1331,"o":"m 869 462 l 793 199 q 770 94 770 119 q 783 68 770 79 q 820 56 795 56 q 1015 106 916 56 q 1192 251 1114 155 l 1221 251 l 1124 0 l 732 0 q 566 -1 604 0 q 410 -7 414 -7 q 238 35 314 -7 q 124 151 163 77 q 86 315 86 224 q 169 614 86 470 q 395 843 252 759 q 686 927 538 927 q 813 922 736 927 q 965 920 850 920 l 1331 920 l 1273 690 l 1247 690 q 1194 821 1247 773 q 1019 869 1141 869 l 989 869 l 884 513 q 1044 544 992 514 q 1141 659 1096 574 l 1166 659 l 1063 303 l 1039 303 q 1045 359 1045 335 q 1030 414 1045 392 q 979 450 1015 436 q 869 462 943 463 m 719 619 l 749 724 q 755 782 755 751 q 730 851 755 826 q 662 876 705 876 q 553 838 597 876 q 371 566 451 751 q 291 210 291 380 q 323 97 291 148 q 425 46 356 46 q 531 90 485 46 q 614 257 578 133 l 719 619 z "},"œ":{"ha":1003,"x_min":31,"x_max":996,"o":"m 603 255 q 592 188 592 214 q 626 105 592 140 q 707 70 659 70 q 803 94 755 70 q 909 176 851 119 l 932 157 q 778 21 853 62 q 618 -19 703 -19 q 509 6 553 -19 q 442 76 475 25 q 361 11 399 29 q 232 -19 301 -19 q 81 36 131 -19 q 31 175 31 91 q 93 393 31 286 q 254 564 155 500 q 450 629 352 629 q 554 605 517 629 q 619 525 591 582 q 747 606 692 584 q 865 629 801 629 q 965 602 935 629 q 996 534 996 575 q 953 415 996 479 q 832 313 909 351 q 603 255 754 275 m 422 590 q 364 563 394 590 q 262 377 315 519 q 197 93 197 203 q 217 37 197 58 q 264 17 236 17 q 336 60 300 17 q 436 279 387 118 q 485 515 485 441 q 467 570 485 551 q 422 590 449 590 m 608 286 q 737 339 692 307 q 811 432 782 371 q 841 544 841 494 q 831 574 841 564 q 806 584 822 584 q 724 530 772 584 q 608 286 651 450 z "},"–":{"ha":694,"x_min":-10,"x_max":707,"o":"m 707 280 l -10 280 l -10 362 l 707 362 l 707 280 z "},"—":{"ha":1389,"x_min":-14,"x_max":1402,"o":"m 1402 279 l -14 279 l -14 362 l 1402 362 l 1402 279 z "},"“":{"ha":694,"x_min":164,"x_max":748,"o":"m 432 941 l 448 913 q 320 823 353 863 q 298 773 298 797 q 333 717 298 749 q 380 661 368 684 q 389 621 389 644 q 357 543 389 576 q 276 511 324 511 q 196 546 229 511 q 164 635 164 581 q 216 786 164 719 q 432 941 284 874 m 731 941 l 748 911 q 621 823 651 860 q 600 771 600 798 q 637 713 600 747 q 689 621 689 666 q 656 542 689 575 q 578 508 623 508 q 498 545 532 508 q 463 635 463 582 q 520 791 463 720 q 731 941 592 884 z "},"”":{"ha":694,"x_min":164,"x_max":749,"o":"m 181 509 l 164 538 q 292 625 261 589 q 313 677 313 651 q 275 736 313 702 q 223 828 223 783 q 256 907 223 873 q 334 941 290 941 q 415 904 380 941 q 450 814 450 867 q 393 659 450 730 q 181 509 321 567 m 481 508 l 465 536 q 592 625 559 586 q 614 675 614 652 q 579 732 614 699 q 532 788 545 764 q 524 828 524 805 q 556 906 524 873 q 636 939 589 939 q 716 904 684 939 q 749 814 749 869 q 696 663 749 730 q 481 508 628 574 z "},"‘":{"ha":463,"x_min":197,"x_max":481,"o":"m 465 941 l 481 913 q 352 823 377 854 q 332 775 332 800 q 367 717 332 749 q 414 662 402 685 q 422 619 422 645 q 390 543 422 574 q 310 511 357 511 q 231 547 264 511 q 197 637 197 583 q 254 793 197 722 q 465 941 327 885 z "},"’":{"ha":463,"x_min":199,"x_max":483,"o":"m 215 511 l 199 539 q 328 629 303 597 q 348 676 348 652 q 313 735 348 703 q 267 789 278 767 q 258 833 258 806 q 291 909 258 877 q 370 941 323 941 q 449 905 416 941 q 483 815 483 869 q 418 648 483 730 q 215 511 353 566 z "},"÷":{"ha":762,"x_min":34,"x_max":775,"o":"m 406 757 q 455 736 435 757 q 475 688 475 716 q 455 639 475 659 q 406 618 435 618 q 357 639 377 618 q 336 688 336 659 q 357 736 336 716 q 406 757 377 757 m 34 505 l 775 505 l 775 415 l 34 415 l 34 505 m 405 308 q 454 287 434 308 q 475 238 475 267 q 454 189 475 209 q 405 168 434 168 q 356 189 376 168 q 335 238 335 209 q 355 287 335 267 q 405 308 376 308 z "},"◊":{"ha":686,"x_min":32,"x_max":656,"o":"m 372 964 l 656 481 l 372 0 l 297 0 l 32 481 l 297 964 l 372 964 m 336 899 l 105 481 l 336 64 l 579 481 l 336 899 z "},"ÿ":{"ha":616,"x_min":-130,"x_max":614,"o":"m 35 568 l 244 629 q 279 570 269 597 q 305 437 298 522 q 325 81 319 270 q 491 334 397 176 q 519 423 519 381 q 487 473 519 450 q 446 510 454 497 q 437 545 437 524 q 462 604 437 578 q 522 629 487 629 q 587 600 559 629 q 614 533 614 572 q 589 428 614 488 q 470 222 564 368 q 235 -101 350 35 q 115 -226 161 -188 q 21 -287 70 -264 q -37 -300 -8 -300 q -103 -273 -75 -300 q -130 -208 -130 -245 q -105 -145 -130 -171 q -47 -119 -81 -119 q 28 -163 -6 -119 q 66 -192 52 -192 q 97 -183 82 -192 q 154 -133 117 -172 q 158 -5 158 -48 q 153 159 158 54 l 141 418 q 111 520 135 489 q 61 543 92 543 q 35 541 50 543 l 35 568 m 273 913 q 336 887 310 913 q 363 823 363 861 q 336 760 363 786 q 273 733 310 733 q 209 760 235 733 q 182 823 182 786 q 209 887 182 861 q 273 913 235 913 m 525 913 q 588 886 562 913 q 614 823 614 860 q 588 760 614 786 q 525 734 562 734 q 461 760 488 734 q 435 823 435 786 q 461 886 435 860 q 525 913 488 913 z "},"Ÿ":{"ha":848,"x_min":129,"x_max":996,"o":"m 368 406 l 290 741 q 243 860 271 828 q 166 895 222 884 l 174 920 l 615 920 l 607 895 q 513 868 543 895 q 484 806 484 842 q 496 728 484 784 l 555 456 l 704 661 q 775 772 761 740 q 789 829 789 804 q 771 871 789 853 q 712 895 753 890 l 720 920 l 996 920 l 996 895 q 931 870 958 890 q 825 741 904 850 l 564 382 l 503 169 q 484 92 484 103 q 506 44 484 63 q 581 25 528 25 l 607 25 l 600 0 l 129 0 l 136 25 q 218 39 187 24 q 265 77 250 54 q 297 163 276 93 l 368 406 m 513 1182 q 576 1156 550 1182 q 603 1092 603 1129 q 576 1028 603 1055 q 513 1002 550 1002 q 449 1028 475 1002 q 422 1092 422 1055 q 449 1156 422 1129 q 513 1182 475 1182 m 765 1181 q 828 1155 802 1181 q 854 1092 854 1128 q 828 1028 854 1055 q 765 1002 802 1002 q 702 1028 728 1002 q 675 1092 675 1055 q 702 1155 675 1128 q 765 1181 728 1181 z "},"⁄":{"ha":232,"x_min":-256,"x_max":487,"o":"m 487 939 l -166 -40 l -256 -40 l 395 939 l 487 939 z "},"∕":{"ha":232,"x_min":-256,"x_max":487,"o":"m 487 939 l -166 -40 l -256 -40 l 395 939 l 487 939 z "},"€":{"ha":694,"x_min":22,"x_max":832,"o":"m 633 500 l 330 500 q 312 444 320 471 l 614 444 l 599 391 l 298 391 q 270 197 270 277 q 372 45 270 45 q 515 94 450 45 q 625 203 549 119 l 650 180 q 517 47 568 83 q 313 -19 426 -19 q 75 252 75 -19 q 91 391 75 317 l 22 391 l 38 444 l 103 444 l 106 454 q 121 500 112 475 l 56 500 l 72 553 l 142 553 q 338 818 209 709 q 640 939 482 939 q 763 918 713 939 q 832 879 778 912 l 774 676 l 748 676 q 755 747 755 714 q 637 883 755 883 q 469 775 552 883 q 349 553 403 689 l 648 553 l 633 500 z "},"‹":{"ha":463,"x_min":81,"x_max":425,"o":"m 425 618 l 250 306 l 291 -7 l 250 -7 l 81 306 l 382 618 l 425 618 z "},"›":{"ha":463,"x_min":39,"x_max":382,"o":"m 39 -7 l 214 305 l 172 618 l 214 618 l 382 305 l 81 -7 l 39 -7 z "},"ﬁ":{"ha":772,"x_min":-249,"x_max":734,"o":"m 723 629 l 603 209 q 573 91 573 105 q 578 76 573 82 q 591 70 584 70 q 615 80 603 70 q 689 172 646 106 l 711 159 q 587 11 649 54 q 492 -19 545 -19 q 425 4 449 -19 q 400 63 400 27 q 418 151 400 92 l 530 530 l 338 530 l 260 228 q 152 -96 202 -1 q 28 -246 101 -192 q -132 -300 -44 -300 q -221 -278 -194 -300 q -249 -226 -249 -256 q -227 -178 -249 -198 q -170 -157 -205 -157 q -122 -173 -139 -157 q -104 -213 -104 -189 q -117 -248 -104 -233 l -124 -258 q -121 -263 -124 -261 q -106 -267 -115 -267 q -44 -214 -78 -267 q 19 -19 -23 -182 l 161 530 l 66 530 l 87 610 q 169 623 144 608 q 218 687 193 637 q 356 875 288 826 q 574 941 450 941 q 696 911 658 941 q 734 840 734 881 q 712 783 734 806 q 656 760 689 760 q 604 779 625 760 q 582 821 582 798 q 593 861 582 840 q 601 884 601 876 q 591 902 601 893 q 558 910 580 910 q 488 889 517 910 q 419 806 447 860 q 366 646 401 772 l 356 610 l 530 610 q 689 629 624 610 l 723 629 z "},"ﬂ":{"ha":772,"x_min":-250,"x_max":817,"o":"m 817 941 l 604 209 q 573 92 573 104 q 579 77 573 83 q 591 70 585 70 q 616 83 601 70 q 686 172 650 111 l 711 158 q 589 12 650 54 q 493 -19 547 -19 q 424 4 450 -19 q 399 60 399 28 q 417 153 399 87 l 527 531 l 338 531 l 259 226 q 150 -99 201 -3 q 28 -247 100 -195 q -133 -300 -44 -300 q -222 -278 -195 -300 q -250 -226 -250 -256 q -228 -178 -250 -199 q -172 -157 -206 -157 q -122 -173 -139 -157 q -104 -209 -104 -189 q -118 -247 -104 -231 l -125 -257 q -122 -262 -125 -260 q -107 -266 -116 -266 q -45 -214 -79 -266 q 20 -19 -22 -178 l 161 531 l 65 531 l 86 610 q 168 624 143 610 q 217 687 192 638 q 304 825 267 783 q 382 892 340 868 q 470 929 423 917 q 569 941 517 941 q 619 937 594 941 q 669 924 644 932 l 817 941 m 551 610 l 602 782 q 586 798 589 791 q 582 827 582 808 q 593 861 582 842 q 601 884 601 874 q 590 902 601 893 q 557 910 578 910 q 460 863 504 910 q 366 646 403 802 l 357 610 l 551 610 z "},"‡":{"ha":694,"x_min":-8,"x_max":705,"o":"m 434 585 q 427 534 427 553 q 438 486 427 508 q 482 436 450 465 q 388 371 414 404 q 361 296 361 338 q 374 241 361 266 q 423 187 388 217 q 340 137 367 162 q 285 56 314 112 q 345 65 323 59 q 407 90 366 71 q 490 115 461 115 q 540 93 519 115 q 561 41 561 72 q 538 -10 561 12 q 480 -31 515 -31 q 409 -12 456 -31 q 340 13 362 7 q 275 24 318 19 q 268 -41 268 -18 q 274 -100 268 -62 q 282 -185 282 -153 q 252 -267 282 -233 q 185 -300 221 -300 q 132 -278 155 -300 q 109 -224 109 -256 q 118 -177 109 -197 q 170 -104 127 -156 q 248 24 213 -53 q 193 12 209 17 q 121 -17 184 9 q 68 -30 92 -30 q 9 -9 33 -30 q -8 38 -8 7 q 11 94 -8 75 q 63 114 30 114 q 107 108 83 114 q 159 85 119 104 q 204 65 199 66 q 258 56 218 61 q 262 104 262 85 q 251 153 262 131 q 210 204 241 174 q 300 264 274 234 q 334 348 334 302 q 319 401 334 378 q 271 452 305 425 q 359 507 334 481 q 406 585 385 532 q 289 553 332 576 q 237 527 246 530 q 210 523 227 523 q 155 545 177 523 q 134 598 134 566 q 154 650 134 629 q 206 671 175 671 q 294 647 241 671 q 363 619 347 624 q 416 610 380 614 q 426 681 426 657 q 419 745 426 701 q 412 821 412 789 q 442 907 412 874 q 513 941 473 941 q 565 919 544 941 q 586 865 586 897 q 576 817 586 840 q 530 749 566 794 q 478 679 493 703 q 442 610 463 654 q 495 620 478 614 q 545 644 512 626 q 625 669 592 669 q 684 648 663 669 q 705 595 705 627 q 685 542 705 562 q 632 522 665 522 q 556 544 600 522 q 493 572 512 566 q 434 585 475 578 z "},"·":{"ha":347,"x_min":105,"x_max":328,"o":"m 217 574 q 296 541 263 574 q 328 462 328 508 q 296 383 328 416 q 217 351 263 351 q 138 383 170 351 q 105 462 105 416 q 138 541 105 508 q 217 574 170 574 z "},"∙":{"ha":347,"x_min":105,"x_max":328,"o":"m 217 574 q 296 541 263 574 q 328 462 328 508 q 296 383 328 416 q 217 351 263 351 q 138 383 170 351 q 105 462 105 416 q 138 541 105 508 q 217 574 170 574 z "},"‚":{"ha":463,"x_min":19,"x_max":302,"o":"m 35 -223 l 19 -195 q 148 -105 123 -136 q 168 -58 168 -81 q 133 1 168 -31 q 86 56 98 33 q 77 99 77 73 q 110 175 77 143 q 190 207 143 207 q 269 171 235 207 q 302 81 302 135 q 238 -85 302 -3 q 35 -223 173 -168 z "},"„":{"ha":694,"x_min":-41,"x_max":544,"o":"m -24 -222 l -41 -194 q 87 -107 56 -144 q 109 -55 109 -81 q 71 3 109 -31 q 18 96 18 50 q 52 175 18 142 q 130 209 85 209 q 210 172 175 209 q 245 81 245 135 q 188 -74 245 -2 q -24 -222 116 -165 m 276 -224 l 260 -197 q 387 -107 355 -146 q 409 -57 409 -81 q 374 -1 409 -33 q 328 56 340 32 q 319 95 319 73 q 351 173 319 140 q 431 205 384 205 q 511 171 479 205 q 544 81 544 136 q 492 -69 544 -3 q 276 -224 423 -158 z "},"‰":{"ha":1389,"x_min":35,"x_max":1364,"o":"m 962 941 l 117 -37 l 35 -37 l 879 941 l 962 941 m 258 442 q 144 489 189 442 q 100 623 100 536 q 183 846 100 754 q 363 939 267 939 q 480 891 435 939 q 526 762 526 844 q 443 535 526 627 q 258 442 361 442 m 258 478 q 291 490 276 478 q 329 545 313 509 q 381 713 345 581 q 409 848 409 812 q 396 888 409 873 q 364 903 382 903 q 317 877 340 903 q 270 771 294 851 q 216 526 216 592 q 229 492 216 505 q 258 478 242 478 m 620 -38 q 509 11 555 -38 q 464 138 464 60 q 555 373 464 269 q 728 458 631 458 q 846 411 800 458 q 892 284 892 363 q 807 57 892 152 q 620 -38 721 -38 m 625 0 q 659 12 644 0 q 698 68 681 28 q 753 251 710 98 q 776 370 776 332 q 761 408 776 393 q 726 423 746 423 q 684 398 705 423 q 633 277 663 372 q 581 49 581 104 q 593 13 581 26 q 625 0 606 0 m 1096 -38 q 982 9 1027 -38 q 937 138 937 56 q 1020 365 937 272 q 1200 458 1103 458 q 1318 411 1272 458 q 1364 281 1364 364 q 1281 54 1364 146 q 1096 -38 1198 -38 m 1096 0 q 1132 10 1118 0 q 1169 65 1152 26 q 1225 249 1181 94 q 1249 369 1249 331 q 1234 407 1249 393 q 1200 422 1220 422 q 1156 397 1177 422 q 1106 274 1136 373 q 1055 46 1055 102 q 1066 12 1055 24 q 1096 0 1078 0 z "},"Â":{"ha":926,"x_min":-79,"x_max":951,"o":"m 563 296 l 278 296 l 221 226 l 156 148 q 128 102 137 123 q 121 71 121 87 q 139 41 121 55 q 196 25 156 27 l 196 0 l -79 0 l -72 25 q -7 51 -35 31 q 102 163 31 78 l 754 941 l 785 941 l 754 188 q 752 117 752 129 q 771 50 752 71 q 833 25 789 28 l 826 0 l 428 0 l 435 25 q 503 35 494 31 q 538 74 522 44 q 557 179 553 104 l 563 296 m 563 352 l 581 652 l 325 352 l 563 352 m 728 1216 l 882 1216 l 951 985 l 882 985 l 791 1123 l 592 985 l 521 985 l 728 1216 z "},"Ê":{"ha":926,"x_min":-49,"x_max":944,"o":"m 525 869 l 422 512 l 454 512 q 634 545 577 512 q 730 660 690 577 l 755 660 l 652 302 l 628 302 q 634 360 634 338 q 612 421 634 397 q 555 455 590 445 q 459 462 532 462 l 406 462 l 318 153 q 307 93 307 113 q 321 68 307 77 q 404 54 343 54 q 622 103 519 54 q 806 252 724 153 l 833 252 l 738 0 l -49 0 l -41 25 q 60 51 28 25 q 118 166 92 77 l 291 758 q 305 836 305 808 q 287 876 305 862 q 203 895 269 890 l 211 920 l 944 920 l 885 690 l 861 690 q 840 785 858 758 q 764 849 811 829 q 611 869 717 869 l 525 869 m 606 1216 l 760 1216 l 829 985 l 760 985 l 669 1123 l 469 985 l 398 985 l 606 1216 z "},"Á":{"ha":926,"x_min":-79,"x_max":1024,"o":"m 563 296 l 278 296 l 221 226 l 156 148 q 128 102 137 123 q 121 71 121 87 q 139 41 121 55 q 196 25 156 27 l 196 0 l -79 0 l -72 25 q -7 51 -35 31 q 102 163 31 78 l 754 941 l 785 941 l 754 188 q 752 117 752 129 q 771 50 752 71 q 833 25 789 28 l 826 0 l 428 0 l 435 25 q 503 35 494 31 q 538 74 522 44 q 557 179 553 104 l 563 296 m 563 352 l 581 652 l 325 352 l 563 352 m 815 1212 l 1024 1212 l 795 975 l 734 975 l 815 1212 z "},"Ë":{"ha":926,"x_min":-49,"x_max":944,"o":"m 525 869 l 422 512 l 454 512 q 634 545 577 512 q 730 660 690 577 l 755 660 l 652 302 l 628 302 q 634 360 634 338 q 612 421 634 397 q 555 455 590 445 q 459 462 532 462 l 406 462 l 318 153 q 307 93 307 113 q 321 68 307 77 q 404 54 343 54 q 622 103 519 54 q 806 252 724 153 l 833 252 l 738 0 l -49 0 l -41 25 q 60 51 28 25 q 118 166 92 77 l 291 758 q 305 836 305 808 q 287 876 305 862 q 203 895 269 890 l 211 920 l 944 920 l 885 690 l 861 690 q 840 785 858 758 q 764 849 811 829 q 611 869 717 869 l 525 869 m 520 1182 q 584 1156 557 1182 q 610 1092 610 1129 q 584 1028 610 1055 q 520 1002 557 1002 q 456 1028 483 1002 q 430 1092 430 1055 q 456 1156 430 1129 q 520 1182 483 1182 m 772 1181 q 836 1155 810 1181 q 862 1092 862 1128 q 836 1028 862 1055 q 772 1002 809 1002 q 709 1028 735 1002 q 683 1092 683 1055 q 709 1155 683 1128 q 772 1181 735 1181 z "},"È":{"ha":926,"x_min":-49,"x_max":944,"o":"m 525 869 l 422 512 l 454 512 q 634 545 577 512 q 730 660 690 577 l 755 660 l 652 302 l 628 302 q 634 360 634 338 q 612 421 634 397 q 555 455 590 445 q 459 462 532 462 l 406 462 l 318 153 q 307 93 307 113 q 321 68 307 77 q 404 54 343 54 q 622 103 519 54 q 806 252 724 153 l 833 252 l 738 0 l -49 0 l -41 25 q 60 51 28 25 q 118 166 92 77 l 291 758 q 305 836 305 808 q 287 876 305 862 q 203 895 269 890 l 211 920 l 944 920 l 885 690 l 861 690 q 840 785 858 758 q 764 849 811 829 q 611 869 717 869 l 525 869 m 430 1226 l 629 1226 l 702 991 l 649 991 l 430 1226 z "},"Í":{"ha":541,"x_min":-49,"x_max":701,"o":"m 192 895 l 199 920 l 648 920 l 640 895 q 546 867 578 895 q 490 754 514 840 l 321 165 q 303 82 303 103 q 322 44 303 58 q 414 25 347 26 l 408 0 l -49 0 l -41 25 q 59 51 27 25 q 117 165 91 77 l 286 754 q 302 836 302 808 q 283 876 302 861 q 192 895 264 890 m 492 1212 l 701 1212 l 472 975 l 411 975 l 492 1212 z "},"Î":{"ha":541,"x_min":-49,"x_max":650,"o":"m 192 895 l 199 920 l 648 920 l 640 895 q 546 867 578 895 q 490 754 514 840 l 321 165 q 303 82 303 103 q 322 44 303 58 q 414 25 347 26 l 408 0 l -49 0 l -41 25 q 59 51 27 25 q 117 165 91 77 l 286 754 q 302 836 302 808 q 283 876 302 861 q 192 895 264 890 m 427 1216 l 581 1216 l 650 985 l 581 985 l 490 1123 l 291 985 l 220 985 l 427 1216 z "},"Ï":{"ha":541,"x_min":-49,"x_max":675,"o":"m 192 895 l 199 920 l 648 920 l 640 895 q 546 867 578 895 q 490 754 514 840 l 321 165 q 303 82 303 103 q 322 44 303 58 q 414 25 347 26 l 408 0 l -49 0 l -41 25 q 59 51 27 25 q 117 165 91 77 l 286 754 q 302 836 302 808 q 283 876 302 861 q 192 895 264 890 m 334 1182 q 397 1156 371 1182 q 424 1092 424 1129 q 397 1028 424 1055 q 334 1002 371 1002 q 270 1028 296 1002 q 243 1092 243 1055 q 270 1156 243 1129 q 334 1182 296 1182 m 586 1181 q 649 1155 623 1181 q 675 1092 675 1128 q 649 1028 675 1055 q 586 1002 623 1002 q 523 1028 549 1002 q 496 1092 496 1055 q 523 1155 496 1128 q 586 1181 549 1181 z "},"Ì":{"ha":541,"x_min":-49,"x_max":648,"o":"m 192 895 l 199 920 l 648 920 l 640 895 q 546 867 578 895 q 490 754 514 840 l 321 165 q 303 82 303 103 q 322 44 303 58 q 414 25 347 26 l 408 0 l -49 0 l -41 25 q 59 51 27 25 q 117 165 91 77 l 286 754 q 302 836 302 808 q 283 876 302 861 q 192 895 264 890 m 276 1226 l 475 1226 l 548 991 l 495 991 l 276 1226 z "},"Ó":{"ha":1003,"x_min":74,"x_max":998,"o":"m 391 -22 q 211 24 279 -22 q 108 148 142 69 q 74 301 74 227 q 160 605 74 452 q 392 849 246 758 q 681 941 538 941 q 839 899 764 941 q 956 782 914 857 q 998 630 998 707 q 888 286 998 458 q 643 36 779 113 q 391 -22 540 -22 m 659 886 q 567 866 605 886 q 489 802 530 847 q 406 672 448 756 q 327 442 364 587 q 290 200 290 297 q 326 75 290 117 q 418 33 362 33 q 545 82 493 33 q 714 371 649 180 q 780 709 780 561 q 745 844 780 802 q 659 886 710 886 m 680 1232 l 888 1232 l 660 994 l 599 994 l 680 1232 z "},"Ô":{"ha":1003,"x_min":74,"x_max":998,"o":"m 391 -22 q 211 24 279 -22 q 108 148 142 69 q 74 301 74 227 q 160 605 74 452 q 392 849 246 758 q 681 941 538 941 q 839 899 764 941 q 956 782 914 857 q 998 630 998 707 q 888 286 998 458 q 643 36 779 113 q 391 -22 540 -22 m 659 886 q 567 866 605 886 q 489 802 530 847 q 406 672 448 756 q 327 442 364 587 q 290 200 290 297 q 326 75 290 117 q 418 33 362 33 q 545 82 493 33 q 714 371 649 180 q 780 709 780 561 q 745 844 780 802 q 659 886 710 886 m 651 1199 l 805 1199 l 874 968 l 805 968 l 714 1106 l 515 968 l 444 968 l 651 1199 z "},"Ò":{"ha":1003,"x_min":74,"x_max":998,"o":"m 391 -22 q 211 24 279 -22 q 108 148 142 69 q 74 301 74 227 q 160 605 74 452 q 392 849 246 758 q 681 941 538 941 q 839 899 764 941 q 956 782 914 857 q 998 630 998 707 q 888 286 998 458 q 643 36 779 113 q 391 -22 540 -22 m 659 886 q 567 866 605 886 q 489 802 530 847 q 406 672 448 756 q 327 442 364 587 q 290 200 290 297 q 326 75 290 117 q 418 33 362 33 q 545 82 493 33 q 714 371 649 180 q 780 709 780 561 q 745 844 780 802 q 659 886 710 886 m 499 1226 l 699 1226 l 771 991 l 718 991 l 499 1226 z "},"Ú":{"ha":1003,"x_min":130,"x_max":1123,"o":"m 812 920 l 1123 920 l 1117 895 q 1034 869 1063 890 q 964 755 987 834 l 842 333 q 688 57 785 136 q 439 -21 590 -21 q 289 3 354 -21 q 193 58 224 28 q 146 134 163 89 q 130 210 130 179 q 157 352 130 258 l 274 755 q 290 836 290 809 q 270 876 290 861 q 180 895 251 890 l 188 920 l 646 920 l 638 895 q 537 866 572 895 q 478 755 502 838 l 361 352 q 332 190 332 251 q 376 93 332 134 q 501 52 421 52 q 626 78 574 52 q 711 153 677 105 q 791 338 755 218 l 911 755 q 921 814 921 791 q 891 879 921 857 q 804 895 870 895 l 812 920 m 663 1232 l 871 1232 l 643 994 l 582 994 l 663 1232 z "},"Û":{"ha":1003,"x_min":130,"x_max":1123,"o":"m 812 920 l 1123 920 l 1117 895 q 1034 869 1063 890 q 964 755 987 834 l 842 333 q 688 57 785 136 q 439 -21 590 -21 q 289 3 354 -21 q 193 58 224 28 q 146 134 163 89 q 130 210 130 179 q 157 352 130 258 l 274 755 q 290 836 290 809 q 270 876 290 861 q 180 895 251 890 l 188 920 l 646 920 l 638 895 q 537 866 572 895 q 478 755 502 838 l 361 352 q 332 190 332 251 q 376 93 332 134 q 501 52 421 52 q 626 78 574 52 q 711 153 677 105 q 791 338 755 218 l 911 755 q 921 814 921 791 q 891 879 921 857 q 804 895 870 895 l 812 920 m 630 1199 l 784 1199 l 853 968 l 784 968 l 693 1106 l 494 968 l 422 968 l 630 1199 z "},"Ù":{"ha":1003,"x_min":130,"x_max":1123,"o":"m 812 920 l 1123 920 l 1117 895 q 1034 869 1063 890 q 964 755 987 834 l 842 333 q 688 57 785 136 q 439 -21 590 -21 q 289 3 354 -21 q 193 58 224 28 q 146 134 163 89 q 130 210 130 179 q 157 352 130 258 l 274 755 q 290 836 290 809 q 270 876 290 861 q 180 895 251 890 l 188 920 l 646 920 l 638 895 q 537 866 572 895 q 478 755 502 838 l 361 352 q 332 190 332 251 q 376 93 332 134 q 501 52 421 52 q 626 78 574 52 q 711 153 677 105 q 791 338 755 218 l 911 755 q 921 814 921 791 q 891 879 921 857 q 804 895 870 895 l 812 920 m 507 1226 l 706 1226 l 779 991 l 726 991 l 507 1226 z "},"ı":{"ha":386,"x_min":31,"x_max":357,"o":"m 357 629 l 218 146 q 206 92 206 105 q 212 78 206 85 q 225 72 218 72 q 248 82 237 72 q 321 173 279 107 l 345 159 q 127 -19 242 -19 q 57 6 83 -19 q 31 68 31 31 q 42 132 31 94 l 136 456 q 150 527 150 503 q 137 553 150 542 q 102 565 124 565 q 77 564 92 565 l 86 591 l 316 629 l 357 629 z "},"ˆ":{"ha":463,"x_min":102,"x_max":533,"o":"m 310 941 l 464 941 l 533 710 l 464 710 l 373 848 l 174 710 l 102 710 l 310 941 z "},"˜":{"ha":463,"x_min":123,"x_max":553,"o":"m 510 920 l 553 920 q 512 779 551 826 q 422 731 472 731 q 279 775 375 731 q 220 793 239 793 q 187 779 201 793 q 168 732 173 765 l 123 732 q 169 874 129 829 q 260 920 209 920 q 404 876 313 920 q 458 859 441 859 q 492 872 479 859 q 510 920 506 886 z "},"ˉ":{"ha":463,"x_min":114,"x_max":616,"o":"m 146 850 l 616 850 l 583 740 l 114 740 l 146 850 z "},"˘":{"ha":463,"x_min":184,"x_max":560,"o":"m 199 941 l 220 941 q 264 856 231 883 q 359 829 298 829 q 534 941 472 829 l 560 941 q 465 760 526 816 q 335 705 404 705 q 227 748 269 705 q 184 863 184 791 q 199 941 184 896 z "},"˙":{"ha":463,"x_min":268,"x_max":468,"o":"m 368 920 q 439 891 410 920 q 468 820 468 862 q 439 749 468 779 q 368 720 410 720 q 297 749 327 720 q 268 820 268 779 q 297 891 268 862 q 368 920 326 920 z "},"˚":{"ha":463,"x_min":228,"x_max":510,"o":"m 369 967 q 469 926 428 967 q 510 826 510 884 q 469 726 510 768 q 369 685 428 685 q 269 726 311 685 q 228 826 228 768 q 269 926 228 884 q 369 967 310 967 m 369 916 q 305 890 332 916 q 279 826 279 863 q 305 762 279 789 q 369 736 332 736 q 433 762 407 736 q 460 826 460 789 q 433 890 460 863 q 369 916 407 916 z "},"¸":{"ha":463,"x_min":7,"x_max":316,"o":"m 202 0 l 254 0 l 207 -35 q 289 -71 262 -43 q 316 -138 316 -99 q 274 -220 316 -186 q 138 -255 231 -255 q 7 -235 63 -255 l 16 -214 q 92 -223 66 -223 q 161 -202 137 -223 q 186 -153 186 -182 q 170 -114 186 -130 q 134 -98 155 -98 q 97 -103 119 -98 l 88 -83 l 202 0 z "},"˝":{"ha":463,"x_min":195,"x_max":626,"o":"m 408 941 l 249 706 l 195 706 l 237 941 l 408 941 m 626 941 l 469 706 l 414 706 l 461 941 l 626 941 z "},"˛":{"ha":463,"x_min":-1,"x_max":309,"o":"m 309 41 q 198 -37 252 16 q 127 -144 142 -93 q 123 -167 123 -156 q 157 -216 123 -203 q 185 -220 170 -220 q 254 -197 219 -220 l 262 -214 q 97 -300 169 -300 q 15 -267 42 -300 q -1 -221 -1 -248 q 44 -118 -1 -172 q 276 41 136 -7 l 309 41 z "},"ˇ":{"ha":463,"x_min":151,"x_max":581,"o":"m 581 941 l 402 708 l 224 708 l 151 941 l 233 941 l 328 801 l 494 941 l 581 941 z "},"Ł":{"ha":848,"x_min":-38,"x_max":798,"o":"m 695 0 l -38 0 l -31 25 q 65 51 35 25 q 120 165 95 76 l 170 340 l 8 231 l 30 308 l 192 416 l 290 755 q 305 832 305 805 q 283 876 305 859 q 204 895 261 893 l 211 920 l 653 920 l 646 895 q 549 869 579 895 q 494 755 519 843 l 445 586 l 624 707 l 601 629 l 424 511 l 338 216 q 310 90 310 117 q 325 64 310 76 q 374 52 340 52 q 586 103 482 52 q 770 260 690 153 l 798 260 l 695 0 z "},"ł":{"ha":386,"x_min":0,"x_max":441,"o":"m 441 941 l 330 565 l 422 625 l 403 560 l 311 500 l 217 178 q 197 92 197 109 q 203 78 197 84 q 215 72 208 72 q 237 80 227 72 q 311 172 267 104 l 336 158 q 212 12 275 57 q 120 -19 168 -19 q 49 5 75 -19 q 22 63 22 29 q 38 143 22 92 l 104 368 l 0 302 l 20 368 l 124 433 l 222 768 q 237 837 237 820 q 223 862 237 852 q 165 873 204 876 l 172 901 l 403 941 l 441 941 z "},"Š":{"ha":772,"x_min":-31,"x_max":810,"o":"m 810 941 l 734 629 l 711 629 q 685 746 704 702 q 609 844 656 810 q 507 879 562 879 q 415 839 454 879 q 375 747 375 798 q 402 649 375 697 q 532 503 430 600 q 643 368 614 425 q 671 246 671 312 q 631 110 671 172 q 517 13 592 47 q 347 -21 442 -21 q 200 -4 289 -21 q 83 14 112 14 q 41 6 60 14 q -4 -21 23 -1 l -31 -21 l 52 330 l 77 330 q 115 173 86 237 q 196 72 143 108 q 317 35 249 35 q 429 80 384 35 q 474 184 474 124 q 449 281 474 235 q 333 418 423 328 q 208 578 242 507 q 182 689 182 630 q 263 866 182 791 q 474 941 344 941 q 629 914 533 941 q 709 899 686 899 q 744 907 728 899 q 781 941 760 916 l 810 941 m 746 1218 l 567 985 l 389 985 l 316 1218 l 397 1218 l 493 1078 l 659 1218 l 746 1218 z "},"š":{"ha":541,"x_min":-1,"x_max":581,"o":"m 517 629 l 487 419 l 462 419 q 412 547 456 500 q 317 594 368 594 q 265 576 286 594 q 245 532 245 557 q 254 491 245 510 q 293 439 262 472 q 423 281 400 324 q 446 188 446 237 q 419 86 446 134 q 338 10 392 39 q 226 -19 284 -19 q 129 -3 186 -19 q 72 7 91 7 q 45 2 55 7 q 24 -19 36 -3 l -1 -19 l 33 207 l 54 207 q 99 90 78 125 q 154 34 119 55 q 220 14 189 14 q 282 37 258 14 q 307 93 307 60 q 291 155 307 125 q 217 248 275 184 q 113 380 138 334 q 95 458 95 414 q 148 580 95 531 q 298 629 201 629 q 401 614 340 629 q 450 606 431 606 q 492 629 476 606 l 517 629 m 581 941 l 402 708 l 224 708 l 151 941 l 233 941 l 328 801 l 494 941 l 581 941 z "},"Ž":{"ha":848,"x_min":-38,"x_max":943,"o":"m 943 895 l 239 50 l 294 50 q 559 99 459 50 q 743 259 659 147 l 772 259 l 675 0 l -38 0 l -38 25 l 665 867 l 578 867 q 333 826 413 867 q 196 686 253 785 l 169 686 l 248 920 l 943 920 l 943 895 m 831 1218 l 652 985 l 473 985 l 401 1218 l 482 1218 l 578 1078 l 744 1218 l 831 1218 z "},"ž":{"ha":541,"x_min":-14,"x_max":581,"o":"m 551 610 l 166 155 q 231 116 210 142 q 270 15 258 82 q 298 -71 282 -53 q 330 -89 313 -89 q 350 -79 340 -89 q 359 -57 359 -69 q 351 -15 359 -44 q 346 23 346 5 q 370 87 346 61 q 428 113 394 113 q 479 90 458 113 q 500 31 500 67 q 448 -72 500 -26 q 321 -118 397 -118 q 151 -38 235 -118 q 96 5 117 -6 q 65 12 84 12 q 29 0 49 12 l -14 0 l 379 467 l 238 467 q 151 452 178 467 q 100 393 124 437 l 71 393 l 127 610 l 551 610 m 581 941 l 402 708 l 224 708 l 151 941 l 233 941 l 328 801 l 494 941 l 581 941 z "},"¦":{"ha":306,"x_min":108,"x_max":196,"o":"m 108 446 l 108 941 l 196 941 l 196 446 l 108 446 m 108 -300 l 108 196 l 196 196 l 196 -300 l 108 -300 z "},"Ð":{"ha":1003,"x_min":-45,"x_max":983,"o":"m 200 920 l 511 920 q 872 818 761 920 q 983 536 983 717 q 931 321 983 408 q 692 76 830 151 q 339 0 555 0 l -45 0 l -38 26 q 60 52 28 26 q 115 155 92 77 l 200 458 l 81 458 l 96 510 l 217 510 l 281 736 q 302 838 302 809 q 280 880 302 863 q 192 897 258 897 l 200 920 m 525 867 l 420 510 l 629 510 l 614 458 l 406 458 l 321 168 q 309 103 309 123 q 327 66 309 81 q 390 51 346 51 q 657 229 547 51 q 753 577 753 383 q 687 798 753 725 q 525 867 621 871 z "},"ð":{"ha":694,"x_min":35,"x_max":675,"o":"m 471 774 l 326 696 l 307 734 l 456 817 q 424 880 435 863 q 393 924 414 897 l 412 941 q 512 846 459 904 l 655 924 l 675 884 l 538 812 q 656 459 656 644 q 606 246 656 346 q 507 109 568 169 q 376 15 446 50 q 237 -19 306 -19 q 88 33 141 -19 q 35 174 35 84 q 91 386 35 283 q 238 549 146 488 q 399 610 330 610 q 496 579 448 610 q 491 681 496 642 q 471 774 486 720 m 421 574 q 359 551 386 574 q 264 374 314 510 q 201 94 201 201 q 219 36 201 56 q 264 16 237 16 q 322 41 294 16 q 418 212 374 88 q 481 496 481 391 q 465 554 481 534 q 421 574 448 574 z "},"Ý":{"ha":848,"x_min":129,"x_max":996,"o":"m 368 406 l 290 741 q 243 860 271 828 q 166 895 222 884 l 174 920 l 615 920 l 607 895 q 513 868 543 895 q 484 806 484 842 q 496 728 484 784 l 555 456 l 704 661 q 775 772 761 740 q 789 829 789 804 q 771 871 789 853 q 712 895 753 890 l 720 920 l 996 920 l 996 895 q 931 870 958 890 q 825 741 904 850 l 564 382 l 503 169 q 484 92 484 103 q 506 44 484 63 q 581 25 528 25 l 607 25 l 600 0 l 129 0 l 136 25 q 218 39 187 24 q 265 77 250 54 q 297 163 276 93 l 368 406 m 706 1212 l 915 1212 l 686 975 l 625 975 l 706 1212 z "},"ý":{"ha":616,"x_min":-130,"x_max":650,"o":"m 35 568 l 244 629 q 279 570 269 597 q 305 437 298 522 q 325 81 319 270 q 491 334 397 176 q 519 423 519 381 q 487 473 519 450 q 446 510 454 497 q 437 545 437 524 q 462 604 437 578 q 522 629 487 629 q 587 600 559 629 q 614 533 614 572 q 589 428 614 488 q 470 222 564 368 q 235 -101 350 35 q 115 -226 161 -188 q 21 -287 70 -264 q -37 -300 -8 -300 q -103 -273 -75 -300 q -130 -208 -130 -245 q -105 -145 -130 -171 q -47 -119 -81 -119 q 28 -163 -6 -119 q 66 -192 52 -192 q 97 -183 82 -192 q 154 -133 117 -172 q 158 -5 158 -48 q 153 159 158 54 l 141 418 q 111 520 135 489 q 61 543 92 543 q 35 541 50 543 l 35 568 m 441 941 l 650 941 l 421 703 l 360 703 l 441 941 z "},"Þ":{"ha":848,"x_min":-43,"x_max":837,"o":"m 475 713 l 505 713 q 623 707 588 713 q 736 671 690 697 q 809 599 782 644 q 837 500 837 553 q 788 349 837 419 q 653 242 740 279 q 370 206 566 206 l 328 206 l 321 182 q 300 83 300 109 q 319 45 300 60 q 402 25 338 31 l 396 0 l -43 0 l -35 25 q 62 51 31 26 q 117 158 94 76 l 285 736 q 306 840 306 808 q 286 879 306 864 q 203 895 266 893 l 211 920 l 650 920 l 642 895 q 547 870 579 895 q 490 765 514 844 l 475 713 m 458 659 l 343 260 q 483 274 446 260 q 581 364 538 295 q 623 524 623 433 q 602 606 623 574 q 543 651 581 638 q 458 659 521 659 z "},"þ":{"ha":694,"x_min":-170,"x_max":659,"o":"m 170 903 l 440 941 l 319 518 q 435 606 390 583 q 526 629 481 629 q 624 579 589 629 q 659 459 659 530 q 531 123 659 264 q 262 -19 404 -19 q 218 -14 236 -19 q 170 7 201 -9 l 136 -115 q 117 -219 117 -185 q 132 -252 117 -239 q 201 -273 147 -265 l 195 -300 l -170 -300 l -163 -273 q -91 -246 -119 -272 q -37 -130 -62 -220 l 220 753 q 237 842 237 814 q 232 862 237 854 q 216 873 227 870 q 170 876 205 877 l 170 903 m 190 70 q 227 25 210 37 q 264 14 243 14 q 340 55 300 14 q 441 222 403 117 q 479 431 479 328 q 460 507 479 483 q 415 530 441 530 q 370 518 391 530 q 298 452 340 500 l 190 70 z "},"−":{"ha":842,"x_min":49,"x_max":790,"o":"m 49 505 l 790 505 l 790 415 l 49 415 l 49 505 z "},"×":{"ha":791,"x_min":104,"x_max":692,"o":"m 168 754 l 398 524 l 629 753 l 691 691 l 461 460 l 692 230 l 629 167 l 398 397 l 169 169 l 106 231 l 335 460 l 104 691 l 168 754 z "},"¹":{"ha":416,"x_min":83,"x_max":448,"o":"m 448 939 l 313 538 q 304 501 304 509 q 309 486 304 494 q 321 477 314 479 q 356 473 331 473 l 380 471 l 373 450 l 83 450 l 91 471 q 164 484 148 473 q 196 542 180 494 l 275 777 q 295 848 295 837 q 287 869 295 861 q 262 877 279 877 q 214 873 250 877 l 209 895 l 448 939 z "},"²":{"ha":416,"x_min":68,"x_max":477,"o":"m 371 450 l 68 450 l 68 469 q 329 711 274 633 q 356 793 356 750 q 336 843 356 825 q 283 862 317 862 q 192 807 232 862 l 165 818 q 233 908 189 878 q 335 939 277 939 q 439 905 400 939 q 477 830 477 871 q 427 717 477 774 q 212 538 376 660 l 301 538 q 368 548 351 538 q 404 588 385 557 l 439 588 l 371 450 z "},"³":{"ha":416,"x_min":75,"x_max":467,"o":"m 169 706 l 176 728 q 321 777 274 740 q 352 835 352 802 q 336 872 352 857 q 294 887 320 887 q 256 877 274 887 q 216 840 239 867 l 187 852 q 258 918 222 898 q 340 939 293 939 q 433 910 399 939 q 467 847 467 882 q 439 783 467 809 q 339 737 404 747 q 397 697 381 718 q 421 625 421 665 q 353 498 421 555 q 175 440 285 440 q 93 458 119 440 q 75 489 75 471 q 87 515 75 506 q 128 530 104 530 q 193 504 151 530 q 243 486 224 486 q 281 508 264 486 q 305 583 305 538 q 262 678 305 644 q 169 706 235 700 z "},"½":{"ha":1042,"x_min":82,"x_max":963,"o":"m 892 939 l 239 -40 l 150 -40 l 800 939 l 892 939 m 447 939 l 312 538 q 302 501 302 509 q 308 486 302 494 q 319 477 313 479 q 355 473 330 473 q 379 471 355 473 l 372 450 l 82 450 l 90 471 q 163 484 146 473 q 195 542 179 494 l 273 777 q 294 848 294 837 q 286 869 294 861 q 260 877 277 877 q 213 873 248 877 l 208 895 l 447 939 m 857 -31 l 553 -31 l 553 -12 q 796 208 725 125 q 842 313 842 261 q 822 363 842 344 q 769 382 802 382 q 677 326 718 382 l 650 338 q 718 428 674 397 q 821 458 762 458 q 924 425 886 458 q 963 349 963 391 q 912 237 963 294 q 697 58 861 179 l 786 58 q 853 67 836 58 q 889 108 870 77 l 924 108 l 857 -31 z "},"¼":{"ha":1042,"x_min":82,"x_max":979,"o":"m 925 939 l 272 -40 l 182 -40 l 833 939 l 925 939 m 447 939 l 312 538 q 302 501 302 509 q 308 486 302 494 q 319 477 313 479 q 355 473 330 473 l 379 471 l 372 450 l 82 450 l 90 471 q 163 484 146 473 q 195 542 179 494 l 273 777 q 294 848 294 837 q 286 869 294 861 q 260 877 277 877 q 213 873 248 877 l 208 895 l 447 939 m 745 68 l 563 68 l 585 132 l 913 458 l 979 458 l 871 132 l 933 132 l 909 68 l 848 68 l 811 -40 l 708 -40 l 745 68 m 768 132 l 825 315 l 641 132 l 768 132 z "},"¾":{"ha":1042,"x_min":74,"x_max":979,"o":"m 925 939 l 272 -40 l 182 -40 l 832 939 l 925 939 m 168 706 l 175 728 q 319 777 273 740 q 351 835 351 802 q 335 872 351 857 q 293 887 319 887 q 255 877 273 887 q 214 840 237 867 l 186 852 q 256 918 221 898 q 338 939 292 939 q 431 910 397 939 q 465 847 465 882 q 438 783 465 809 q 338 737 402 747 q 395 697 380 718 q 420 625 420 665 q 352 498 420 555 q 174 440 283 440 q 92 458 118 440 q 74 489 74 471 q 85 515 74 506 q 127 530 103 530 q 192 504 149 530 q 242 486 223 486 q 280 508 262 486 q 304 583 304 538 q 261 678 304 644 q 168 706 233 700 m 744 68 l 563 68 l 584 132 l 912 458 l 979 458 l 870 132 l 933 132 l 909 68 l 848 68 l 811 -40 l 707 -40 l 744 68 m 767 132 l 824 315 l 640 132 l 767 132 z "},"₣":{"ha":694,"x_min":-95,"x_max":827,"o":"m 295 250 l 458 250 l 444 198 l 280 198 l 260 127 q 256 92 256 109 q 265 55 256 68 q 294 34 274 41 q 372 25 315 26 l 364 0 l -95 0 l -87 25 q 9 50 -21 25 q 64 158 40 75 l 77 198 l -41 198 l -26 250 l 91 250 l 229 721 q 254 835 254 810 q 234 875 254 859 q 151 895 214 892 l 157 920 l 827 920 l 766 677 l 740 677 q 717 790 736 753 q 652 847 697 827 q 507 868 606 868 l 473 868 l 372 521 q 518 555 473 528 q 610 663 576 592 l 637 663 l 532 300 l 505 300 q 512 357 512 336 q 480 440 512 412 q 358 470 448 469 l 295 250 z "},"Ğ":{"ha":1003,"x_min":96,"x_max":1038,"o":"m 1038 941 l 974 646 l 948 646 q 890 831 943 774 q 743 888 838 888 q 547 819 645 888 q 381 607 450 750 q 312 305 312 463 q 373 98 312 170 q 516 26 434 26 q 600 46 551 26 l 671 289 q 688 369 688 350 q 667 411 688 394 q 593 429 646 429 l 600 454 l 997 454 l 991 429 q 936 415 956 427 q 904 382 916 404 q 883 316 897 370 l 800 33 q 500 -21 657 -21 q 293 23 378 -21 q 152 163 208 67 q 96 380 96 258 q 328 810 96 641 q 739 941 509 941 q 812 937 779 941 q 901 918 838 933 q 956 907 941 907 q 1013 941 986 907 l 1038 941 m 616 1230 l 638 1230 q 682 1145 648 1172 q 777 1118 716 1118 q 951 1230 890 1118 l 978 1230 q 883 1049 943 1105 q 753 994 822 994 q 644 1037 687 994 q 602 1152 602 1080 q 616 1230 602 1185 z "},"ğ":{"ha":694,"x_min":-72,"x_max":718,"o":"m 537 587 l 718 587 l 696 513 l 602 513 q 624 437 624 473 q 590 323 624 375 q 491 239 557 271 q 346 208 426 208 q 299 211 325 208 q 244 220 274 214 q 188 183 199 197 q 180 163 180 174 q 190 142 180 151 q 242 119 208 127 q 425 71 380 90 q 516 7 485 46 q 547 -88 547 -33 q 469 -236 547 -173 q 227 -300 391 -300 q -16 -245 62 -300 q -72 -152 -72 -206 q -35 -75 -72 -111 q 123 -13 2 -40 q 68 29 82 10 q 48 83 48 55 q 84 163 48 128 q 206 231 121 197 q 110 299 140 258 q 81 397 81 341 q 116 509 81 456 q 221 595 152 562 q 381 629 291 629 q 484 616 439 629 q 537 587 507 609 m 395 595 q 339 574 362 595 q 275 463 302 541 q 248 315 248 385 q 267 262 248 281 q 315 243 286 243 q 363 262 342 243 q 430 381 401 299 q 458 529 458 463 q 440 577 458 559 q 395 595 422 595 m 161 -28 q 74 -83 97 -54 q 50 -146 50 -112 q 97 -225 50 -190 q 245 -261 143 -261 q 368 -230 330 -261 q 406 -158 406 -199 q 371 -98 406 -121 q 237 -50 336 -75 q 161 -28 191 -38 m 290 941 l 312 941 q 356 856 322 883 q 451 829 390 829 q 625 941 564 829 l 652 941 q 556 760 617 816 q 427 705 496 705 q 318 748 361 705 q 275 863 275 791 q 290 941 275 896 z "},"İ":{"ha":541,"x_min":-49,"x_max":648,"o":"m 192 895 l 199 920 l 648 920 l 640 895 q 546 867 578 895 q 490 754 514 840 l 321 165 q 303 82 303 103 q 322 44 303 58 q 414 25 347 26 l 408 0 l -49 0 l -41 25 q 59 51 27 25 q 117 165 91 77 l 286 754 q 302 836 302 808 q 283 876 302 861 q 192 895 264 890 m 451 1209 q 522 1180 492 1209 q 551 1109 551 1151 q 522 1038 551 1067 q 451 1009 492 1009 q 380 1038 410 1009 q 351 1109 351 1067 q 380 1180 351 1151 q 451 1209 409 1209 z "},"Ş":{"ha":772,"x_min":-31,"x_max":810,"o":"m 810 941 l 734 629 l 711 629 q 685 746 704 702 q 609 844 656 810 q 507 879 562 879 q 415 839 454 879 q 375 747 375 798 q 402 649 375 697 q 532 503 430 600 q 643 368 614 425 q 671 246 671 312 q 631 110 671 172 q 517 13 592 47 q 347 -21 442 -21 q 200 -4 289 -21 q 83 14 112 14 q 41 6 60 14 q -4 -21 23 -1 l -31 -21 l 52 330 l 77 330 q 115 173 86 237 q 196 72 143 108 q 317 35 249 35 q 429 80 384 35 q 474 184 474 124 q 449 281 474 235 q 333 418 423 328 q 208 578 242 507 q 182 689 182 630 q 263 866 182 791 q 474 941 344 941 q 629 914 533 941 q 709 899 686 899 q 744 907 728 899 q 781 941 760 916 l 810 941 m 303 0 l 355 0 l 308 -35 q 390 -71 363 -43 q 417 -138 417 -99 q 375 -220 417 -186 q 239 -255 332 -255 q 109 -235 164 -255 l 117 -214 q 193 -223 168 -223 q 262 -202 238 -223 q 287 -153 287 -182 q 271 -114 287 -130 q 235 -98 256 -98 q 198 -103 220 -98 l 189 -83 l 303 0 z "},"ş":{"ha":541,"x_min":-1,"x_max":517,"o":"m 517 629 l 487 419 l 462 419 q 412 547 456 500 q 317 594 368 594 q 265 576 286 594 q 245 532 245 557 q 254 491 245 510 q 293 439 262 472 q 423 281 400 324 q 446 188 446 237 q 419 86 446 134 q 338 10 392 39 q 226 -19 284 -19 q 129 -3 186 -19 q 72 7 91 7 q 45 2 55 7 q 24 -19 36 -3 l -1 -19 l 33 207 l 54 207 q 99 90 78 125 q 154 34 119 55 q 220 14 189 14 q 282 37 258 14 q 307 93 307 60 q 291 155 307 125 q 217 248 275 184 q 113 380 138 334 q 95 458 95 414 q 148 580 95 531 q 298 629 201 629 q 401 614 340 629 q 450 606 431 606 q 492 629 476 606 l 517 629 m 210 0 l 261 0 l 214 -35 q 297 -71 270 -43 q 323 -138 323 -99 q 281 -220 323 -186 q 146 -255 239 -255 q 15 -235 71 -255 l 23 -214 q 99 -223 74 -223 q 169 -202 144 -223 q 193 -153 193 -182 q 178 -114 193 -130 q 142 -98 162 -98 q 104 -103 127 -98 l 96 -83 l 210 0 z "},"Ć":{"ha":926,"x_min":91,"x_max":1001,"o":"m 1001 941 l 933 648 l 907 648 q 848 826 902 768 q 707 885 794 885 q 521 805 614 885 q 363 560 428 725 q 311 296 311 427 q 369 118 311 180 q 526 57 426 57 q 673 92 606 57 q 807 207 739 127 l 840 207 q 670 30 755 81 q 460 -21 584 -21 q 192 80 294 -21 q 91 342 91 180 q 172 632 91 494 q 404 856 252 770 q 705 941 555 941 q 847 916 762 941 q 907 904 890 904 q 976 941 941 904 l 1001 941 m 708 1212 l 917 1212 l 688 975 l 627 975 l 708 1212 z "},"ć":{"ha":616,"x_min":37,"x_max":658,"o":"m 522 163 l 542 145 q 412 30 476 66 q 237 -19 328 -19 q 129 7 176 -19 q 59 80 81 33 q 37 177 37 127 q 97 396 37 288 q 256 566 157 503 q 451 629 355 629 q 566 595 528 629 q 605 511 605 561 q 576 433 605 465 q 511 401 547 401 q 459 422 479 401 q 438 470 438 442 q 475 534 438 507 q 500 567 500 553 q 490 587 500 579 q 454 597 476 597 q 347 551 397 597 q 245 397 281 490 q 210 219 210 303 q 246 113 210 153 q 332 73 282 73 q 426 96 375 73 q 522 163 476 118 m 449 941 l 658 941 l 429 703 l 368 703 l 449 941 z "},"Č":{"ha":926,"x_min":91,"x_max":1001,"o":"m 1001 941 l 933 648 l 907 648 q 848 826 902 768 q 707 885 794 885 q 521 805 614 885 q 363 560 428 725 q 311 296 311 427 q 369 118 311 180 q 526 57 426 57 q 673 92 606 57 q 807 207 739 127 l 840 207 q 670 30 755 81 q 460 -21 584 -21 q 192 80 294 -21 q 91 342 91 180 q 172 632 91 494 q 404 856 252 770 q 705 941 555 941 q 847 916 762 941 q 907 904 890 904 q 976 941 941 904 l 1001 941 m 933 1218 l 754 985 l 576 985 l 503 1218 l 585 1218 l 680 1078 l 846 1218 l 933 1218 z "},"č":{"ha":616,"x_min":37,"x_max":707,"o":"m 522 163 l 542 145 q 412 30 476 66 q 237 -19 328 -19 q 129 7 176 -19 q 59 80 81 33 q 37 177 37 127 q 97 396 37 288 q 256 566 157 503 q 451 629 355 629 q 566 595 528 629 q 605 511 605 561 q 576 433 605 465 q 511 401 547 401 q 459 422 479 401 q 438 470 438 442 q 475 534 438 507 q 500 567 500 553 q 490 587 500 579 q 454 597 476 597 q 347 551 397 597 q 245 397 281 490 q 210 219 210 303 q 246 113 210 153 q 332 73 282 73 q 426 96 375 73 q 522 163 476 118 m 707 941 l 528 708 l 349 708 l 277 941 l 358 941 l 454 801 l 620 941 l 707 941 z "},"đ":{"ha":694,"x_min":28,"x_max":817,"o":"m 545 777 q 555 836 555 814 q 543 863 555 852 q 511 875 531 875 q 487 873 501 875 l 494 899 l 717 941 l 758 941 l 710 777 l 817 777 l 806 732 l 697 732 l 537 182 q 516 96 516 111 q 522 83 516 88 q 533 77 527 77 q 559 89 545 77 q 621 161 585 108 l 645 148 q 435 -19 549 -19 q 372 2 394 -19 q 350 57 350 24 q 368 148 350 89 l 388 217 q 241 18 303 67 q 149 -19 193 -19 q 63 22 98 -19 q 28 143 28 64 q 73 342 28 244 q 176 507 117 441 q 288 601 235 572 q 393 629 341 629 q 440 618 419 629 q 487 577 460 607 l 533 732 l 311 732 l 322 777 l 545 777 m 459 511 q 443 571 459 552 q 405 590 427 590 q 358 568 383 590 q 257 393 310 524 q 205 172 205 262 q 216 124 205 140 q 242 109 228 109 q 290 130 266 109 q 403 308 347 182 q 459 511 459 433 z "},"¯":{"ha":694,"x_min":174,"x_max":895,"o":"m 174 1080 l 895 1080 l 895 991 l 174 991 l 174 1080 z "},"Ă":{"ha":926,"x_min":-79,"x_max":1019,"o":"m 563 296 l 278 296 l 221 226 l 156 148 q 128 102 137 123 q 121 71 121 87 q 139 41 121 55 q 196 25 156 27 l 196 0 l -79 0 l -72 25 q -7 51 -35 31 q 102 163 31 78 l 754 941 l 785 941 l 754 188 q 752 117 752 129 q 771 50 752 71 q 833 25 789 28 l 826 0 l 428 0 l 435 25 q 503 35 494 31 q 538 74 522 44 q 557 179 553 104 l 563 296 m 563 352 l 581 652 l 325 352 l 563 352 m 658 1230 l 680 1230 q 724 1145 690 1172 q 819 1118 758 1118 q 993 1230 931 1118 l 1019 1230 q 924 1049 985 1105 q 794 994 863 994 q 686 1037 728 994 q 643 1152 643 1080 q 658 1230 643 1185 z "},"ă":{"ha":694,"x_min":27,"x_max":665,"o":"m 665 619 l 534 168 l 520 113 q 518 98 518 103 q 524 84 518 90 q 536 78 530 78 q 575 100 550 78 q 624 162 585 109 l 648 150 q 545 21 600 62 q 427 -19 490 -19 q 368 1 389 -19 q 348 52 348 21 q 370 150 348 78 l 386 205 q 235 14 307 70 q 145 -19 193 -19 q 55 32 83 -19 q 27 148 27 83 q 85 367 27 243 q 239 566 144 491 q 385 629 317 629 q 446 607 423 629 q 480 526 469 585 l 505 610 l 665 619 m 448 490 q 431 570 448 545 q 398 587 419 587 q 355 566 377 587 q 257 396 309 524 q 204 174 204 267 q 216 122 204 138 q 242 106 228 106 q 304 141 273 106 q 385 264 349 191 q 448 490 448 391 m 281 941 l 302 941 q 347 856 313 883 q 441 829 380 829 q 616 941 554 829 l 642 941 q 547 760 608 816 q 417 705 486 705 q 309 748 351 705 q 266 863 266 791 q 281 941 266 896 z "},"Ą":{"ha":926,"x_min":-79,"x_max":833,"o":"m 563 296 l 278 296 l 221 226 l 156 148 q 128 102 137 123 q 121 71 121 87 q 139 41 121 55 q 196 25 156 27 l 196 0 l -79 0 l -72 25 q -7 51 -35 31 q 102 163 31 78 l 754 941 l 785 941 l 754 188 q 752 117 752 129 q 771 50 752 71 q 833 25 789 28 l 826 0 l 428 0 l 435 25 q 503 35 494 31 q 538 74 522 44 q 557 179 553 104 l 563 296 m 563 352 l 581 652 l 325 352 l 563 352 m 757 41 q 646 -37 699 16 q 574 -144 589 -93 q 571 -167 571 -156 q 605 -216 571 -203 q 633 -220 618 -220 q 702 -197 667 -220 l 710 -214 q 545 -300 616 -300 q 463 -267 490 -300 q 447 -221 447 -248 q 492 -118 447 -172 q 724 41 584 -7 l 757 41 z "},"ą":{"ha":694,"x_min":27,"x_max":665,"o":"m 665 619 l 534 168 l 520 113 q 518 98 518 103 q 524 84 518 90 q 536 78 530 78 q 575 100 550 78 q 624 162 585 109 l 648 150 q 545 21 600 62 q 427 -19 490 -19 q 368 1 389 -19 q 348 52 348 21 q 370 150 348 78 l 386 205 q 235 14 307 70 q 145 -19 193 -19 q 55 32 83 -19 q 27 148 27 83 q 85 367 27 243 q 239 566 144 491 q 385 629 317 629 q 446 607 423 629 q 480 526 469 585 l 505 610 l 665 619 m 448 490 q 431 570 448 545 q 398 587 419 587 q 355 566 377 587 q 257 396 309 524 q 204 174 204 267 q 216 122 204 138 q 242 106 228 106 q 304 141 273 106 q 385 264 349 191 q 448 490 448 391 m 553 41 q 442 -37 496 16 q 371 -144 386 -93 q 368 -167 368 -156 q 401 -216 368 -203 q 429 -220 414 -220 q 498 -197 463 -220 l 507 -214 q 341 -300 413 -300 q 259 -267 286 -300 q 243 -221 243 -248 q 288 -118 243 -172 q 520 41 380 -7 l 553 41 z "},"Ď":{"ha":1003,"x_min":-50,"x_max":975,"o":"m -50 0 l -42 25 q 59 53 24 25 q 115 155 93 80 l 282 735 q 298 829 298 792 q 279 875 298 860 q 182 895 260 890 l 191 920 l 505 920 q 864 819 754 920 q 975 536 975 718 q 924 321 975 408 q 687 76 824 152 q 335 0 550 0 l -50 0 m 524 865 l 322 168 q 308 99 308 120 q 323 68 308 80 q 384 53 344 53 q 555 113 479 53 q 702 319 651 189 q 752 576 752 448 q 723 736 752 668 q 633 841 694 805 q 524 865 590 865 m 809 1218 l 630 985 l 452 985 l 379 1218 l 460 1218 l 556 1078 l 722 1218 l 809 1218 z "},"ď":{"ha":1040,"x_min":28,"x_max":1044,"o":"m 775 511 l 760 539 q 889 629 863 597 q 908 676 908 652 q 873 735 908 703 q 827 789 839 767 q 818 833 818 806 q 851 909 818 877 q 930 941 884 941 q 1010 905 976 941 q 1044 816 1044 869 q 979 648 1044 730 q 775 511 914 566 m 758 941 l 537 182 q 516 96 516 111 q 522 83 516 88 q 533 77 527 77 q 559 89 545 77 q 621 161 585 108 l 645 148 q 435 -19 549 -19 q 372 2 394 -19 q 350 57 350 24 q 368 148 350 89 l 388 217 q 241 18 303 67 q 149 -19 193 -19 q 63 22 98 -19 q 28 143 28 64 q 73 342 28 244 q 176 507 117 441 q 288 601 235 572 q 393 629 341 629 q 440 618 419 629 q 487 577 460 607 l 537 746 q 555 836 555 808 q 543 863 555 852 q 511 875 531 875 q 487 873 501 875 l 494 899 l 717 941 l 758 941 m 459 511 q 443 571 459 552 q 405 590 427 590 q 358 568 383 590 q 257 393 310 524 q 205 172 205 262 q 216 124 205 140 q 242 109 228 109 q 290 130 266 109 q 403 308 347 182 q 459 511 459 433 z "},"Đ":{"ha":1003,"x_min":-45,"x_max":983,"o":"m 200 920 l 511 920 q 872 818 761 920 q 983 536 983 717 q 931 321 983 408 q 692 76 830 151 q 339 0 555 0 l -45 0 l -38 26 q 60 52 28 26 q 115 155 92 77 l 200 458 l 81 458 l 96 510 l 217 510 l 281 736 q 302 838 302 809 q 280 880 302 863 q 192 897 258 897 l 200 920 m 525 867 l 420 510 l 629 510 l 614 458 l 406 458 l 321 168 q 309 103 309 123 q 327 66 309 81 q 390 51 346 51 q 657 229 547 51 q 753 577 753 383 q 687 798 753 725 q 525 867 621 871 z "},"Ę":{"ha":926,"x_min":-49,"x_max":944,"o":"m 525 869 l 422 512 l 454 512 q 634 545 577 512 q 730 660 690 577 l 755 660 l 652 302 l 628 302 q 634 360 634 338 q 612 421 634 397 q 555 455 590 445 q 459 462 532 462 l 406 462 l 318 153 q 307 93 307 113 q 321 68 307 77 q 404 54 343 54 q 622 103 519 54 q 806 252 724 153 l 833 252 l 738 0 l -49 0 l -41 25 q 60 51 28 25 q 118 166 92 77 l 291 758 q 305 836 305 808 q 287 876 305 862 q 203 895 269 890 l 211 920 l 944 920 l 885 690 l 861 690 q 840 785 858 758 q 764 849 811 829 q 611 869 717 869 l 525 869 m 743 41 q 632 -37 686 16 q 561 -144 576 -93 q 557 -167 557 -156 q 591 -216 557 -203 q 619 -220 604 -220 q 688 -197 653 -220 l 696 -214 q 531 -300 603 -300 q 449 -267 476 -300 q 433 -221 433 -248 q 478 -118 433 -172 q 710 41 570 -7 l 743 41 z "},"ę":{"ha":616,"x_min":31,"x_max":611,"o":"m 217 254 q 211 182 211 210 q 240 100 211 131 q 319 70 270 70 q 415 93 367 70 q 526 174 463 116 l 546 155 q 394 21 468 61 q 231 -19 320 -19 q 74 35 117 -19 q 31 161 31 90 q 95 383 31 272 q 272 562 160 494 q 496 629 383 629 q 582 602 553 629 q 611 533 611 574 q 583 437 611 484 q 484 334 543 373 q 350 275 424 295 q 217 254 300 261 m 223 290 q 316 314 283 298 q 380 362 349 329 q 435 447 412 396 q 458 543 458 498 q 447 573 458 562 q 420 584 437 584 q 347 538 388 584 q 223 290 273 456 m 418 41 q 307 -37 360 16 q 235 -144 250 -93 q 232 -167 232 -156 q 266 -216 232 -203 q 294 -220 279 -220 q 363 -197 328 -220 l 371 -214 q 205 -300 277 -300 q 123 -267 151 -300 q 108 -221 108 -248 q 153 -118 108 -172 q 385 41 245 -7 l 418 41 z "},"Ě":{"ha":926,"x_min":-49,"x_max":944,"o":"m 525 869 l 422 512 l 454 512 q 634 545 577 512 q 730 660 690 577 l 755 660 l 652 302 l 628 302 q 634 360 634 338 q 612 421 634 397 q 555 455 590 445 q 459 462 532 462 l 406 462 l 318 153 q 307 93 307 113 q 321 68 307 77 q 404 54 343 54 q 622 103 519 54 q 806 252 724 153 l 833 252 l 738 0 l -49 0 l -41 25 q 60 51 28 25 q 118 166 92 77 l 291 758 q 305 836 305 808 q 287 876 305 862 q 203 895 269 890 l 211 920 l 944 920 l 885 690 l 861 690 q 840 785 858 758 q 764 849 811 829 q 611 869 717 869 l 525 869 m 852 1218 l 673 985 l 495 985 l 422 1218 l 504 1218 l 600 1078 l 766 1218 l 852 1218 z "},"ě":{"ha":616,"x_min":31,"x_max":701,"o":"m 217 254 q 211 182 211 210 q 240 100 211 131 q 319 70 270 70 q 415 93 367 70 q 526 174 463 116 l 546 155 q 394 21 468 61 q 231 -19 320 -19 q 74 35 117 -19 q 31 161 31 90 q 95 383 31 272 q 272 562 160 494 q 496 629 383 629 q 582 602 553 629 q 611 533 611 574 q 583 437 611 484 q 484 334 543 373 q 350 275 424 295 q 217 254 300 261 m 223 290 q 316 314 283 298 q 380 362 349 329 q 435 447 412 396 q 458 543 458 498 q 447 573 458 562 q 420 584 437 584 q 347 538 388 584 q 223 290 273 456 m 701 941 l 522 708 l 343 708 l 271 941 l 352 941 l 448 801 l 614 941 l 701 941 z "},"Ĺ":{"ha":848,"x_min":-45,"x_max":791,"o":"m 690 0 l -45 0 l -37 25 q 59 51 28 25 q 115 165 89 76 l 286 755 q 300 832 300 804 q 279 876 300 859 q 199 895 259 892 l 207 920 l 648 920 l 641 895 q 546 866 577 893 q 490 755 514 839 l 334 215 q 304 90 304 112 q 319 64 304 76 q 368 52 334 52 q 586 104 481 52 q 763 258 690 155 l 791 258 l 690 0 m 522 1212 l 730 1212 l 502 975 l 441 975 l 522 1212 z "},"ĺ":{"ha":386,"x_min":20,"x_max":573,"o":"m 439 941 l 215 177 q 195 92 195 109 q 201 77 195 83 q 214 71 207 71 q 237 81 226 71 q 309 170 269 107 l 336 158 q 209 11 271 55 q 118 -19 166 -19 q 47 5 73 -19 q 20 63 20 29 q 37 144 20 88 l 220 769 q 235 838 235 821 q 220 863 235 854 q 163 875 201 877 l 170 901 l 399 941 l 439 941 m 364 1212 l 573 1212 l 345 975 l 283 975 l 364 1212 z "},"Ľ":{"ha":848,"x_min":-38,"x_max":924,"o":"m 656 511 l 640 539 q 770 629 744 597 q 789 676 789 652 q 754 735 789 703 q 707 789 720 767 q 699 833 699 806 q 732 909 699 877 q 811 941 765 941 q 891 905 857 941 q 924 815 924 869 q 860 648 924 730 q 656 511 795 566 m 696 0 l -38 0 l -31 25 q 65 51 35 25 q 121 165 96 76 l 292 755 q 307 832 307 804 q 286 876 307 859 q 206 895 266 892 l 214 920 l 655 920 l 648 895 q 552 866 584 893 q 496 755 521 839 l 340 215 q 311 90 311 112 q 326 64 311 76 q 375 52 341 52 q 592 104 488 52 q 770 258 697 155 l 798 258 l 696 0 z "},"ľ":{"ha":724,"x_min":22,"x_max":728,"o":"m 459 511 l 444 539 q 573 629 547 597 q 592 676 592 652 q 557 735 592 703 q 511 789 522 767 q 502 833 502 806 q 535 909 502 877 q 614 941 568 941 q 694 905 660 941 q 728 815 728 869 q 663 648 728 730 q 459 511 598 566 m 441 941 l 217 177 q 197 92 197 109 q 203 77 197 83 q 216 71 209 71 q 239 81 228 71 q 311 170 271 107 l 338 158 q 211 11 273 55 q 120 -19 168 -19 q 49 5 75 -19 q 22 63 22 29 q 39 144 22 88 l 222 769 q 237 838 237 821 q 222 863 237 854 q 165 875 203 877 l 172 901 l 401 941 l 441 941 z "},"Ŀ":{"ha":848,"x_min":-45,"x_max":791,"o":"m 690 0 l -45 0 l -37 25 q 59 51 28 25 q 115 165 89 76 l 286 755 q 300 832 300 804 q 279 876 300 859 q 199 895 259 892 l 207 920 l 648 920 l 641 895 q 546 866 577 893 q 490 755 514 839 l 334 215 q 304 90 304 112 q 319 64 304 76 q 368 52 334 52 q 586 104 481 52 q 763 258 690 155 l 791 258 l 690 0 m 565 566 q 628 539 602 566 q 654 477 654 513 q 628 414 654 440 q 565 388 602 388 q 502 414 528 388 q 476 477 476 440 q 502 539 476 513 q 565 566 528 566 z "},"ŀ":{"ha":521,"x_min":20,"x_max":506,"o":"m 439 941 l 215 177 q 195 92 195 109 q 201 77 195 83 q 214 71 207 71 q 237 81 226 71 q 309 170 269 107 l 336 158 q 209 11 271 55 q 118 -19 166 -19 q 47 5 73 -19 q 20 63 20 29 q 37 144 20 88 l 220 769 q 235 838 235 821 q 220 863 235 854 q 163 875 201 877 l 170 901 l 399 941 l 439 941 m 417 554 q 480 528 454 554 q 506 465 506 502 q 480 402 506 429 q 417 376 454 376 q 354 402 380 376 q 328 465 328 429 q 354 528 328 502 q 417 554 380 554 z "},"Ń":{"ha":1003,"x_min":-45,"x_max":1126,"o":"m 495 920 l 783 307 l 912 751 q 922 817 922 788 q 901 871 922 850 q 827 895 880 891 l 835 920 l 1126 920 l 1120 895 q 1028 863 1064 891 q 966 751 991 836 l 742 -10 l 716 -10 l 347 774 l 169 163 q 160 106 160 131 q 184 47 160 69 q 261 25 208 25 l 255 0 l -45 0 l -39 25 q 16 32 0 25 q 72 74 45 43 q 116 163 99 104 l 311 831 q 250 882 275 871 q 177 895 226 894 l 184 920 l 495 920 m 669 1212 l 878 1212 l 650 975 l 589 975 l 669 1212 z "},"ń":{"ha":772,"x_min":18,"x_max":699,"o":"m 371 629 l 287 338 q 414 512 372 465 q 520 604 475 580 q 604 629 565 629 q 665 603 640 629 q 690 534 690 576 q 673 442 690 496 l 587 153 q 576 103 576 115 q 581 91 576 96 q 591 85 586 85 q 606 91 598 85 q 654 146 629 111 q 673 175 660 156 l 699 159 q 490 -8 600 -8 q 424 14 448 -8 q 400 68 400 35 q 416 153 400 96 l 501 442 q 510 484 510 471 q 504 497 510 492 q 490 503 498 503 q 427 468 464 503 q 246 201 334 378 l 191 0 l 18 0 l 144 435 q 163 527 163 500 q 157 546 163 538 q 140 558 152 554 q 94 563 127 563 l 101 589 l 330 629 l 371 629 m 464 941 l 673 941 l 444 703 l 383 703 l 464 941 z "},"Ň":{"ha":1003,"x_min":-45,"x_max":1126,"o":"m 495 920 l 783 307 l 912 751 q 922 817 922 788 q 901 871 922 850 q 827 895 880 891 l 835 920 l 1126 920 l 1120 895 q 1028 863 1064 891 q 966 751 991 836 l 742 -10 l 716 -10 l 347 774 l 169 163 q 160 106 160 131 q 184 47 160 69 q 261 25 208 25 l 255 0 l -45 0 l -39 25 q 16 32 0 25 q 72 74 45 43 q 116 163 99 104 l 311 831 q 250 882 275 871 q 177 895 226 894 l 184 920 l 495 920 m 914 1218 l 735 985 l 557 985 l 484 1218 l 566 1218 l 661 1078 l 827 1218 l 914 1218 z "},"ň":{"ha":772,"x_min":18,"x_max":705,"o":"m 371 629 l 287 338 q 414 512 372 465 q 520 604 475 580 q 604 629 565 629 q 665 603 640 629 q 690 534 690 576 q 673 442 690 496 l 587 153 q 576 103 576 115 q 581 91 576 96 q 591 85 586 85 q 606 91 598 85 q 654 146 629 111 q 673 175 660 156 l 699 159 q 490 -8 600 -8 q 424 14 448 -8 q 400 68 400 35 q 416 153 400 96 l 501 442 q 510 484 510 471 q 504 497 510 492 q 490 503 498 503 q 427 468 464 503 q 246 201 334 378 l 191 0 l 18 0 l 144 435 q 163 527 163 500 q 157 546 163 538 q 140 558 152 554 q 94 563 127 563 l 101 589 l 330 629 l 371 629 m 705 941 l 526 708 l 348 708 l 275 941 l 357 941 l 452 801 l 618 941 l 705 941 z "},"Ő":{"ha":1003,"x_min":74,"x_max":1042,"o":"m 391 -22 q 211 24 279 -22 q 108 148 142 69 q 74 301 74 227 q 160 605 74 452 q 392 849 246 758 q 681 941 538 941 q 839 899 764 941 q 956 782 914 857 q 998 630 998 707 q 888 286 998 458 q 643 36 779 113 q 391 -22 540 -22 m 659 886 q 567 866 605 886 q 489 802 530 847 q 406 672 448 756 q 327 442 364 587 q 290 200 290 297 q 326 75 290 117 q 418 33 362 33 q 545 82 493 33 q 714 371 649 180 q 780 709 780 561 q 745 844 780 802 q 659 886 710 886 m 609 1230 l 818 1230 l 589 992 l 528 992 l 609 1230 m 833 1230 l 1042 1230 l 813 992 l 752 992 l 833 1230 z "},"ő":{"ha":694,"x_min":34,"x_max":840,"o":"m 456 629 q 557 604 510 629 q 628 535 604 579 q 652 437 652 491 q 591 218 652 328 q 429 44 530 108 q 227 -19 329 -19 q 84 36 135 -19 q 34 170 34 91 q 72 347 34 264 q 167 491 109 429 q 300 590 225 552 q 456 629 376 629 m 429 593 q 369 572 393 593 q 262 372 321 529 q 202 89 202 215 q 221 37 202 58 q 266 17 240 17 q 313 33 292 17 q 386 143 342 58 q 457 331 429 228 q 485 519 485 433 q 468 573 485 554 q 429 593 451 593 m 408 941 l 617 941 l 389 703 l 328 703 l 408 941 m 631 941 l 840 941 l 611 703 l 550 703 l 631 941 z "},"Ŕ":{"ha":926,"x_min":-44,"x_max":888,"o":"m 399 449 l 317 170 q 300 83 300 111 q 321 42 300 58 q 408 25 342 26 l 399 0 l -44 0 l -36 25 q 61 51 31 25 q 118 166 92 77 l 289 756 q 303 834 303 806 q 286 876 303 861 q 203 895 268 890 l 210 920 l 591 920 q 821 863 755 920 q 888 716 888 806 q 810 546 888 622 q 637 464 762 498 l 720 185 q 778 50 753 73 q 861 25 803 27 l 861 0 l 574 0 l 444 449 l 422 448 q 399 449 414 448 m 408 490 q 448 488 432 488 q 611 556 547 488 q 675 734 675 624 q 641 833 675 799 q 551 867 607 867 q 519 866 538 867 l 408 490 m 567 1212 l 776 1212 l 547 975 l 486 975 l 567 1212 z "},"ŕ":{"ha":541,"x_min":24,"x_max":608,"o":"m 329 629 l 227 248 q 416 591 353 526 q 495 629 454 629 q 541 608 524 629 q 559 549 559 587 q 527 439 559 484 q 481 410 507 410 q 441 435 454 410 q 422 465 427 460 q 410 469 416 469 q 396 465 404 469 q 357 426 381 457 q 298 320 333 394 q 243 195 262 246 q 188 0 223 144 l 24 0 l 136 450 q 148 516 148 500 q 141 545 148 534 q 124 559 135 555 q 77 564 113 564 l 83 584 l 288 629 l 329 629 m 399 941 l 608 941 l 380 703 l 319 703 l 399 941 z "},"Ř":{"ha":926,"x_min":-44,"x_max":888,"o":"m 399 449 l 317 170 q 300 83 300 111 q 321 42 300 58 q 408 25 342 26 l 399 0 l -44 0 l -36 25 q 61 51 31 25 q 118 166 92 77 l 289 756 q 303 834 303 806 q 286 876 303 861 q 203 895 268 890 l 210 920 l 591 920 q 821 863 755 920 q 888 716 888 806 q 810 546 888 622 q 637 464 762 498 l 720 185 q 778 50 753 73 q 861 25 803 27 l 861 0 l 574 0 l 444 449 l 422 448 q 399 449 414 448 m 408 490 q 448 488 432 488 q 611 556 547 488 q 675 734 675 624 q 641 833 675 799 q 551 867 607 867 q 519 866 538 867 l 408 490 m 819 1218 l 640 985 l 462 985 l 389 1218 l 471 1218 l 566 1078 l 732 1218 l 819 1218 z "},"ř":{"ha":541,"x_min":24,"x_max":584,"o":"m 329 629 l 227 248 q 416 591 353 526 q 495 629 454 629 q 541 608 524 629 q 559 549 559 587 q 527 439 559 484 q 481 410 507 410 q 441 435 454 410 q 422 465 427 460 q 410 469 416 469 q 396 465 404 469 q 357 426 381 457 q 298 320 333 394 q 243 195 262 246 q 188 0 223 144 l 24 0 l 136 450 q 148 516 148 500 q 141 545 148 534 q 124 559 135 555 q 77 564 113 564 l 83 584 l 288 629 l 329 629 m 584 941 l 405 708 l 227 708 l 154 941 l 235 941 l 331 801 l 497 941 l 584 941 z "},"Ś":{"ha":772,"x_min":-31,"x_max":810,"o":"m 810 941 l 734 629 l 711 629 q 685 746 704 702 q 609 844 656 810 q 507 879 562 879 q 415 839 454 879 q 375 747 375 798 q 402 649 375 697 q 532 503 430 600 q 643 368 614 425 q 671 246 671 312 q 631 110 671 172 q 517 13 592 47 q 347 -21 442 -21 q 200 -4 289 -21 q 83 14 112 14 q 41 6 60 14 q -4 -21 23 -1 l -31 -21 l 52 330 l 77 330 q 115 173 86 237 q 196 72 143 108 q 317 35 249 35 q 429 80 384 35 q 474 184 474 124 q 449 281 474 235 q 333 418 423 328 q 208 578 242 507 q 182 689 182 630 q 263 866 182 791 q 474 941 344 941 q 629 914 533 941 q 709 899 686 899 q 744 907 728 899 q 781 941 760 916 l 810 941 m 513 1212 l 722 1212 l 493 975 l 432 975 l 513 1212 z "},"ś":{"ha":541,"x_min":-1,"x_max":586,"o":"m 517 629 l 487 419 l 462 419 q 412 547 456 500 q 317 594 368 594 q 265 576 286 594 q 245 532 245 557 q 254 491 245 510 q 293 439 262 472 q 423 281 400 324 q 446 188 446 237 q 419 86 446 134 q 338 10 392 39 q 226 -19 284 -19 q 129 -3 186 -19 q 72 7 91 7 q 45 2 55 7 q 24 -19 36 -3 l -1 -19 l 33 207 l 54 207 q 99 90 78 125 q 154 34 119 55 q 220 14 189 14 q 282 37 258 14 q 307 93 307 60 q 291 155 307 125 q 217 248 275 184 q 113 380 138 334 q 95 458 95 414 q 148 580 95 531 q 298 629 201 629 q 401 614 340 629 q 450 606 431 606 q 492 629 476 606 l 517 629 m 377 941 l 586 941 l 357 703 l 296 703 l 377 941 z "},"Ţ":{"ha":848,"x_min":111,"x_max":962,"o":"m 222 920 l 962 920 l 892 672 l 868 672 q 869 707 869 692 q 828 816 869 777 q 688 861 787 855 l 484 168 q 467 83 467 111 q 488 42 467 57 q 573 25 509 26 l 567 0 l 111 0 l 119 25 q 220 51 189 25 q 279 168 252 77 l 484 861 q 307 814 378 857 q 176 672 235 772 l 150 672 l 222 920 m 317 0 l 369 0 l 322 -35 q 405 -71 378 -43 q 431 -138 431 -99 q 389 -220 431 -186 q 254 -255 347 -255 q 123 -235 178 -255 l 131 -214 q 207 -223 182 -223 q 277 -202 252 -223 q 301 -153 301 -182 q 286 -114 301 -130 q 250 -98 270 -98 q 212 -103 235 -98 l 203 -83 l 317 0 z "},"ţ":{"ha":386,"x_min":-87,"x_max":433,"o":"m 398 794 l 344 610 l 433 610 l 409 532 l 321 532 l 208 138 q 197 83 197 102 q 203 67 197 74 q 217 61 210 61 q 241 71 229 61 q 313 153 272 94 l 337 138 q 234 19 290 57 q 123 -19 178 -19 q 52 4 77 -19 q 26 64 26 28 q 44 165 26 103 l 151 532 l 59 532 l 73 582 q 219 656 159 614 q 363 794 279 699 l 398 794 m 107 0 l 159 0 l 112 -35 q 194 -71 168 -43 q 221 -138 221 -99 q 179 -220 221 -186 q 43 -255 136 -255 q -87 -235 -32 -255 l -79 -214 q -3 -223 -28 -223 q 66 -202 42 -223 q 91 -153 91 -182 q 75 -114 91 -130 q 39 -98 60 -98 q 2 -103 24 -98 l -7 -83 l 107 0 z "},"Ť":{"ha":848,"x_min":111,"x_max":962,"o":"m 222 920 l 962 920 l 892 672 l 868 672 q 869 707 869 692 q 828 816 869 777 q 688 861 787 855 l 484 168 q 467 83 467 111 q 488 42 467 57 q 573 25 509 26 l 567 0 l 111 0 l 119 25 q 220 51 189 25 q 279 168 252 77 l 484 861 q 307 814 378 857 q 176 672 235 772 l 150 672 l 222 920 m 869 1218 l 690 985 l 512 985 l 439 1218 l 521 1218 l 616 1078 l 783 1218 l 869 1218 z "},"ť":{"ha":738,"x_min":28,"x_max":756,"o":"m 488 511 l 472 539 q 602 629 576 597 q 621 676 621 652 q 586 735 621 703 q 539 789 551 767 q 530 833 530 806 q 564 909 530 877 q 643 941 597 941 q 722 905 688 941 q 756 815 756 869 q 691 648 756 730 q 488 511 627 566 m 399 794 l 345 610 l 434 610 l 410 532 l 323 532 l 210 138 q 199 83 199 102 q 205 67 199 74 q 218 61 211 61 q 242 71 230 61 q 315 153 273 94 l 338 138 q 235 19 292 57 q 125 -19 179 -19 q 53 4 79 -19 q 28 64 28 28 q 45 165 28 103 l 153 532 l 60 532 l 74 582 q 220 656 161 614 q 364 794 280 699 l 399 794 z "},"Ů":{"ha":1003,"x_min":130,"x_max":1123,"o":"m 812 920 l 1123 920 l 1117 895 q 1034 869 1063 890 q 964 755 987 834 l 842 333 q 688 57 785 136 q 439 -21 590 -21 q 289 3 354 -21 q 193 58 224 28 q 146 134 163 89 q 130 210 130 179 q 157 352 130 258 l 274 755 q 290 836 290 809 q 270 876 290 861 q 180 895 251 890 l 188 920 l 646 920 l 638 895 q 537 866 572 895 q 478 755 502 838 l 361 352 q 332 190 332 251 q 376 93 332 134 q 501 52 421 52 q 626 78 574 52 q 711 153 677 105 q 791 338 755 218 l 911 755 q 921 814 921 791 q 891 879 921 857 q 804 895 870 895 l 812 920 m 700 1219 q 800 1178 759 1219 q 841 1078 841 1137 q 800 979 841 1020 q 700 937 759 937 q 600 979 642 937 q 559 1078 559 1020 q 600 1178 559 1137 q 700 1219 641 1219 m 700 1168 q 636 1142 663 1168 q 610 1078 610 1116 q 636 1015 610 1041 q 700 988 663 988 q 764 1015 738 988 q 791 1078 791 1041 q 764 1142 791 1116 q 700 1168 738 1168 z "},"ů":{"ha":772,"x_min":47,"x_max":719,"o":"m 369 629 l 237 168 q 228 123 228 136 q 233 114 228 117 q 245 109 238 109 q 329 164 277 109 q 486 396 404 245 l 547 604 l 719 610 l 589 162 q 572 97 572 105 q 577 86 572 92 q 588 80 583 80 q 606 88 597 80 q 671 168 631 108 l 694 151 q 486 -19 600 -19 q 420 2 444 -19 q 396 58 396 24 q 413 151 396 95 l 446 266 q 318 93 358 138 q 215 3 257 26 q 136 -19 174 -19 q 74 7 100 -19 q 47 75 47 34 q 64 168 47 109 l 141 439 q 160 528 160 505 q 155 546 160 538 q 137 558 149 554 q 90 563 124 563 l 97 589 l 328 629 l 369 629 m 469 967 q 569 926 528 967 q 610 826 610 884 q 569 726 610 768 q 469 685 528 685 q 370 726 411 685 q 328 826 328 768 q 369 926 328 884 q 469 967 410 967 m 469 916 q 406 890 432 916 q 379 826 379 863 q 406 762 379 789 q 469 736 432 736 q 534 762 507 736 q 560 826 560 789 q 534 890 560 863 q 469 916 507 916 z "},"Ű":{"ha":1003,"x_min":130,"x_max":1123,"o":"m 812 920 l 1123 920 l 1117 895 q 1034 869 1063 890 q 964 755 987 834 l 842 333 q 688 57 785 136 q 439 -21 590 -21 q 289 3 354 -21 q 193 58 224 28 q 146 134 163 89 q 130 210 130 179 q 157 352 130 258 l 274 755 q 290 836 290 809 q 270 876 290 861 q 180 895 251 890 l 188 920 l 646 920 l 638 895 q 537 866 572 895 q 478 755 502 838 l 361 352 q 332 190 332 251 q 376 93 332 134 q 501 52 421 52 q 626 78 574 52 q 711 153 677 105 q 791 338 755 218 l 911 755 q 921 814 921 791 q 891 879 921 857 q 804 895 870 895 l 812 920 m 551 1230 l 760 1230 l 531 992 l 470 992 l 551 1230 m 774 1230 l 983 1230 l 755 992 l 694 992 l 774 1230 z "},"ű":{"ha":772,"x_min":47,"x_max":832,"o":"m 369 629 l 237 168 q 228 123 228 136 q 233 114 228 117 q 245 109 238 109 q 329 164 277 109 q 486 396 404 245 l 547 604 l 719 610 l 589 162 q 572 97 572 105 q 577 86 572 92 q 588 80 583 80 q 606 88 597 80 q 671 168 631 108 l 694 151 q 486 -19 600 -19 q 420 2 444 -19 q 396 58 396 24 q 413 151 396 95 l 446 266 q 318 93 358 138 q 215 3 257 26 q 136 -19 174 -19 q 74 7 100 -19 q 47 75 47 34 q 64 168 47 109 l 141 439 q 160 528 160 505 q 155 546 160 538 q 137 558 149 554 q 90 563 124 563 l 97 589 l 328 629 l 369 629 m 403 941 l 612 941 l 383 703 l 322 703 l 403 941 m 623 941 l 832 941 l 604 703 l 543 703 l 623 941 z "},"Ź":{"ha":848,"x_min":-38,"x_max":943,"o":"m 943 895 l 239 50 l 294 50 q 559 99 459 50 q 743 259 659 147 l 772 259 l 675 0 l -38 0 l -38 25 l 665 867 l 578 867 q 333 826 413 867 q 196 686 253 785 l 169 686 l 248 920 l 943 920 l 943 895 m 557 1212 l 766 1212 l 537 975 l 476 975 l 557 1212 z "},"ź":{"ha":541,"x_min":-14,"x_max":592,"o":"m 551 610 l 166 155 q 231 116 210 142 q 270 15 258 82 q 298 -71 282 -53 q 330 -89 313 -89 q 350 -79 340 -89 q 359 -57 359 -69 q 351 -15 359 -44 q 346 23 346 5 q 370 87 346 61 q 428 113 394 113 q 479 90 458 113 q 500 31 500 67 q 448 -72 500 -26 q 321 -118 397 -118 q 151 -38 235 -118 q 96 5 117 -6 q 65 12 84 12 q 29 0 49 12 l -14 0 l 379 467 l 238 467 q 151 452 178 467 q 100 393 124 437 l 71 393 l 127 610 l 551 610 m 383 941 l 592 941 l 363 703 l 302 703 l 383 941 z "},"Ż":{"ha":848,"x_min":-38,"x_max":943,"o":"m 943 895 l 239 50 l 294 50 q 559 99 459 50 q 743 259 659 147 l 772 259 l 675 0 l -38 0 l -38 25 l 665 867 l 578 867 q 333 826 413 867 q 196 686 253 785 l 169 686 l 248 920 l 943 920 l 943 895 m 547 1171 q 618 1142 589 1171 q 647 1071 647 1113 q 618 1000 647 1029 q 547 971 589 971 q 476 1000 506 971 q 447 1071 447 1029 q 476 1142 447 1113 q 547 1171 505 1171 z "},"ż":{"ha":541,"x_min":-14,"x_max":551,"o":"m 551 610 l 166 155 q 231 116 210 142 q 270 15 258 82 q 298 -71 282 -53 q 330 -89 313 -89 q 350 -79 340 -89 q 359 -57 359 -69 q 351 -15 359 -44 q 346 23 346 5 q 370 87 346 61 q 428 113 394 113 q 479 90 458 113 q 500 31 500 67 q 448 -72 500 -26 q 321 -118 397 -118 q 151 -38 235 -118 q 96 5 117 -6 q 65 12 84 12 q 29 0 49 12 l -14 0 l 379 467 l 238 467 q 151 452 178 467 q 100 393 124 437 l 71 393 l 127 610 l 551 610 m 357 920 q 427 891 398 920 q 456 820 456 862 q 427 749 456 779 q 357 720 398 720 q 286 749 315 720 q 256 820 256 779 q 286 891 256 862 q 357 920 315 920 z "},"Γ":{"ha":839,"x_min":-44,"x_max":950,"o":"m 398 0 l -44 0 l -37 25 q 61 57 32 26 q 121 189 91 87 l 267 701 q 298 837 298 810 q 281 873 298 858 q 195 895 264 889 l 202 920 l 950 920 l 879 671 l 854 671 q 855 712 855 697 q 828 803 855 768 q 755 854 802 839 q 612 869 708 869 l 520 869 l 329 197 q 304 81 304 109 q 406 25 304 25 l 398 0 z "},"Θ":{"ha":1060,"x_min":76,"x_max":1045,"o":"m 1045 594 q 952 306 1045 456 q 712 67 859 155 q 413 -21 566 -21 q 169 75 262 -21 q 76 311 76 172 q 172 622 76 478 q 408 853 269 765 q 699 941 547 941 q 947 852 849 941 q 1045 594 1045 764 m 829 690 q 788 836 829 787 q 684 886 747 886 q 400 648 509 886 q 292 231 292 410 q 336 83 292 132 q 448 34 380 34 q 614 112 533 34 q 762 370 694 190 q 829 690 829 551 m 722 600 l 747 600 l 655 302 l 629 302 q 631 324 631 316 q 543 386 631 386 q 488 385 541 386 q 395 302 422 375 l 370 302 l 459 600 l 485 600 q 504 545 486 564 q 591 526 523 526 q 679 543 654 526 q 722 600 703 559 z "},"Φ":{"ha":1096,"x_min":87,"x_max":1071,"o":"m 493 920 l 946 920 l 939 895 l 915 895 q 831 875 861 895 q 780 789 801 856 l 770 759 q 1000 671 928 739 q 1071 500 1071 603 q 957 268 1071 365 q 589 159 842 170 q 572 81 572 104 q 663 25 572 25 l 689 25 l 681 0 l 204 0 l 212 25 l 231 25 q 327 51 298 25 q 379 159 355 77 q 162 236 237 167 q 87 405 87 304 q 123 544 87 478 q 218 655 158 610 q 349 724 278 700 q 562 759 419 748 l 573 792 q 582 833 582 818 q 486 895 582 895 l 493 920 m 600 202 q 813 343 747 224 q 880 576 880 463 q 759 722 880 697 l 600 202 m 551 722 q 352 584 425 705 q 279 342 279 462 q 307 247 279 291 q 390 196 334 202 l 551 722 z "},"α":{"ha":768,"x_min":34,"x_max":745,"o":"m 568 610 l 745 610 l 612 321 q 550 197 577 244 q 620 89 553 89 q 684 157 684 89 l 715 157 q 616 -19 715 -19 q 518 149 525 -19 q 226 -19 404 -19 q 88 41 142 -19 q 34 196 34 102 q 99 410 34 300 q 250 574 165 519 q 412 629 335 629 q 518 496 501 629 l 568 610 m 490 433 q 420 566 490 566 q 264 411 345 566 q 182 135 182 257 q 240 31 182 31 q 303 72 271 31 q 397 241 336 114 l 490 433 z "},"δ":{"ha":711,"x_min":25,"x_max":682,"o":"m 431 578 q 317 798 317 715 q 358 900 317 859 q 477 941 400 941 q 620 909 559 941 q 682 825 682 877 q 666 785 682 804 q 625 767 650 767 q 591 777 606 767 q 543 821 575 787 q 479 879 503 865 q 429 894 456 894 q 391 878 407 894 q 376 840 376 863 q 437 745 376 797 q 612 569 568 633 q 656 405 656 505 q 525 104 656 228 q 235 -19 395 -19 q 82 36 139 -19 q 25 178 25 92 q 106 399 25 295 q 431 578 186 503 m 450 547 q 335 475 385 522 q 240 325 286 428 q 195 125 195 221 q 265 20 195 20 q 408 164 332 20 q 484 424 484 307 q 450 547 484 484 z "},"ε":{"ha":570,"x_min":12,"x_max":574,"o":"m 239 338 q 152 387 187 350 q 116 468 116 425 q 181 583 116 536 q 360 629 245 629 q 520 591 465 629 q 574 509 574 554 q 555 461 574 482 q 506 439 536 439 q 444 507 448 439 q 376 591 438 591 q 287 532 320 591 q 254 420 254 474 q 275 369 254 391 q 327 348 296 348 q 379 358 340 348 q 410 363 399 363 q 439 338 439 363 q 410 311 439 311 q 393 312 404 311 q 347 317 362 317 q 229 256 273 317 q 184 110 184 195 q 260 18 184 18 q 319 36 300 18 q 349 94 338 54 q 439 194 373 194 q 486 176 467 194 q 505 128 505 157 q 434 25 505 70 q 245 -19 362 -19 q 70 28 129 -19 q 12 144 12 75 q 239 338 12 302 z "},"σ":{"ha":749,"x_min":45,"x_max":783,"o":"m 783 610 l 741 463 l 509 463 q 622 271 622 363 q 526 71 622 161 q 288 -19 431 -19 q 108 53 172 -19 q 45 233 45 124 q 118 439 45 342 q 283 573 191 536 q 532 610 375 610 l 783 610 m 472 463 q 334 432 389 463 q 233 316 279 401 q 186 138 186 231 q 210 52 186 82 q 272 21 233 21 q 417 153 349 21 q 484 397 484 285 q 472 463 484 427 z "},"τ":{"ha":616,"x_min":35,"x_max":651,"o":"m 413 463 l 349 279 q 321 159 321 201 q 375 95 321 95 q 451 156 426 95 l 482 156 q 303 -19 423 -19 q 159 99 159 -19 q 202 272 159 165 l 277 463 l 210 463 q 108 450 140 463 q 53 395 75 436 l 35 404 q 89 524 58 477 q 158 591 121 572 q 246 610 195 610 l 651 610 l 611 463 l 413 463 z "},"φ":{"ha":812,"x_min":39,"x_max":758,"o":"m 406 629 l 394 597 q 336 563 358 584 q 280 467 315 543 q 218 287 245 392 q 190 125 190 181 q 262 16 190 42 l 376 406 q 459 578 411 527 q 582 629 507 629 q 708 565 659 629 q 758 404 758 500 q 654 119 758 258 q 355 -22 551 -20 l 275 -297 l 170 -297 l 250 -17 q 39 210 39 26 q 137 484 39 359 q 406 629 235 609 m 366 13 q 542 191 479 23 q 604 468 604 359 q 563 543 604 543 q 528 527 544 543 q 486 425 511 511 l 366 13 z "},"‗":{"ha":694,"x_min":-122,"x_max":598,"o":"m -122 -72 l 598 -72 l 598 -160 l -122 -160 l -122 -72 m -122 -211 l 598 -211 l 598 -300 l -122 -300 l -122 -211 z "},"‼":{"ha":916,"x_min":79,"x_max":869,"o":"m 252 262 l 227 262 q 276 627 260 441 q 327 877 292 812 q 416 941 361 941 q 468 915 445 941 q 491 852 491 889 q 479 787 491 823 q 408 627 468 751 q 252 262 309 419 m 190 202 q 268 170 236 202 q 300 92 300 137 q 268 13 300 45 q 190 -19 235 -19 q 112 13 144 -19 q 79 92 79 45 q 112 170 79 137 q 190 202 144 202 m 631 262 l 605 262 q 654 627 638 441 q 705 877 671 812 q 794 941 739 941 q 846 915 823 941 q 869 852 869 889 q 858 787 869 823 q 787 627 846 751 q 631 262 688 419 m 568 202 q 647 170 614 202 q 679 92 679 137 q 646 13 679 45 q 568 -19 614 -19 q 490 13 522 -19 q 458 92 458 45 q 490 170 458 137 q 568 202 522 202 z "},"ⁿ":{"ha":483,"x_min":6,"x_max":443,"o":"m 235 756 l 184 591 q 294 720 250 683 q 379 757 339 757 q 417 740 401 757 q 433 695 433 723 q 424 642 433 673 l 369 471 q 363 443 363 451 q 371 435 367 435 q 408 469 386 435 l 422 488 l 443 477 q 371 394 404 416 q 307 372 337 372 q 264 386 279 372 q 249 422 249 400 q 259 471 249 439 l 313 642 q 318 665 318 659 l 316 671 q 307 673 313 673 q 266 652 289 673 q 154 497 208 600 l 118 376 l 6 376 l 87 638 q 100 690 100 677 q 96 700 100 696 q 85 706 93 704 q 54 709 77 709 l 61 733 l 235 756 z "},"₧":{"ha":1345,"x_min":24,"x_max":1329,"o":"m 230 920 l 595 920 q 728 891 673 920 q 811 819 784 863 q 838 720 838 775 q 802 592 838 666 q 886 659 852 621 q 956 766 920 696 l 987 766 l 943 598 l 1074 598 q 1109 610 1090 606 q 1149 614 1128 614 q 1214 602 1182 614 q 1260 590 1246 590 q 1305 614 1285 590 l 1329 614 l 1296 409 l 1273 409 q 1231 542 1266 499 q 1162 585 1196 585 q 1123 569 1139 585 q 1107 531 1107 553 q 1117 488 1107 511 q 1174 395 1131 458 q 1257 188 1257 273 q 1202 48 1257 104 q 1071 -8 1147 -8 q 1008 4 1045 -8 q 948 16 971 16 q 898 -7 917 16 l 873 -7 l 883 56 q 802 -1 836 14 q 733 -16 768 -16 q 664 6 687 -16 q 641 66 641 28 q 653 133 641 89 l 760 531 q 648 445 707 473 q 516 416 589 416 q 399 431 467 416 l 319 156 q 305 90 305 111 q 315 54 305 69 q 342 32 325 39 q 400 24 360 24 l 414 24 l 407 0 l 24 0 l 24 24 q 92 62 67 33 q 126 144 109 81 l 307 769 q 320 835 320 814 q 310 868 320 852 q 285 890 300 884 q 222 896 270 896 l 230 920 m 414 486 q 452 477 434 477 q 566 536 519 477 q 636 739 636 625 q 605 837 636 802 q 526 872 574 872 l 414 486 m 922 517 l 820 141 q 810 89 810 105 q 817 68 810 76 q 836 60 824 60 q 853 65 845 60 q 890 97 867 73 l 907 203 l 930 203 q 986 61 949 102 q 1060 20 1024 20 q 1106 40 1088 20 q 1124 96 1124 60 q 1111 162 1124 127 q 1044 285 1098 197 q 983 395 991 373 q 970 455 970 426 q 985 517 970 488 l 922 517 z "},"←":{"ha":1389,"x_min":54,"x_max":1335,"o":"m 334 594 l 385 594 q 325 482 345 514 q 253 385 305 450 l 1335 385 l 1335 316 l 253 316 q 387 106 323 243 l 334 106 q 184 255 247 204 q 54 338 121 305 l 54 368 q 178 445 113 393 q 334 594 244 496 z "},"↑":{"ha":694,"x_min":104,"x_max":591,"o":"m 104 628 q 253 784 202 718 q 330 908 304 850 l 361 908 q 443 778 393 841 q 591 627 494 715 l 591 575 q 382 709 455 639 l 382 -291 l 313 -291 l 313 709 q 216 637 248 657 q 104 576 184 616 l 104 628 z "},"→":{"ha":1389,"x_min":54,"x_max":1335,"o":"m 1055 594 q 1211 445 1145 496 q 1335 368 1276 393 l 1335 338 q 1204 255 1267 305 q 1054 106 1141 204 l 1002 106 q 1135 316 1065 243 l 54 316 l 54 385 l 1135 385 q 1063 482 1084 450 q 1003 594 1043 514 l 1055 594 z "},"↓":{"ha":694,"x_min":104,"x_max":591,"o":"m 104 -11 l 104 41 q 216 -20 184 1 q 313 -92 248 -40 l 313 908 l 382 908 l 382 -92 q 591 42 455 -22 l 591 -10 q 443 -161 494 -98 q 361 -291 393 -224 l 330 -291 q 253 -167 304 -233 q 104 -11 202 -101 z "},"↔":{"ha":1389,"x_min":54,"x_max":1335,"o":"m 1335 366 l 1335 336 q 1209 257 1271 307 q 1059 107 1147 208 l 1005 107 q 1137 318 1052 224 l 252 318 q 383 107 336 224 l 329 107 q 179 257 241 208 q 54 336 117 307 l 54 366 q 179 445 117 396 q 329 595 241 494 l 383 595 q 252 385 336 479 l 1137 385 q 1005 595 1052 479 l 1059 595 q 1209 445 1147 494 q 1335 366 1271 396 z "},"↕":{"ha":694,"x_min":103,"x_max":591,"o":"m 332 992 l 362 992 q 441 866 392 928 q 591 716 490 804 l 591 662 q 380 794 475 709 l 380 -92 q 591 40 475 -6 l 591 -14 q 441 -164 490 -102 q 362 -290 392 -226 l 332 -290 q 253 -164 302 -226 q 103 -14 203 -102 l 103 40 q 314 -92 219 -6 l 314 794 q 103 662 219 709 l 103 716 q 253 866 203 804 q 332 992 302 928 z "},"↨":{"ha":694,"x_min":103,"x_max":591,"o":"m 332 992 l 362 992 q 441 866 392 928 q 591 716 490 804 l 591 662 q 380 794 475 709 l 380 -92 q 591 40 475 -6 l 591 -14 q 441 -164 490 -102 q 362 -290 392 -226 l 332 -290 q 253 -164 302 -226 q 103 -14 203 -102 l 103 40 q 314 -92 219 -6 l 314 794 q 103 662 219 709 l 103 716 q 253 866 203 804 q 332 992 302 928 m 104 -354 l 591 -354 l 591 -420 l 104 -420 l 104 -354 z "},"∟":{"ha":1360,"x_min":245,"x_max":1114,"o":"m 245 867 l 313 867 l 313 68 l 1114 68 l 1114 0 l 245 0 l 245 867 z "},"∩":{"ha":998,"x_min":149,"x_max":901,"o":"m 237 0 l 149 0 l 149 404 q 153 618 149 572 q 183 752 161 699 q 254 855 205 804 q 374 938 302 906 q 526 969 445 969 q 672 939 602 969 q 794 857 743 909 q 869 746 846 804 q 898 601 891 688 q 901 404 901 566 l 901 0 l 814 0 l 814 408 q 810 597 814 555 q 786 715 803 671 q 733 797 769 758 q 641 860 696 835 q 525 884 585 884 q 407 858 465 884 q 311 790 348 832 q 258 697 273 747 q 239 578 243 646 q 237 408 237 542 l 237 0 z "},"≡":{"ha":791,"x_min":54,"x_max":796,"o":"m 54 724 l 796 724 l 796 635 l 54 635 l 54 724 m 54 502 l 796 502 l 796 414 l 54 414 l 54 502 m 54 280 l 796 280 l 796 192 l 54 192 l 54 280 z "},"⌂":{"ha":833,"x_min":104,"x_max":730,"o":"m 104 0 l 104 430 l 416 782 l 730 430 l 730 0 l 104 0 m 159 55 l 675 55 l 675 407 l 416 696 l 159 407 l 159 55 z "},"⌐":{"ha":791,"x_min":26,"x_max":768,"o":"m 768 612 l 768 525 l 113 526 l 113 303 l 26 303 l 26 612 l 768 612 z "},"⌠":{"ha":839,"x_min":370,"x_max":662,"o":"m 469 -349 l 370 -349 l 370 879 q 431 1103 370 1027 q 568 1178 492 1178 q 638 1156 614 1178 q 662 1104 662 1134 q 645 1059 662 1077 q 602 1042 627 1042 q 564 1052 582 1042 q 535 1083 551 1059 q 504 1108 519 1108 q 483 1100 492 1108 q 473 1082 476 1095 q 469 987 469 1059 l 469 -349 z "},"⌡":{"ha":839,"x_min":177,"x_max":469,"o":"m 370 1178 l 469 1178 l 469 -50 q 408 -274 469 -199 q 271 -349 347 -349 q 201 -327 225 -349 q 177 -275 177 -305 q 194 -231 177 -248 q 236 -213 212 -213 q 276 -224 257 -213 q 304 -255 288 -231 q 335 -279 319 -279 q 356 -272 347 -279 q 366 -252 363 -267 q 370 -159 370 -231 l 370 1178 z "},"─":{"ha":984,"x_min":-16,"x_max":999,"o":"m 999 362 l -16 362 l -16 481 l 999 481 l 999 362 z "},"│":{"ha":855,"x_min":304,"x_max":422,"o":"m 304 -421 l 304 1264 l 422 1264 l 422 -421 l 304 -421 z "},"┌":{"ha":984,"x_min":433,"x_max":1000,"o":"m 1000 481 l 1000 362 l 551 362 l 551 -421 l 433 -421 l 433 481 l 1000 481 z "},"┐":{"ha":984,"x_min":-16,"x_max":551,"o":"m 432 362 l -16 362 l -16 481 l 551 481 l 551 -421 l 432 -421 l 432 362 z "},"└":{"ha":984,"x_min":433,"x_max":1000,"o":"m 433 362 l 433 1264 l 551 1264 l 551 481 l 1000 481 l 1000 362 l 433 362 z "},"┘":{"ha":984,"x_min":-16,"x_max":551,"o":"m 551 362 l -16 362 l -16 481 l 432 481 l 432 1264 l 551 1264 l 551 362 z "},"├":{"ha":984,"x_min":433,"x_max":1000,"o":"m 433 -421 l 433 1264 l 551 1264 l 551 481 l 1000 481 l 1000 362 l 551 362 l 551 -421 l 433 -421 z "},"┤":{"ha":984,"x_min":-16,"x_max":551,"o":"m 432 -421 l 432 362 l -16 362 l -16 481 l 432 481 l 432 1264 l 551 1264 l 551 -421 l 432 -421 z "},"┬":{"ha":984,"x_min":-16,"x_max":999,"o":"m 432 362 l -16 362 l -16 481 l 999 481 l 999 362 l 551 362 l 551 -421 l 432 -421 l 432 362 z "},"┴":{"ha":984,"x_min":-16,"x_max":999,"o":"m 999 362 l -16 362 l -16 481 l 432 481 l 432 1264 l 551 1264 l 551 481 l 999 481 l 999 362 z "},"┼":{"ha":984,"x_min":-16,"x_max":999,"o":"m 432 362 l -16 362 l -16 481 l 432 481 l 432 1264 l 551 1264 l 551 481 l 999 481 l 999 362 l 551 362 l 551 -421 l 432 -421 l 432 362 z "},"═":{"ha":984,"x_min":-16,"x_max":999,"o":"m 999 491 l -16 491 l -16 610 l 999 610 l 999 491 m 999 233 l -16 233 l -16 352 l 999 352 l 999 233 z "},"║":{"ha":984,"x_min":304,"x_max":680,"o":"m 562 -421 l 562 1264 l 680 1264 l 680 -421 l 562 -421 m 304 -421 l 304 1264 l 422 1264 l 422 -421 l 304 -421 z "},"╒":{"ha":984,"x_min":433,"x_max":1000,"o":"m 433 -421 l 433 610 l 1000 610 l 1000 491 l 551 491 l 551 352 l 1000 352 l 1000 233 l 551 233 l 551 -421 l 433 -421 z "},"╓":{"ha":984,"x_min":304,"x_max":1000,"o":"m 304 -421 l 304 481 l 1000 481 l 1000 362 l 680 362 l 680 -421 l 562 -421 l 562 352 l 422 352 l 422 -421 l 304 -421 z "},"╔":{"ha":984,"x_min":304,"x_max":999,"o":"m 422 -421 l 304 -421 l 304 610 l 999 610 l 999 491 l 422 491 l 422 -421 m 680 233 l 680 -421 l 562 -421 l 562 352 l 999 352 l 999 233 l 680 233 z "},"╕":{"ha":984,"x_min":-16,"x_max":551,"o":"m 432 233 l -16 233 l -16 352 l 432 352 l 432 491 l -16 491 l -16 610 l 551 610 l 551 -421 l 432 -421 l 432 233 z "},"╖":{"ha":984,"x_min":-16,"x_max":680,"o":"m 303 -421 l 304 362 l -16 362 l -16 481 l 680 481 l 680 -421 l 561 -421 l 561 362 l 422 362 l 422 -421 l 303 -421 z "},"╗":{"ha":984,"x_min":-16,"x_max":680,"o":"m 561 -421 l 561 491 l -16 491 l -16 610 l 680 610 l 680 -421 l 561 -421 m 303 233 l -16 233 l -16 352 l 422 352 l 422 -421 l 303 -421 l 303 233 z "},"╘":{"ha":984,"x_min":433,"x_max":1000,"o":"m 433 233 l 433 1264 l 551 1264 l 551 610 l 1000 610 l 1000 491 l 551 491 l 551 352 l 1000 352 l 1000 233 l 433 233 z "},"╙":{"ha":984,"x_min":304,"x_max":1000,"o":"m 1000 362 l 304 362 l 304 1264 l 422 1264 l 422 481 l 562 481 l 562 1264 l 680 1264 l 680 481 l 1000 481 l 1000 362 z "},"╚":{"ha":984,"x_min":304,"x_max":999,"o":"m 422 1264 l 422 352 l 999 352 l 999 233 l 304 233 l 304 1264 l 422 1264 m 680 610 l 999 610 l 999 491 l 562 491 l 562 1264 l 680 1264 l 680 610 z "},"╛":{"ha":984,"x_min":-16,"x_max":551,"o":"m 551 233 l -16 233 l -16 352 l 432 352 l 432 491 l -16 491 l -16 610 l 432 610 l 432 1264 l 551 1264 l 551 233 z "},"╜":{"ha":984,"x_min":-16,"x_max":680,"o":"m 680 362 l -16 362 l -16 481 l 303 481 l 303 1264 l 422 1264 l 422 481 l 561 481 l 561 1264 l 680 1264 l 680 362 z "},"╝":{"ha":984,"x_min":-16,"x_max":680,"o":"m 561 1264 l 680 1264 l 680 233 l -16 233 l -16 352 l 561 352 l 561 1264 m 303 610 l 303 1264 l 422 1264 l 422 491 l -16 491 l -16 610 l 303 610 z "},"╞":{"ha":984,"x_min":433,"x_max":1000,"o":"m 433 -421 l 433 1264 l 551 1264 l 551 610 l 1000 610 l 1000 491 l 551 491 l 551 352 l 1000 352 l 1000 233 l 551 233 l 551 -421 l 433 -421 z "},"╟":{"ha":984,"x_min":304,"x_max":1000,"o":"m 562 -421 l 562 1264 l 680 1264 l 680 481 l 1000 481 l 1000 362 l 680 362 l 680 -421 l 562 -421 m 304 -421 l 304 1264 l 422 1264 l 422 -421 l 304 -421 z "},"╠":{"ha":984,"x_min":304,"x_max":1000,"o":"m 304 -421 l 304 1264 l 422 1264 l 422 -421 l 304 -421 m 562 491 l 562 1264 l 680 1264 l 680 610 l 1000 610 l 1000 491 l 562 491 m 562 -421 l 562 352 l 1000 352 l 1000 233 l 680 233 l 680 -421 l 562 -421 z "},"╡":{"ha":984,"x_min":-16,"x_max":551,"o":"m 432 233 l -16 233 l -16 352 l 433 352 l 432 491 l -16 491 l -16 610 l 432 610 l 432 1264 l 551 1264 l 551 -421 l 432 -421 l 432 233 z "},"╢":{"ha":984,"x_min":-16,"x_max":680,"o":"m 303 -421 l 304 362 l -16 362 l -16 481 l 303 481 l 303 1264 l 422 1264 l 422 -421 l 303 -421 m 561 -421 l 561 1264 l 680 1264 l 680 -421 l 561 -421 z "},"╣":{"ha":984,"x_min":-16,"x_max":680,"o":"m 561 -421 l 561 1264 l 680 1264 l 680 -421 l 561 -421 m 422 1264 l 422 491 l -16 491 l -16 610 l 303 610 l 303 1264 l 422 1264 m 303 233 l -16 233 l -16 352 l 422 352 l 422 -421 l 303 -421 l 303 233 z "},"╤":{"ha":984,"x_min":-16,"x_max":999,"o":"m 999 491 l -16 491 l -16 610 l 999 610 l 999 491 m 432 233 l -16 233 l -16 352 l 999 352 l 999 233 l 551 233 l 551 -421 l 432 -421 l 432 233 z "},"╥":{"ha":984,"x_min":-16,"x_max":999,"o":"m 303 -421 l 304 362 l -16 362 l -16 481 l 999 481 l 999 362 l 680 362 l 680 -421 l 561 -421 l 561 352 l 422 352 l 422 -421 l 303 -421 z "},"╦":{"ha":984,"x_min":-16,"x_max":999,"o":"m 999 491 l -16 491 l -16 610 l 999 610 l 999 491 m 303 233 l -16 233 l -16 352 l 422 352 l 422 -421 l 303 -421 l 303 233 m 561 -421 l 561 352 l 999 352 l 999 233 l 680 233 l 680 -421 l 561 -421 z "},"╧":{"ha":984,"x_min":-16,"x_max":999,"o":"m 999 491 l -16 491 l -16 610 l 432 610 l 432 1264 l 551 1264 l 551 610 l 999 610 l 999 491 m 999 233 l -16 233 l -16 352 l 999 352 l 999 233 z "},"╨":{"ha":984,"x_min":-16,"x_max":999,"o":"m 999 362 l -16 362 l -16 481 l 303 481 l 303 1264 l 422 1264 l 422 481 l 561 481 l 561 1264 l 680 1264 l 680 481 l 999 481 l 999 362 z "},"╩":{"ha":984,"x_min":-16,"x_max":999,"o":"m 422 491 l -16 491 l -16 610 l 303 610 l 303 1264 l 422 1264 l 422 491 m 999 491 l 561 491 l 561 1264 l 680 1264 l 680 610 l 999 610 l 999 491 m 999 233 l -16 233 l -16 352 l 999 352 l 999 233 z "},"╪":{"ha":984,"x_min":-16,"x_max":999,"o":"m 432 233 l -16 233 l -16 352 l 432 352 l 432 491 l -16 491 l -16 610 l 432 610 l 432 1264 l 551 1264 l 551 610 l 999 610 l 999 491 l 551 491 l 551 352 l 999 352 l 999 233 l 551 233 l 551 -421 l 432 -421 l 432 233 z "},"╫":{"ha":984,"x_min":-16,"x_max":999,"o":"m 303 -421 l 304 362 l -16 362 l -16 481 l 303 481 l 303 1264 l 422 1264 l 422 481 l 561 481 l 561 1264 l 680 1264 l 680 481 l 999 481 l 999 362 l 680 362 l 680 -421 l 561 -421 l 561 362 l 422 362 l 422 -421 l 303 -421 z "},"╬":{"ha":984,"x_min":-16,"x_max":999,"o":"m 680 610 l 999 610 l 999 491 l 562 491 l 562 1264 l 680 1264 l 680 610 m 303 610 l 303 1264 l 422 1264 l 422 491 l -16 491 l -16 610 l 303 610 m 303 233 l -16 233 l -16 352 l 422 352 l 422 -421 l 303 -421 l 303 233 m 680 233 l 680 -421 l 562 -421 l 562 352 l 999 352 l 999 233 l 680 233 z "},"▀":{"ha":984,"x_min":-16,"x_max":999,"o":"m 999 421 l -16 421 l -16 1264 l 999 1264 l 999 421 z "},"▄":{"ha":984,"x_min":-16,"x_max":999,"o":"m 999 -421 l -16 -421 l -16 421 l 999 421 l 999 -421 z "},"█":{"ha":984,"x_min":-16,"x_max":999,"o":"m -16 -421 l -16 1264 l 999 1264 l 999 -421 l -16 -421 z "},"▌":{"ha":984,"x_min":-16,"x_max":492,"o":"m -16 -421 l -16 1264 l 492 1264 l 492 -421 l -16 -421 z "},"▐":{"ha":984,"x_min":492,"x_max":1000,"o":"m 492 -421 l 492 1264 l 1000 1264 l 1000 -421 l 492 -421 z "},"░":{"ha":984,"x_min":69,"x_max":999,"o":"m 69 1264 l 154 1264 l 154 1179 l 69 1179 l 69 1264 m 407 1264 l 492 1264 l 492 1179 l 407 1179 l 407 1264 m 745 1264 l 830 1264 l 830 1179 l 745 1179 l 745 1264 m 238 1095 l 323 1095 l 323 1010 l 238 1010 l 238 1095 m 576 1095 l 661 1095 l 661 1010 l 576 1010 l 576 1095 m 914 1095 l 999 1095 l 999 1010 l 914 1010 l 914 1095 m 745 926 l 830 926 l 830 842 l 745 842 l 745 926 m 407 926 l 492 926 l 492 842 l 407 842 l 407 926 m 69 926 l 154 926 l 154 842 l 69 842 l 69 926 m 914 757 l 999 757 l 999 673 l 914 673 l 914 757 m 576 757 l 661 757 l 661 673 l 576 673 l 576 757 m 238 757 l 323 757 l 323 673 l 238 673 l 238 757 m 69 588 l 154 588 l 154 503 l 69 503 l 69 588 m 407 588 l 492 588 l 492 503 l 407 503 l 407 588 m 745 588 l 830 588 l 830 503 l 745 503 l 745 588 m 914 419 l 999 419 l 999 334 l 914 334 l 914 419 m 576 419 l 661 419 l 661 334 l 576 334 l 576 419 m 238 419 l 323 419 l 323 334 l 238 334 l 238 419 m 69 250 l 154 250 l 154 165 l 69 165 l 69 250 m 407 250 l 492 250 l 492 165 l 407 165 l 407 250 m 745 250 l 830 250 l 830 165 l 745 165 l 745 250 m 238 81 l 323 81 l 323 -3 l 238 -3 l 238 81 m 576 81 l 661 81 l 661 -3 l 576 -3 l 576 81 m 914 81 l 999 81 l 999 -3 l 914 -3 l 914 81 m 745 -88 l 830 -88 l 830 -173 l 745 -173 l 745 -88 m 407 -88 l 492 -88 l 492 -173 l 407 -173 l 407 -88 m 69 -88 l 154 -88 l 154 -173 l 69 -173 l 69 -88 m 238 -257 l 323 -257 l 323 -342 l 238 -342 l 238 -257 m 576 -257 l 661 -257 l 661 -342 l 576 -342 l 576 -257 m 914 -257 l 999 -257 l 999 -342 l 914 -342 l 914 -257 z "},"▒":{"ha":984,"x_min":-15,"x_max":999,"o":"m 70 1264 l 154 1264 l 154 1179 l 70 1179 l 70 1264 m 239 1264 l 323 1264 l 323 1179 l 239 1179 l 239 1264 m 408 1264 l 492 1264 l 492 1179 l 408 1179 l 408 1264 m 576 1264 l 661 1264 l 661 1179 l 576 1179 l 576 1264 m 746 1264 l 830 1264 l 830 1179 l 746 1179 l 746 1264 m 915 1264 l 999 1264 l 999 1179 l 915 1179 l 915 1264 m -15 1095 l 70 1095 l 70 1010 l -15 1010 l -15 1095 m 154 1095 l 239 1095 l 239 1010 l 154 1010 l 154 1095 m 323 1095 l 408 1095 l 408 1010 l 323 1010 l 323 1095 m 492 1095 l 576 1095 l 576 1010 l 492 1010 l 492 1095 m 661 1095 l 746 1095 l 746 1010 l 661 1010 l 661 1095 m 830 1095 l 915 1095 l 915 1010 l 830 1010 l 830 1095 m 70 926 l 154 926 l 154 842 l 70 842 l 70 926 m 239 926 l 323 926 l 323 842 l 239 842 l 239 926 m 408 926 l 492 926 l 492 842 l 408 842 l 408 926 m 576 926 l 661 926 l 661 842 l 576 842 l 576 926 m 746 926 l 830 926 l 830 842 l 746 842 l 746 926 m 915 926 l 999 926 l 999 842 l 915 842 l 915 926 m 154 757 l 239 757 l 239 673 l 154 673 l 154 757 m 323 757 l 408 757 l 408 673 l 323 673 l 323 757 m 492 757 l 576 757 l 576 673 l 492 673 l 492 757 m 661 757 l 746 757 l 746 673 l 661 673 l 661 757 m 830 757 l 915 757 l 915 673 l 830 673 l 830 757 m -15 757 l 70 757 l 70 673 l -15 673 l -15 757 m 70 588 l 154 588 l 154 503 l 70 503 l 70 588 m 239 588 l 323 588 l 323 503 l 239 503 l 239 588 m 408 588 l 492 588 l 492 503 l 408 503 l 408 588 m 576 588 l 661 588 l 661 503 l 576 503 l 576 588 m 746 588 l 830 588 l 830 503 l 746 503 l 746 588 m 915 588 l 999 588 l 999 503 l 915 503 l 915 588 m -15 419 l 70 419 l 70 334 l -15 334 l -15 419 m 323 419 l 408 419 l 408 334 l 323 334 l 323 419 m 492 419 l 576 419 l 576 334 l 492 334 l 492 419 m 661 419 l 746 419 l 746 334 l 661 334 l 661 419 m 830 419 l 915 419 l 915 334 l 830 334 l 830 419 m 154 419 l 239 419 l 239 334 l 154 334 l 154 419 m 915 250 l 999 250 l 999 165 l 915 165 l 915 250 m 746 250 l 830 250 l 830 165 l 746 165 l 746 250 m 576 250 l 661 250 l 661 165 l 576 165 l 576 250 m 408 250 l 492 250 l 492 165 l 408 165 l 408 250 m 239 250 l 323 250 l 323 165 l 239 165 l 239 250 m 70 250 l 154 250 l 154 165 l 70 165 l 70 250 m -15 81 l 70 81 l 70 -3 l -15 -3 l -15 81 m 154 81 l 239 81 l 239 -3 l 154 -3 l 154 81 m 323 81 l 408 81 l 408 -3 l 323 -3 l 323 81 m 492 81 l 576 81 l 576 -3 l 492 -3 l 492 81 m 661 81 l 746 81 l 746 -3 l 661 -3 l 661 81 m 830 81 l 915 81 l 915 -3 l 830 -3 l 830 81 m 915 -88 l 999 -88 l 999 -173 l 915 -173 l 915 -88 m 746 -88 l 830 -88 l 830 -173 l 746 -173 l 746 -88 m 576 -88 l 661 -88 l 661 -173 l 576 -173 l 576 -88 m 408 -88 l 492 -88 l 492 -173 l 408 -173 l 408 -88 m 239 -88 l 323 -88 l 323 -173 l 239 -173 l 239 -88 m 70 -88 l 154 -88 l 154 -173 l 70 -173 l 70 -88 m -15 -257 l 70 -257 l 70 -342 l -15 -342 l -15 -257 m 154 -257 l 239 -257 l 239 -342 l 154 -342 l 154 -257 m 323 -257 l 408 -257 l 408 -342 l 323 -342 l 323 -257 m 492 -257 l 576 -257 l 576 -342 l 492 -342 l 492 -257 m 661 -257 l 746 -257 l 746 -342 l 661 -342 l 661 -257 m 830 -257 l 915 -257 l 915 -342 l 830 -342 l 830 -257 z "},"▓":{"ha":1013,"x_min":-1,"x_max":1013,"o":"m 1013 1010 l 1013 757 l 929 757 l 929 673 l 1013 673 l 1013 419 l 929 419 l 929 334 l 1013 334 l 1013 81 l 929 81 l 929 -3 l 1013 -3 l 1013 -257 l 929 -257 l 929 -342 l 1013 -342 l 1013 -426 l -1 -426 l -1 -173 l 84 -173 l 84 -88 l -1 -88 l -1 165 l 84 165 l 84 250 l -1 250 l -1 503 l 84 503 l 84 588 l -1 588 l -1 842 l 84 842 l 84 926 l -1 926 l -1 1179 l 84 1179 l 84 1264 l 168 1264 l 168 1179 l 253 1179 l 253 1264 l 337 1264 l 337 1179 l 422 1179 l 422 1264 l 507 1264 l 507 1179 l 591 1179 l 591 1264 l 675 1264 l 675 1179 l 760 1179 l 760 1264 l 844 1264 l 844 1179 l 929 1179 l 929 1264 l 1013 1264 l 1013 1095 l 929 1095 l 929 1010 l 1013 1010 m 84 1095 l 84 1010 l 168 1010 l 168 1095 l 84 1095 m 253 1095 l 253 1010 l 337 1010 l 337 1095 l 253 1095 m 422 1095 l 422 1010 l 507 1010 l 507 1095 l 422 1095 m 591 1095 l 591 1010 l 675 1010 l 675 1095 l 591 1095 m 760 1095 l 760 1010 l 844 1010 l 844 1095 l 760 1095 m 929 926 l 844 926 l 844 842 l 929 842 l 929 926 m 760 926 l 675 926 l 675 842 l 760 842 l 760 926 m 591 926 l 507 926 l 507 842 l 591 842 l 591 926 m 422 926 l 337 926 l 337 842 l 422 842 l 422 926 m 253 926 l 168 926 l 168 842 l 253 842 l 253 926 m 84 757 l 84 673 l 168 673 l 168 757 l 84 757 m 253 757 l 253 673 l 337 673 l 337 757 l 253 757 m 422 757 l 422 673 l 507 673 l 507 757 l 422 757 m 591 757 l 591 673 l 675 673 l 675 757 l 591 757 m 760 757 l 760 673 l 844 673 l 844 757 l 760 757 m 253 588 l 168 588 l 168 503 l 253 503 l 253 588 m 337 588 l 337 503 l 422 503 l 422 588 l 337 588 m 507 588 l 507 503 l 591 503 l 591 588 l 507 588 m 675 588 l 675 503 l 760 503 l 760 588 l 675 588 m 844 588 l 844 503 l 929 503 l 929 588 l 844 588 m 84 419 l 84 334 l 168 334 l 168 419 l 84 419 m 422 419 l 422 334 l 507 334 l 507 419 l 422 419 m 337 334 l 337 419 l 253 419 l 253 334 l 337 334 m 591 419 l 591 334 l 675 334 l 675 419 l 591 419 m 760 419 l 760 334 l 844 334 l 844 419 l 760 419 m 929 165 l 929 250 l 844 250 l 844 165 l 929 165 m 760 165 l 760 250 l 675 250 l 675 165 l 760 165 m 591 165 l 591 250 l 507 250 l 507 165 l 591 165 m 422 165 l 422 250 l 337 250 l 337 165 l 422 165 m 253 165 l 253 250 l 168 250 l 168 165 l 253 165 m 84 81 l 84 -3 l 168 -3 l 168 81 l 84 81 m 253 81 l 253 -3 l 337 -3 l 337 81 l 253 81 m 422 81 l 422 -3 l 507 -3 l 507 81 l 422 81 m 591 81 l 591 -3 l 675 -3 l 675 81 l 591 81 m 760 81 l 760 -3 l 844 -3 l 844 81 l 760 81 m 929 -173 l 929 -88 l 844 -88 l 844 -173 l 929 -173 m 760 -173 l 760 -88 l 675 -88 l 675 -173 l 760 -173 m 591 -173 l 591 -88 l 507 -88 l 507 -173 l 591 -173 m 422 -173 l 422 -88 l 337 -88 l 337 -173 l 422 -173 m 253 -173 l 253 -88 l 168 -88 l 168 -173 l 253 -173 m 84 -257 l 84 -342 l 168 -342 l 168 -257 l 84 -257 m 253 -257 l 253 -342 l 337 -342 l 337 -257 l 253 -257 m 422 -257 l 422 -342 l 507 -342 l 507 -257 l 422 -257 m 591 -257 l 591 -342 l 675 -342 l 675 -257 l 591 -257 m 760 -257 l 760 -342 l 844 -342 l 844 -257 l 760 -257 z "},"■":{"ha":839,"x_min":99,"x_max":739,"o":"m 99 640 l 739 640 l 739 0 l 99 0 l 99 640 z "},"▬":{"ha":1389,"x_min":0,"x_max":1388,"o":"m 0 477 l 1388 477 l 1388 215 l 0 215 l 0 477 z "},"▲":{"ha":1375,"x_min":206,"x_max":1169,"o":"m 206 0 l 688 962 l 1169 0 l 206 0 z "},"►":{"ha":1375,"x_min":195,"x_max":1179,"o":"m 195 961 l 1179 470 l 195 -21 l 195 961 z "},"▼":{"ha":1375,"x_min":206,"x_max":1169,"o":"m 1169 941 l 688 -21 l 206 941 l 1169 941 z "},"◄":{"ha":1375,"x_min":195,"x_max":1179,"o":"m 1179 961 l 1179 -21 l 195 470 l 1179 961 z "},"○":{"ha":839,"x_min":121,"x_max":718,"o":"m 420 690 q 566 652 494 690 q 678 541 638 613 q 718 392 718 469 q 631 180 718 268 q 420 93 543 93 q 208 180 296 93 q 121 392 121 268 q 161 542 121 470 q 273 652 201 613 q 420 690 345 690 m 420 639 q 298 607 357 639 q 205 515 239 575 q 172 392 172 456 q 245 217 172 290 q 420 144 317 144 q 594 217 522 144 q 667 392 667 290 q 633 515 667 456 q 541 607 600 575 q 420 639 482 639 z "},"◘":{"ha":839,"x_min":87,"x_max":751,"o":"m 87 0 l 87 665 l 751 665 l 751 0 l 87 0 m 419 469 q 322 429 362 469 q 282 332 282 389 q 322 236 282 276 q 419 195 363 195 q 516 236 476 195 q 556 332 556 276 q 516 429 556 389 q 419 469 476 469 z "},"◙":{"ha":839,"x_min":28,"x_max":812,"o":"m 28 0 l 28 783 l 812 783 l 812 0 l 28 0 m 420 690 q 273 652 345 690 q 161 541 201 613 q 121 391 121 469 q 209 180 121 268 q 420 93 296 93 q 631 180 544 93 q 719 391 719 268 q 679 541 719 469 q 567 652 639 613 q 420 690 496 690 m 420 639 q 542 607 482 639 q 634 516 601 575 q 667 391 667 456 q 595 217 667 289 q 420 144 523 144 q 245 217 317 144 q 173 391 173 289 q 206 516 173 456 q 299 607 239 575 q 420 639 358 639 z "},"☺":{"ha":1418,"x_min":277,"x_max":1142,"o":"m 709 784 q 922 728 818 784 q 1084 568 1025 672 q 1142 351 1142 464 q 1085 137 1142 239 q 924 -23 1027 34 q 709 -81 821 -81 q 494 -23 597 -81 q 334 137 391 34 q 277 351 277 239 q 335 568 277 464 q 496 728 393 672 q 709 784 600 784 m 709 721 q 528 673 616 721 q 390 536 439 625 q 340 351 340 448 q 389 168 340 256 q 526 31 437 80 q 709 -18 614 -18 q 893 31 805 -18 q 1030 168 981 80 q 1079 351 1079 256 q 1029 536 1079 448 q 891 673 979 625 q 709 721 802 721 m 543 496 q 582 480 566 496 q 598 441 598 464 q 582 402 598 418 q 543 386 566 386 q 505 402 521 386 q 488 441 488 418 q 505 480 488 464 q 543 496 521 496 m 875 496 q 914 480 898 496 q 930 441 930 464 q 914 402 930 418 q 875 386 898 386 q 836 402 852 386 q 820 441 820 418 q 836 480 820 464 q 875 496 852 496 m 510 212 l 552 237 q 709 139 606 139 q 866 237 813 139 l 909 212 q 825 114 875 148 q 709 80 775 80 q 593 114 643 80 q 510 212 544 148 z "},"☻":{"ha":1461,"x_min":298,"x_max":1164,"o":"m 731 784 q 943 728 840 784 q 1105 568 1047 672 q 1164 351 1164 464 q 1106 137 1164 239 q 946 -23 1049 34 q 731 -81 843 -81 q 516 -23 618 -81 q 356 137 413 34 q 298 351 298 239 q 356 568 298 464 q 518 728 414 672 q 731 784 622 784 m 565 496 q 526 480 543 496 q 510 441 510 464 q 526 402 510 418 q 565 386 543 386 q 604 402 588 386 q 620 441 620 418 q 604 480 620 464 q 565 496 588 496 m 897 496 q 858 480 873 496 q 842 441 842 464 q 858 402 842 418 q 897 386 874 386 q 936 402 920 386 q 951 441 951 418 q 936 480 951 464 q 897 496 920 496 m 532 212 q 615 114 566 148 q 731 80 665 80 q 847 114 797 80 q 930 212 897 148 l 888 237 q 731 139 835 139 q 574 237 627 139 l 532 212 z "},"☼":{"ha":1273,"x_min":11,"x_max":1263,"o":"m 612 1099 l 663 1099 l 663 871 q 786 845 732 866 q 900 775 840 823 l 1097 968 l 1132 932 l 938 738 q 1008 623 987 673 q 1035 495 1034 558 l 1263 495 l 1263 448 l 1036 448 q 939 213 1023 320 l 1132 16 l 1093 -18 l 901 173 q 785 105 835 124 q 663 77 736 85 l 663 -151 l 612 -151 l 612 77 q 484 109 536 87 q 378 171 432 130 l 178 -18 l 144 17 l 337 211 q 269 323 292 268 q 239 451 246 379 l 11 451 l 11 498 l 239 498 q 267 624 245 570 q 336 734 290 677 l 144 929 l 176 968 l 374 777 q 496 845 443 824 q 612 871 549 865 l 612 1099 m 635 821 q 465 777 548 821 q 335 648 381 732 q 288 474 288 564 q 334 301 288 384 q 463 172 380 218 q 635 126 545 126 q 808 172 726 126 q 937 301 891 218 q 983 474 983 384 q 937 648 983 564 q 806 777 890 732 q 635 821 723 821 z "},"♀":{"ha":1042,"x_min":165,"x_max":876,"o":"m 540 313 l 540 40 l 851 40 l 851 0 l 540 0 l 540 -298 l 500 -298 l 500 0 l 188 0 l 188 40 l 500 40 l 500 313 q 347 357 430 313 q 215 487 264 401 q 165 667 165 572 q 213 844 165 759 q 344 975 260 928 q 521 1022 428 1022 q 697 975 613 1022 q 829 843 782 928 q 876 667 876 759 q 778 422 876 525 q 540 313 681 319 m 520 984 q 364 943 440 984 q 245 825 288 902 q 202 666 202 749 q 295 440 202 534 q 520 347 389 347 q 746 440 652 347 q 839 666 839 534 q 796 825 839 749 q 677 943 753 902 q 520 984 601 984 z "},"♂":{"ha":1042,"x_min":75,"x_max":960,"o":"m 825 1099 l 849 1088 l 960 636 l 921 626 l 825 1020 l 582 499 q 734 362 682 448 q 785 178 785 276 q 739 1 785 85 q 607 -131 692 -83 q 430 -178 523 -178 q 253 -131 338 -178 q 122 1 169 -83 q 75 178 75 85 q 179 429 75 325 q 432 532 283 532 q 545 514 485 532 l 789 1037 l 425 857 l 408 893 l 825 1099 m 430 496 q 274 455 350 496 q 155 337 197 414 q 112 178 112 260 q 205 -48 112 45 q 430 -141 298 -141 q 655 -48 562 -141 q 749 178 749 45 q 706 337 749 260 q 587 455 663 414 q 430 496 511 496 z "},"♠":{"ha":738,"x_min":39,"x_max":699,"o":"m 370 835 q 424 704 387 762 q 554 561 460 646 q 673 430 648 476 q 699 338 699 385 q 655 230 699 273 q 551 186 612 186 q 378 315 445 186 q 404 157 378 216 q 485 65 429 98 q 633 25 541 31 l 638 0 l 101 0 l 106 25 q 299 98 231 25 q 366 315 368 171 q 290 219 335 251 q 189 186 245 186 q 83 231 127 186 q 39 335 39 275 q 61 425 39 385 q 168 543 92 481 q 315 699 262 621 q 370 835 353 755 z "},"♣":{"ha":911,"x_min":37,"x_max":873,"o":"m 745 0 l 170 0 l 175 23 q 323 70 287 47 q 413 172 378 104 q 448 315 448 240 q 448 347 448 326 q 347 224 406 262 q 226 185 288 185 q 92 240 147 185 q 37 375 37 295 q 87 508 37 454 q 201 562 138 562 q 312 527 242 562 q 275 598 283 574 q 267 650 267 623 q 320 782 267 728 q 454 835 374 835 q 588 782 534 835 q 643 653 643 728 q 596 527 643 593 q 665 557 653 554 q 706 563 683 563 q 824 510 774 563 q 873 378 873 456 q 819 241 873 296 q 688 186 764 186 q 601 207 646 186 q 522 262 555 227 q 463 347 498 287 q 495 176 465 239 q 588 72 526 113 q 739 23 630 44 l 745 0 z "},"♥":{"ha":825,"x_min":43,"x_max":782,"o":"m 414 -16 q 354 134 393 64 q 203 352 315 204 q 102 490 121 460 q 57 577 71 537 q 43 657 43 616 q 93 783 43 732 q 218 834 143 834 q 347 781 292 834 q 414 664 388 742 q 490 792 438 750 q 606 835 543 835 q 731 785 680 835 q 782 665 782 734 q 752 538 782 604 q 637 363 723 472 q 480 142 526 223 q 414 -16 435 62 z "},"♦":{"ha":709,"x_min":43,"x_max":666,"o":"m 353 835 q 509 606 414 732 q 666 410 604 479 q 502 205 616 357 q 354 -16 410 81 q 233 166 325 39 q 43 410 170 254 q 220 632 112 488 q 353 835 300 739 z "},"♪":{"ha":694,"x_min":25,"x_max":669,"o":"m 330 924 l 355 924 q 509 915 472 924 q 604 863 563 901 q 652 782 634 834 q 669 661 669 730 l 669 591 l 602 591 l 602 621 q 583 699 602 667 q 526 748 564 731 q 416 770 476 770 l 397 770 l 397 203 q 375 76 397 121 q 300 2 353 30 q 185 -25 248 -25 q 68 17 111 -25 q 25 126 25 58 q 77 246 25 197 q 212 294 128 294 q 330 263 264 294 l 330 924 z "},"♫":{"ha":1042,"x_min":58,"x_max":902,"o":"m 362 862 l 902 1030 l 902 279 q 881 152 902 195 q 808 81 859 109 q 692 54 757 54 q 574 96 618 54 q 530 205 530 138 q 583 322 530 273 q 718 372 635 372 q 765 367 745 372 q 833 342 786 362 l 833 833 l 429 708 l 429 141 q 408 13 429 59 q 333 -60 386 -33 q 218 -87 280 -87 q 101 -45 144 -87 q 58 64 58 -3 q 109 183 58 135 q 244 232 161 232 q 362 201 297 232 l 362 862 z "},"Ĳ":{"ha":1143,"x_min":-49,"x_max":1287,"o":"m 192 895 l 199 920 l 648 920 l 640 895 q 546 867 578 895 q 490 754 514 840 l 321 165 q 303 82 303 103 q 322 44 303 58 q 414 25 347 26 l 408 0 l -49 0 l -41 25 q 59 51 27 25 q 117 165 91 77 l 286 754 q 302 836 302 808 q 283 876 302 861 q 192 895 264 890 m 828 895 l 836 920 l 1287 920 l 1280 895 q 1183 866 1217 895 q 1126 758 1149 838 l 1027 414 q 933 153 974 227 q 819 28 893 78 q 630 -21 745 -21 q 492 18 537 -21 q 446 117 446 57 q 477 199 446 166 q 547 232 508 232 q 607 210 583 232 q 631 155 631 187 q 602 90 631 125 q 584 56 584 68 q 593 37 584 45 q 631 25 610 25 q 704 77 670 25 q 802 347 738 128 l 923 758 q 939 836 939 812 q 920 876 939 861 q 828 895 901 890 z "},"ĳ":{"ha":767,"x_min":51,"x_max":772,"o":"m 335 941 q 406 911 377 941 q 435 841 435 882 q 406 770 435 800 q 335 741 376 741 q 265 770 294 741 q 236 841 236 800 q 265 911 236 882 q 335 941 294 941 m 377 629 l 238 146 q 227 92 227 105 q 233 78 227 85 q 245 72 239 72 q 269 82 257 72 q 342 173 299 107 l 365 159 q 147 -19 262 -19 q 77 6 103 -19 q 51 68 51 31 q 62 132 51 94 l 157 456 q 170 527 170 503 q 157 553 170 542 q 122 565 144 565 q 98 564 112 565 l 106 591 l 336 629 l 377 629 m 672 941 q 743 911 714 941 q 772 840 772 882 q 743 769 772 798 q 672 739 713 739 q 601 769 630 739 q 571 840 571 798 q 601 911 571 882 q 672 941 630 941 m 729 629 l 585 95 q 484 -163 540 -68 q 381 -265 446 -230 q 248 -300 316 -300 q 163 -277 191 -300 q 136 -227 136 -255 q 158 -176 136 -198 q 216 -154 181 -154 q 259 -169 243 -154 q 275 -203 275 -183 q 256 -243 275 -223 q 249 -255 249 -251 q 253 -263 249 -260 q 267 -267 258 -267 q 318 -233 296 -267 q 371 -65 333 -211 l 509 457 q 524 528 524 513 q 509 554 524 541 q 470 566 494 566 q 452 566 463 566 l 460 591 l 688 629 l 729 629 z "},"ŉ":{"ha":998,"x_min":61,"x_max":929,"o":"m 601 629 l 517 338 q 644 512 602 465 q 750 604 705 580 q 834 629 795 629 q 895 603 869 629 q 920 534 920 576 q 903 442 920 496 l 817 153 q 806 103 806 115 q 811 91 806 96 q 821 85 816 85 q 836 91 828 85 q 884 146 859 111 q 903 175 890 156 l 929 159 q 720 -8 829 -8 q 654 14 677 -8 q 630 68 630 35 q 646 153 630 96 l 731 442 q 740 484 740 471 q 734 497 740 492 q 720 503 728 503 q 657 468 694 503 q 476 201 564 378 l 420 0 l 248 0 l 374 435 q 393 527 393 500 q 387 546 393 538 q 370 558 382 554 q 323 563 357 563 l 331 589 l 559 629 l 601 629 m 77 511 l 61 539 q 190 629 165 597 q 210 676 210 652 q 175 735 210 703 q 128 789 140 767 q 119 833 119 806 q 152 909 119 877 q 232 941 185 941 q 311 905 277 941 q 345 815 345 869 q 280 648 345 730 q 77 511 215 566 z "},"′":{"ha":391,"x_min":216,"x_max":437,"o":"m 249 490 l 216 490 l 220 749 q 262 893 220 846 q 363 941 304 941 q 416 921 395 941 q 437 871 437 901 q 391 749 437 833 l 249 490 z "},"″":{"ha":767,"x_min":229,"x_max":777,"o":"m 589 489 l 555 489 l 561 749 q 575 851 563 821 q 629 916 593 892 q 705 941 665 941 q 756 921 736 941 q 777 871 777 901 q 771 836 777 851 q 728 749 762 812 l 589 489 m 262 489 l 229 489 l 233 750 q 276 894 235 847 q 376 941 317 941 q 429 921 408 941 q 450 873 450 901 q 403 749 450 835 l 262 489 z "},"℅":{"ha":1158,"x_min":104,"x_max":1125,"o":"m 1069 941 l 225 -37 l 143 -37 l 986 941 l 1069 941 m 475 578 l 491 565 q 391 476 440 504 q 257 439 327 439 q 145 480 187 439 q 104 589 104 522 q 204 830 104 725 q 422 935 304 935 q 510 909 480 935 q 539 845 539 884 q 517 786 539 810 q 467 762 494 762 q 428 777 444 762 q 412 814 412 792 q 439 863 412 842 q 458 888 458 877 q 451 903 458 897 q 424 912 441 912 q 295 819 352 912 q 237 621 237 726 q 265 540 237 570 q 330 509 292 509 q 475 578 407 509 m 975 482 q 1083 441 1042 482 q 1125 335 1125 400 q 1028 98 1125 210 q 799 -14 930 -14 q 692 26 732 -14 q 651 130 651 66 q 699 304 651 218 q 825 436 747 389 q 975 482 903 482 m 954 454 q 905 436 924 454 q 824 279 867 397 q 780 68 780 161 q 794 28 780 44 q 829 13 809 13 q 870 31 854 13 q 958 197 919 84 q 997 398 997 311 q 984 439 997 425 q 954 454 970 454 z "},"ℓ":{"ha":593,"x_min":24,"x_max":610,"o":"m 24 315 l 132 389 l 201 618 q 275 818 241 754 q 358 911 309 881 q 466 941 406 941 q 572 906 535 941 q 610 821 610 872 q 597 760 610 791 q 548 675 581 718 q 473 598 515 633 l 391 530 l 336 491 l 281 311 q 241 129 241 182 q 253 90 241 103 q 284 76 266 76 q 399 207 342 76 l 435 195 q 327 31 384 81 q 201 -19 271 -19 q 105 22 144 -19 q 66 125 66 62 q 93 264 66 180 l 116 336 l 41 286 l 24 315 m 353 545 q 524 708 466 626 q 567 815 567 766 q 552 860 567 843 q 516 877 536 877 q 463 850 486 877 q 385 657 431 813 l 353 545 z "},"□":{"ha":839,"x_min":99,"x_max":739,"o":"m 99 640 l 739 640 l 739 0 l 99 0 l 99 640 m 151 589 l 151 52 l 688 52 l 688 589 l 151 589 z "},"▪":{"ha":492,"x_min":62,"x_max":431,"o":"m 431 643 l 431 275 l 62 275 l 62 643 l 431 643 z "},"▫":{"ha":492,"x_min":62,"x_max":431,"o":"m 431 643 l 431 275 l 62 275 l 62 643 l 431 643 m 379 591 l 114 591 l 114 326 l 379 326 l 379 591 z "},"●":{"ha":839,"x_min":121,"x_max":718,"o":"m 420 690 q 566 652 494 690 q 678 541 638 613 q 718 392 718 469 q 631 180 718 268 q 420 93 543 93 q 208 180 296 93 q 121 392 121 268 q 161 542 121 470 q 273 652 201 613 q 420 690 345 690 z "},"◦":{"ha":492,"x_min":52,"x_max":439,"o":"m 246 652 q 383 596 327 652 q 439 458 439 539 q 383 321 439 378 q 246 264 326 264 q 109 321 165 264 q 52 458 52 378 q 109 596 52 539 q 246 652 165 652 m 246 601 q 145 559 186 601 q 104 458 104 517 q 145 358 104 399 q 246 316 187 316 q 347 358 305 316 q 389 458 389 399 q 347 559 389 517 q 246 601 305 601 z "},"Ā":{"ha":926,"x_min":-79,"x_max":1037,"o":"m 563 296 l 278 296 l 221 226 l 156 148 q 128 102 137 123 q 121 71 121 87 q 139 41 121 55 q 196 25 156 27 l 196 0 l -79 0 l -72 25 q -7 51 -35 31 q 102 163 31 78 l 754 941 l 785 941 l 754 188 q 752 117 752 129 q 771 50 752 71 q 833 25 789 28 l 826 0 l 428 0 l 435 25 q 503 35 494 31 q 538 74 522 44 q 557 179 553 104 l 563 296 m 563 352 l 581 652 l 325 352 l 563 352 m 566 1133 l 1037 1133 l 1004 1023 l 534 1023 l 566 1133 z "},"ā":{"ha":694,"x_min":27,"x_max":732,"o":"m 665 619 l 534 168 l 520 113 q 518 98 518 103 q 524 84 518 90 q 536 78 530 78 q 575 100 550 78 q 624 162 585 109 l 648 150 q 545 21 600 62 q 427 -19 490 -19 q 368 1 389 -19 q 348 52 348 21 q 370 150 348 78 l 386 205 q 235 14 307 70 q 145 -19 193 -19 q 55 32 83 -19 q 27 148 27 83 q 85 367 27 243 q 239 566 144 491 q 385 629 317 629 q 446 607 423 629 q 480 526 469 585 l 505 610 l 665 619 m 448 490 q 431 570 448 545 q 398 587 419 587 q 355 566 377 587 q 257 396 309 524 q 204 174 204 267 q 216 122 204 138 q 242 106 228 106 q 304 141 273 106 q 385 264 349 191 q 448 490 448 391 m 262 850 l 732 850 l 699 740 l 230 740 l 262 850 z "},"Ĉ":{"ha":926,"x_min":91,"x_max":1001,"o":"m 1001 941 l 933 648 l 907 648 q 848 826 902 768 q 707 885 794 885 q 521 805 614 885 q 363 560 428 725 q 311 296 311 427 q 369 118 311 180 q 526 57 426 57 q 673 92 606 57 q 807 207 739 127 l 840 207 q 670 30 755 81 q 460 -21 584 -21 q 192 80 294 -21 q 91 342 91 180 q 172 632 91 494 q 404 856 252 770 q 705 941 555 941 q 847 916 762 941 q 907 904 890 904 q 976 941 941 904 l 1001 941 m 684 1242 l 838 1242 l 907 1011 l 838 1011 l 747 1149 l 547 1011 l 476 1011 l 684 1242 z "},"ĉ":{"ha":616,"x_min":37,"x_max":619,"o":"m 522 163 l 542 145 q 412 30 476 66 q 237 -19 328 -19 q 129 7 176 -19 q 59 80 81 33 q 37 177 37 127 q 97 396 37 288 q 256 566 157 503 q 451 629 355 629 q 566 595 528 629 q 605 511 605 561 q 576 433 605 465 q 511 401 547 401 q 459 422 479 401 q 438 470 438 442 q 475 534 438 507 q 500 567 500 553 q 490 587 500 579 q 454 597 476 597 q 347 551 397 597 q 245 397 281 490 q 210 219 210 303 q 246 113 210 153 q 332 73 282 73 q 426 96 375 73 q 522 163 476 118 m 396 941 l 550 941 l 619 710 l 550 710 l 459 848 l 260 710 l 189 710 l 396 941 z "},"Ċ":{"ha":926,"x_min":91,"x_max":1001,"o":"m 1001 941 l 933 648 l 907 648 q 848 826 902 768 q 707 885 794 885 q 521 805 614 885 q 363 560 428 725 q 311 296 311 427 q 369 118 311 180 q 526 57 426 57 q 673 92 606 57 q 807 207 739 127 l 840 207 q 670 30 755 81 q 460 -21 584 -21 q 192 80 294 -21 q 91 342 91 180 q 172 632 91 494 q 404 856 252 770 q 705 941 555 941 q 847 916 762 941 q 907 904 890 904 q 976 941 941 904 l 1001 941 m 714 1209 q 785 1180 755 1209 q 814 1109 814 1151 q 785 1038 814 1067 q 714 1009 755 1009 q 643 1038 673 1009 q 614 1109 614 1067 q 643 1180 614 1151 q 714 1209 672 1209 z "},"ċ":{"ha":616,"x_min":37,"x_max":605,"o":"m 522 163 l 542 145 q 412 30 476 66 q 237 -19 328 -19 q 129 7 176 -19 q 59 80 81 33 q 37 177 37 127 q 97 396 37 288 q 256 566 157 503 q 451 629 355 629 q 566 595 528 629 q 605 511 605 561 q 576 433 605 465 q 511 401 547 401 q 459 422 479 401 q 438 470 438 442 q 475 534 438 507 q 500 567 500 553 q 490 587 500 579 q 454 597 476 597 q 347 551 397 597 q 245 397 281 490 q 210 219 210 303 q 246 113 210 153 q 332 73 282 73 q 426 96 375 73 q 522 163 476 118 m 464 920 q 534 891 505 920 q 564 820 564 862 q 534 749 564 779 q 464 720 505 720 q 393 749 422 720 q 363 820 363 779 q 393 891 363 862 q 464 920 422 920 z "},"Ē":{"ha":926,"x_min":-49,"x_max":944,"o":"m 525 869 l 422 512 l 454 512 q 634 545 577 512 q 730 660 690 577 l 755 660 l 652 302 l 628 302 q 634 360 634 338 q 612 421 634 397 q 555 455 590 445 q 459 462 532 462 l 406 462 l 318 153 q 307 93 307 113 q 321 68 307 77 q 404 54 343 54 q 622 103 519 54 q 806 252 724 153 l 833 252 l 738 0 l -49 0 l -41 25 q 60 51 28 25 q 118 166 92 77 l 291 758 q 305 836 305 808 q 287 876 305 862 q 203 895 269 890 l 211 920 l 944 920 l 885 690 l 861 690 q 840 785 858 758 q 764 849 811 829 q 611 869 717 869 l 525 869 m 437 1133 l 908 1133 l 875 1023 l 406 1023 l 437 1133 z "},"ē":{"ha":616,"x_min":31,"x_max":694,"o":"m 217 254 q 211 182 211 210 q 240 100 211 131 q 319 70 270 70 q 415 93 367 70 q 526 174 463 116 l 546 155 q 394 21 468 61 q 231 -19 320 -19 q 74 35 117 -19 q 31 161 31 90 q 95 383 31 272 q 272 562 160 494 q 496 629 383 629 q 582 602 553 629 q 611 533 611 574 q 583 437 611 484 q 484 334 543 373 q 350 275 424 295 q 217 254 300 261 m 223 290 q 316 314 283 298 q 380 362 349 329 q 435 447 412 396 q 458 543 458 498 q 447 573 458 562 q 420 584 437 584 q 347 538 388 584 q 223 290 273 456 m 223 850 l 694 850 l 661 740 l 191 740 l 223 850 z "}}}
